<svg viewBox="0 0 488 126" xmlns="http://www.w3.org/2000/svg">
<path d="M8.1,3H51v19.8h-7.4V8.2H15.2v14.6H8.1V3z M17.2,10.5h24.5v4.3H17.2V10.5z M17.2,17.2h24.3v4.6H17.2V17.2z M2,24.2h54.7v5.9
	H2V24.2z M29.9,32.3h20.1v5.6H29.9V32.3z M11.4,32.4h13.8v5.1H11.4V32.4z M11.4,40h13.8v5.1H11.4V40z M37.5,37.4
	c3.5,7.4,10.7,13.1,20.4,15.4c-1.5,1.3-3.4,4-4.3,5.7c-10.5-3-17.8-9.9-22-19.4L37.5,37.4z M48.3,32.3h1.3l1.2-0.2l4.5,1.7
	c-3.7,12.8-12.4,20.6-23.4,24.6c-0.8-1.7-2.6-4.3-3.9-5.7c9.6-2.9,17.6-9.8,20.3-19.3V32.3z M1.4,49.2c6.1-0.4,15.2-1.1,24-1.9
	l0.1,5.6c-8.3,1-17,1.8-23.5,2.4L1.4,49.2z M21.6,26.1h7v32.4h-7V26.1z M6.9,26.2h6.6V51H6.9V26.2z M83.4,44.5H117v4.9H83.4V44.5z
	 M80.3,51.8h39.3v5.1H80.3V51.8z M96.5,15.7h6.7v39.8h-6.7V15.7z M80.7,19.9h38.5v4.9H80.7V19.9z M90.6,36.3v2.3h18.9v-2.3H90.6z
	 M90.6,30.6v2.2h18.9v-2.2H90.6z M84.1,26.8h32.1v15.7H84.1V26.8z M114.3,12.2l3,4.6c-8.8,1-21.5,1.6-32,1.5
	c-0.2-1.2-0.8-3.2-1.3-4.4C94.4,13.7,106.7,13.1,114.3,12.2z M69.3,1.2h7v57.3h-7V1.2z M64,13.3l4.6,0.6c0.1,5.9-0.8,12.9-3,17.4
	l-4.5-2.1C63,25.5,63.9,18.8,64,13.3z M75.9,12.6l4.2-1.5c1.4,2.7,2.6,6.3,2.9,8.6l-4.5,1.8C78.2,19.1,77.1,15.4,75.9,12.6z
	 M81.8,4.8h16.8v5H81.8V4.8z M88.3,1.2h6.4v11.5h-6.4V1.2z M104,1.2h6.5v10.7H104V1.2z M100.1,4.8h18.1v5h-18.1V4.8z M124.4,6.3
	h54.2v6.8h-54.2V6.3z M137.8,32.5h27.3v5.7h-27.3V32.5z M136.5,42.2h30v5.9h-30V42.2z M147.8,35.2h7v21.5h-7V35.2z M126.7,17.7h44.2
	v6.7h-36.8v34h-7.4V17.7z M168.8,17.7h7.6V51c0,3.5-0.9,5.2-3.4,6.2c-2.4,1-6,1.1-11,1.1c-0.4-1.9-1.5-4.6-2.4-6.2
	c3,0.2,6.8,0.2,7.8,0.1c1.1-0.1,1.4-0.4,1.4-1.3V17.7z M140.1,26l5.9-1.7c1.4,2,2.8,4.8,3.5,6.6l-6.1,2.1
	C142.8,31,141.4,28.2,140.1,26z M157.3,24.5l6.2,1.7c-1.6,2.9-3.3,5.8-4.7,7.7l-5.2-1.5C154.9,30.1,156.5,26.8,157.3,24.5z
	 M147.5,1.6h8.1v20.8h-8.1V1.6z M193.2,6.9h7.1v51.5h-7.1V6.9z M184,18.4h24.5v6.8H184V18.4z M193.7,21.1l4.3,1.9
	c-2.3,8.7-6.6,19.6-11.3,25.6c-0.7-2.1-2.3-5.2-3.4-7C187.4,36.7,191.7,27.9,193.7,21.1z M204.1,1.8l4.1,6
	c-6.3,2.3-14.7,3.8-21.8,4.7c-0.3-1.6-1.2-4.1-2-5.7C191.4,5.7,199.1,3.8,204.1,1.8z M200.2,25.5c1.5,1.5,6.9,7.6,8.1,9.1l-4.3,5.7
	c-1.4-3.1-5.2-9.3-7-11.9L200.2,25.5z M227,1.1h7.2v57.3H227V1.1z M207.4,40.5l32.9-5.7l1.1,6.9l-32.9,5.8L207.4,40.5z M211.3,9
	l4.8-4.1c3.4,2.5,7.6,6.2,9.5,8.8l-5.1,4.6C218.7,15.6,214.7,11.7,211.3,9z M209.1,25.1l4.6-4.2c3.5,2.5,8.1,6.2,10.1,8.9l-5,4.7
	C216.9,31.8,212.6,27.7,209.1,25.1z M268.7,1.3h8.4c-0.4,12.6-0.7,42.1-26.2,57.1c-1.3-2-3.7-4.3-6.1-5.9
	C269.5,39.1,268.4,11.7,268.7,1.3z M276.4,8.7c0.5,4.9,2.4,32.4,26.2,43c-2.2,1.7-4.3,4.2-5.4,6.3c-25-11.9-27-42.4-27.9-48.5
	L276.4,8.7z M312.7,11.1h18.7v41.1h-18.7v-6.5h12.1V17.5h-12.1V11.1z M308.5,11.1h6.6v45.6h-6.6V11.1z M312.4,27.4H328v6.3h-15.6
	V27.4z M317.1,1.1l8,1.2c-1.4,4.1-2.9,8.5-4.1,11.3l-5.9-1.3C316,9.2,316.8,4.5,317.1,1.1z M339.5,10.7h17.8v6.6h-17.8V10.7z
	 M354.8,10.7h6.8c0,0,0,2.4-0.1,3.3c-0.8,27.5-1.5,37.1-4,40.4c-1.7,2.4-3.4,3-5.9,3.4c-2.3,0.4-6,0.3-9.6,0.1
	c-0.1-2-1.1-5.1-2.4-7.1c4,0.3,7.6,0.4,9.2,0.4c1.2,0,1.9-0.2,2.7-1.1c2-2.1,2.7-12.6,3.4-38V10.7z M339.7,1.2l7,1.6
	c-2.4,9-6.3,18.3-10.5,24.2c-1.3-1.2-4.3-3.3-6-4.3C334.3,17.6,337.7,9.3,339.7,1.2z M336.7,28.2l5.7-3.2c3,4.2,7,10.1,8.9,13.7
	l-6.2,3.8C343.5,38.7,339.6,32.7,336.7,28.2z M385.4,14.1h37.4v5.4h-37.4V14.1z M388,31.1h32.1v5.2H388V31.1z M385.6,39.3h36.5v5.6
	h-36.5V39.3z M399,1.3h6.9V49H399V1.3z M388.7,5.7h30.7v22.4h-31v-5.6H413V11.3h-24.3V5.7z M368.4,4.6h13.8v6.3h-13.8V4.6z
	 M373.5,22h8.7v6.3h-8.9L373.5,22z M379.6,22h1.3l1.2-0.1l4.1,0.9c-1.6,18.2-6.5,29.8-14.5,35.7c-1.1-1.3-3.8-3.8-5.3-4.8
	c7.7-5.2,12-15.1,13.2-30.5V22z M373.7,31.8c4.8,16.2,15.6,18.9,30,18.9c3.5,0,16.2,0,20.4-0.1c-1,1.5-2.3,4.7-2.6,6.6h-18
	c-17.4,0-29.2-3.7-35.1-23.6L373.7,31.8z M370.5,31c-0.5-1.3-1.9-4.1-2.8-5.6c1.2-0.4,3-2,4.3-4.1c1.3-2,5.3-9.3,7.6-16.3V4.6l2.6-1
	l4.4,3c-3.3,7.9-7.5,15.6-11.2,20.9v0.1C375.4,27.6,370.5,29.8,370.5,31z M429.9,17.4h21.4v5.1h-21.4V17.4z M437.4,18.9h6.6v12.6
	h-6.6V18.9z M429.2,30.8c5.6-0.5,13.9-1.5,21.9-2.6l0.2,5.6c-7.4,1-15.3,2-21.2,2.8L429.2,30.8z M459.1,18.5h6.1V24
	c0,5-1.7,10.2-9.6,13.2c-0.9-1.2-3.4-3.3-4.8-4.1c7.1-2.6,8.2-5.9,8.2-9.3V18.5z M469.4,17.1h6.9v11.6c0,1-0.1,1.6,0.1,1.8
	c0.1,0.2,0.4,0.2,0.6,0.2s0.7,0,1,0c0.2,0,0.5-0.1,0.7-0.2c0.2-0.1,0.4-0.4,0.5-1.2c0.1-0.7,0.2-2.3,0.2-4.3c1.1,1,3.2,2,4.7,2.5
	c-0.1,2.3-0.4,4.8-0.8,5.9c-0.4,1-1.1,1.8-2.1,2.3c-0.8,0.4-2.1,0.7-3.2,0.7c-0.9,0-2.3,0-3,0c-1.5,0-3.2-0.5-4.2-1.5
	c-1-1.1-1.5-2.4-1.5-6.2V17.1z M428.7,38.9h55.5v5.7h-55.5V38.9z M452.9,35.4h7.1v23.1h-7.1V35.4z M452.2,27l2.5-4.1
	c4.6,2,11.4,5.1,14.9,7l-2.6,4.7C463.6,32.4,456.9,29.1,452.2,27z M453.4,17.1h18.2v4.8h-18.2V17.1z M436.6,4.5h19.1V10h-19.1V4.5z
	 M461.7,4.5h23V10h-23V4.5z M436.9,0.7l6.4,2c-2.6,5.2-6.8,10.4-10.7,13.7c-1-1.3-3.5-3.8-4.9-5.1C431.4,8.7,434.9,4.7,436.9,0.7z
	 M461.9,0.7l6.6,1.8c-2.1,5.3-5.8,10.7-9.5,14c-1.2-1.2-3.9-3.4-5.4-4.4C457.2,9.3,460.3,5,461.9,0.7z M440.4,11.8l4.6-3.5
	c1.9,1.7,4.3,4.2,5.4,5.9l-4.9,3.9C444.5,16.3,442.2,13.7,440.4,11.8z M467.1,11.5l5-3.4c1.8,1.6,4,3.8,5.1,5.4l-5.3,3.7
	C470.9,15.7,468.8,13.2,467.1,11.5z M444.4,45l6,2.2c-3.8,4.8-10.2,8.8-16.9,10.7c-1-1.8-3.2-4.5-4.8-6
	C434.8,50.7,441.1,48.1,444.4,45z M463,49l4.9-4.5c5.1,2.1,12.2,5.4,15.9,7.9l-5.3,4.9C475.1,55,468.2,51.3,463,49z M7.7,92.9h26.2
	v3.9H7.7V92.9z M26.6,90.4l2.5-2.4c1.6,0.8,3.5,2,4.5,3L31,93.6C30,92.6,28.1,91.2,26.6,90.4z M28.5,98.2l4.4,0.8
	c-2.3,8.3-6.9,14.7-13.1,18.7c-0.6-0.8-2.1-2.6-3.1-3.4C22.6,110.9,26.7,105.3,28.5,98.2z M7.2,110.8c3.4-0.4,8.4-1,13.3-1.6
	l0.1,3.8c-4.6,0.7-9.2,1.4-12.9,2L7.2,110.8z M12.5,101.9v3h3.1v-3H12.5z M8.9,98.9h10.5v9H8.9V98.9z M20.3,88.9H25
	c0.3,11.7,1.9,22.7,5,23.5c0.5,0.1,0.9-1.7,1.1-4.5c0.8,0.9,2.5,2.2,3.5,2.7c-0.7,5.8-3.2,7.6-6.3,6.2
	C22.4,114.9,21,102.4,20.3,88.9z M0.7,83.1H41v42.3h-5.6V88.2H6v37.2H0.7V83.1z M4,118.4h34.4v5H4V118.4z M47.4,82.9h10.7v5h-5.9
	v37.1h-4.8V82.9z M56.4,82.9h0.9l0.8-0.2l3.5,1.9c-1.1,4-2.5,8.8-3.8,12.5c2.6,3.7,3.1,7,3.1,9.8c0,3-0.6,5.1-2,6.2
	c-0.7,0.6-1.6,0.8-2.5,1c-0.8,0.1-1.9,0.1-2.9,0c0-1.3-0.4-3.3-1.2-4.6c0.8,0,1.4,0,1.9,0c0.5,0,0.9-0.1,1.2-0.4
	c0.5-0.4,0.8-1.6,0.8-2.9c0-2.3-0.5-5.3-3-8.7c1.3-4.2,2.6-10.3,3.2-13.3V82.9z M67.8,99.3h13.8v4.5H67.8V99.3z M63.4,107h22.8v4.6
	H63.4V107z M65.5,84.5h7.1v3.7h-7.1V84.5z M63.8,91l2.3-2.5c1.7,1.2,4,3.1,5.2,4.2l-2.4,2.9C67.8,94.3,65.6,92.3,63.8,91z
	 M79.6,115.1l4.1-2.4c2.1,2.3,5,5.6,6.4,7.7l-4.4,2.8C84.5,121,81.7,117.6,79.6,115.1z M71.5,84.5h0.8l0.8-0.2l2.8,1.1
	C73.8,95,69,102,63,105.9c-0.6-1-1.8-2.6-2.8-3.4c5.3-3.1,9.7-9.7,11.3-17.2V84.5z M78,83.6h8v3.7h-8V83.6z M65.5,81.1l4.2,0.9
	c-1.7,5.1-4.7,9.8-7.9,12.8c-0.7-0.8-2.4-2.2-3.3-2.8C61.6,89.5,64.1,85.5,65.5,81.1z M84.4,83.6h1l0.9-0.2l3.1,1.7
	c-1.4,4.2-3.8,8.6-6.2,11.4c-0.7-1-2.1-2.4-3-3.1c1.8-2.3,3.5-6.2,4.2-9V83.6z M64.9,113.2l5,1.6c-1.7,2.9-4.4,6.4-6.3,8.6
	c-1.1-0.8-3.2-2.2-4.5-2.9C61.2,118.7,63.5,115.7,64.9,113.2z M78.8,85.5c1.9,7.1,5.9,13.4,11.5,16.4c-1.1,0.9-2.5,2.7-3.2,3.9
	C81,102.1,77,94.9,74.7,86.5L78.8,85.5z M72.3,108.9h5.3v16.2h-5.3V108.9z M59.6,95.5c1.9-0.1,4-0.4,6.6-0.7l0.1,3
	c-2.2,0.4-4,0.8-6.1,1.1L59.6,95.5z M105,87.9h4.5v15.3H105V87.9z M99.6,91.3h14v3.3h-14V91.3z M99.6,96.4h14v3.3h-14V96.4z
	 M96.9,101.5h18v3.5h-18V101.5z M99.2,81.1l4.3,1.2c-1.8,5.3-4.9,10.5-8.3,13.8c-0.5-1-1.9-3.1-2.7-4C95.4,89.5,97.9,85.4,99.2,81.1
	z M125.1,87.5h4.6v16h-4.6V87.5z M119.9,91.3h14.4v3.3h-14.4V91.3z M119.9,96.4h14.4v3.3h-14.4V96.4z M117.2,101.5H136v3.5h-18.9
	V101.5z M119.4,81.1l4.4,1.3c-1.9,5.2-5.1,10.6-8.4,14c-0.6-0.9-2.1-3-3-3.9C115.4,89.7,118,85.5,119.4,81.1z M100.7,86h13.7v3.6
	H97.5L100.7,86z M96.9,90.5l4.7-3.2v16.1h-4.7V90.5z M120.5,86h14.9v3.6h-18.1L120.5,86z M117.2,90.5l4.7-3.4v16.3h-4.7V90.5z
	 M95.9,107h31.6v4.6H95.9V107z M125.6,107h1.2l1-0.2l3.8,2.3c-6.6,10.6-20.9,14.7-36.1,16.2c-0.4-1.5-1.4-3.8-2.3-5.1
	c14-0.9,27.4-4.4,32.4-12.5V107z M106.1,110.1c5.5,5.5,17,8.6,30.1,9.4c-1.2,1.3-2.7,3.8-3.5,5.4c-13.5-1.3-24.7-5.1-31.7-12.5
	L106.1,110.1z M124.6,82.6l4.7-1.2c0.8,1.7,1.8,3.9,2.3,5.4l-4.8,1.4C126.3,86.8,125.4,84.4,124.6,82.6z M104.3,82.5l4.7-1.2
	c0.8,1.6,1.8,3.9,2.3,5.4l-4.8,1.4C106,86.6,105.1,84.3,104.3,82.5z M177.3,82.7h5.3c0,0,0,1.5-0.1,2.1c-0.5,11.8-1,16.3-2.3,18
	c-1,1.2-2,1.6-3.5,1.8c-1.3,0.2-3.3,0.2-5.5,0.1c-0.1-1.5-0.7-3.5-1.5-4.9c1.8,0.2,3.5,0.2,4.4,0.2c0.7,0,1.1-0.1,1.5-0.6
	c0.8-1,1.3-5.1,1.7-15.9V82.7z M167.8,84.8h5c-0.7,9.3-2.6,17.3-12.5,21.9c-0.6-1.2-2-3.1-3.1-4C166,99.1,167.2,92.3,167.8,84.8z
	 M158.5,82.7h20.6v4.7h-20.6V82.7z M162.1,108h4.8v10.3c0,1.3,0.2,1.5,1.6,1.5c0.6,0,3.2,0,4,0c1.3,0,1.6-0.7,1.7-5.7
	c1,0.8,3,1.5,4.3,1.8c-0.5,6.6-1.7,8.3-5.5,8.3c-1,0-4.4,0-5.3,0c-4.7,0-5.7-1.4-5.7-5.8V108z M157.9,108.9l3.9,1.1
	c-0.5,3.8-1.3,8.2-2.9,10.9l-3.9-1.6C156.5,116.6,157.5,112.4,157.9,108.9z M166.1,106.2l3.3-2.1c2,2.1,4.3,5,5.3,7l-3.6,2.4
	C170.2,111.5,168.1,108.5,166.1,106.2z M176.3,108.3l3.8-1.4c1.8,3.2,3.6,7.3,4.1,10.1l-4.1,1.6C179.6,115.8,178,111.5,176.3,108.3z
	 M158,91.2l3-3c2.4,2,6,4.7,7.7,6.5l-3.1,3.4C163.9,96.3,160.4,93.4,158,91.2z M144.1,82.9l4.7-1.6c1.1,2,2.3,4.7,2.9,6.4l-4.9,2
	C146.3,87.8,145.1,85,144.1,82.9z M141.1,95.5h14.7v4.2h-14.7V95.5z M141.1,101.9h14.7v4.3h-14.7V101.9z M139.7,88.9h17v4.5h-17
	V88.9z M143.6,108.5h12v14.3h-12v-4.5h7.3v-5.4h-7.3V108.5z M141.1,108.5h4.6v16.2h-4.6V108.5z M204.9,82.6h7.8V87h-7.8V82.6z
	 M211.5,82.6h0.8l0.9-0.2l3.3,1c-1.6,8.6-5.5,15.3-10.8,19.1c-0.8-1.1-2.3-2.9-3.3-3.8c4.4-2.9,7.9-9.1,9.1-15.5V82.6z M203.1,91.7
	l2.9-3.6c1.8,0.9,4,2.3,5.1,3.2l-3,3.9C207,94.3,204.8,92.8,203.1,91.7z M208.3,113.8l4.7-1.3c1.2,2,2.4,4.6,2.6,6.3l-5,1.4
	C210.5,118.6,209.5,115.8,208.3,113.8z M221.4,81.3c1.6,7,4.9,13.5,10.2,16.6c-1.3,0.9-2.9,2.8-3.8,4.1c-5.8-4-9.2-11.4-11.1-19.9
	L221.4,81.3z M224.7,81.8l3.2,3.1c-1.7,1.6-3.8,3-5.3,4l-2.7-2.8C221.4,85.1,223.5,83.1,224.7,81.8z M227.7,87.5l3.1,3.1
	c-1.9,1.5-4.2,2.8-5.8,3.7l-2.5-2.8C224,90.6,226.4,88.8,227.7,87.5z M211.2,94h11.5v4.5h-11.5V94z M203.5,119.7h26.8v4.5h-26.8
	V119.7z M212,104.8v3.5h9.4v-3.5H212z M207.2,100.6h19.2v12h-19.2V100.6z M220.5,112.3l5.5,1.2c-1.4,2.7-2.8,5.6-4,7.5l-4.3-1.2
	C218.8,117.8,220,114.6,220.5,112.3z M188.7,95.4h13.1v4.3h-13.1V95.4z M188.7,101.8h13.1v4.2h-13.1V101.8z M186.8,88.9h16.4v4.5
	h-16.4V88.9z M190.8,108.3h11.2v14.3h-11.2v-4.5h6.9v-5.3h-6.9V108.3z M188.5,108.3h4.3v16.3h-4.3V108.3z M191.1,83l3.8-2.3
	c1.4,2,2.9,4.6,3.7,6.3l-4,2.8C194,87.9,192.4,85,191.1,83z M268.8,89.6h29.5v4.2h-29.5V89.6z M272.4,101.6h15.1v4.1h-15.1V101.6z
	 M287.1,105.3h6.8v3.9h-6.8V105.3z M281.2,85.1h5.4v15.7h-5.4V85.1z M280,91.8l3.9,1.6c-3,4-8.1,7.8-13.2,9.5
	c-0.8-1.2-2.2-3-3.3-3.9C272.3,97.6,277.4,94.8,280,91.8z M292.4,105.3h5.2c0,0-0.1,1.2-0.2,1.8c-0.4,5.3-1,7.8-2.1,8.9
	c-0.9,0.9-2,1.3-3.4,1.4c-1.2,0.1-3.4,0.2-5.7,0c-0.1-1.3-0.6-3-1.3-4.2c1.9,0.2,3.9,0.2,4.7,0.2c0.7,0,1.1,0,1.5-0.4
	c0.6-0.6,1-2.5,1.4-7.1V105.3z M293.2,81.7l3.5,3.7c-7,1.5-16.9,2.1-25.2,2.3c-0.1-1.1-0.7-2.8-1.2-3.8
	C278.4,83.5,287.8,82.8,293.2,81.7z M276.9,102.8h5.1c-0.5,7.2-2.1,12.2-10.1,14.9c-0.5-1.2-1.9-3.1-2.9-4.1
	C275.5,111.6,276.5,108.2,276.9,102.8z M286.3,101.6h4.7c-0.5,2.6-1.1,5.5-1.7,7.6h-4.8C285.2,107.1,285.9,104.1,286.3,101.6z
	 M256.8,83.6l4.2-2.5c2.1,2.3,4.6,5.2,5.9,7.1l-4.4,3C261.3,89.2,258.7,85.9,256.8,83.6z M255.6,92h9.9v4.5h-9.9V92z M265.2,112.5
	c2.5,6.3,8,7.1,16.5,7.1c5,0,12.8-0.3,18.1-0.8c-0.8,1.1-1.5,3.7-1.8,5.2c-4.9,0.3-11,0.4-16.4,0.4c-10.9,0-16.7-1.4-20.2-10.4
	L265.2,112.5z M263.3,103.5h1.7l0.9-0.1l2.3,0.9c-1.4,10.3-4.9,17.3-9.9,21.1c-0.8-1.1-2.6-3-3.7-3.8c4.7-3.1,7.6-9.1,8.6-17.3
	V103.5z M256.5,108.6v-4l2-1.1h6.9v4.4h-6.1C258.3,107.8,256.9,108.2,256.5,108.6z M256.5,108.6c-0.3-1.2-1.3-3.6-1.8-4.6
	c0.8-0.2,1.6-0.5,2.4-1.5c1.4-1.3,5.5-7.3,7.1-9.9v-0.1l1.4-0.6l3.4,1.6c-2.2,3.2-6.2,9.1-8.8,12.1
	C260.3,105.5,256.5,107.3,256.5,108.6z M286.9,96.4l2.8-3.3c3.7,1.7,7.8,4.1,10.2,5.8l-3.4,3.5C294.2,100.6,290.3,98.2,286.9,96.4z
	 M306.9,83.7h13.5v28.9h-13.5v-5.2h8.3V88.8h-8.3V83.7z M306.9,95.4h10.3v5h-10.3V95.4z M327,83h14.4v5.2H327V83z M327,94.2h14.4
	v5.1H327V94.2z M326.9,105.3h14.5v5h-14.5V105.3z M303.8,83.7h5.2v32.9h-5.2V83.7z M339.3,83h5.6v35.8c0,2.9-0.6,4.5-2.4,5.4
	c-1.9,0.9-4.6,1-8.6,1c-0.2-1.6-1.1-4-1.9-5.5c2.5,0.1,5.4,0.1,6.2,0.1c0.8,0,1.1-0.3,1.1-1.1V83z M323.6,83h5.5V100
	c0,8.1-1.3,19.2-10,25.6c-0.8-1.1-3-3.1-4.2-3.8c7.9-5.8,8.6-14.6,8.6-21.8V83z M359.5,101.9h28.1v23.5H382v-19.2h-17v19.2h-5.4
	V101.9z M350.2,95.5h41.9v4.4h-41.9V95.5z M353.5,89.2h36v4.3h-36V89.2z M363.2,108.1h21.1v3.6h-21.1V108.1z M363.2,113.7h21.1v3.5
	h-21.1V113.7z M362.5,119.4h21.7v4.3h-21.7V119.4z M386,81.2l3.3,4c-9.6,1.6-23.6,2.2-35.3,2.1c-0.1-1.2-0.6-3.1-1.1-4.2
	C364.5,83.1,378.1,82.6,386,81.2z M366,85.1l5.9,1.2c-3.2,11.7-8.8,22.9-19.7,29.1c-0.8-1.3-2.4-3.4-3.5-4.5
	C358.6,105.6,363.8,95.3,366,85.1z M419.1,92.5v2.4h12.3v-2.4H419.1z M419.1,86.4v2.4h12.3v-2.4H419.1z M413.6,82.5H437v16.4h-23.4
	V82.5z M411.3,100.9h27.3v4.6h-27.3V100.9z M410.1,108.2h29.5v4.8h-29.5V108.2z M427.4,104.9h5.7v14.7c0,2.6-0.5,3.9-2.3,4.7
	c-1.7,0.8-4.1,0.8-7.3,0.8c-0.2-1.6-1-3.6-1.7-5c2,0.1,4.2,0.1,4.8,0c0.7,0,0.9-0.2,0.9-0.8V104.9z M413.2,115.3l3.9-2.6
	c2,1.8,4.5,4.5,5.7,6.2l-4.2,3C417.6,120.1,415.1,117.3,413.2,115.3z M406.8,91.5l4.9,2.1c-3.4,5.8-8.9,12-13.9,15.8
	c-0.4-1.2-1.8-4.4-2.6-5.8C399.3,100.7,404,96,406.8,91.5z M405.5,81.1l5.4,2.2c-3.1,4.4-7.9,9-12.4,11.8c-0.6-1.3-1.9-3.6-2.8-4.7
	C399.3,88.1,403.5,84.3,405.5,81.1z M402.1,102l5.2-5.2l0.2,0.1v28.3h-5.5V102z M455.3,95v2.9H475V95H455.3z M455.3,102.5v2.9H475
	v-2.9H455.3z M455.3,87.5v2.9H475v-2.9H455.3z M449.8,82.6h30.9v27.8h-30.9V82.6z M467.3,106.5h5.7v11.3c0,1.5,0.3,1.7,2,1.7
	c0.8,0,3.9,0,4.9,0c1.6,0,1.9-0.8,2.2-6.3c1.1,0.9,3.6,1.9,5.2,2.3c-0.6,7.5-2.1,9.4-6.8,9.4c-1.2,0-5.1,0-6.2,0c-5.6,0-7-1.7-7-7
	V106.5z M455.8,108.5h6.1c-0.8,8.6-3,14.1-15.7,17c-0.5-1.5-2-3.8-3.1-5C453.9,118.4,455.2,114.7,455.8,108.5z"/>
</svg>
