<svg width="76" height="76" viewBox="0 0 76 76" fill="none" xmlns="http://www.w3.org/2000/svg">
<path d="M75.42 0H0.150024V75.27H75.42V0Z" fill="#85BA41"/>
<path d="M53.89 37.24C53.89 46.14 46.68 53.35 37.78 53.35C28.88 53.35 21.6699 46.14 21.6699 37.24H53.8799H53.89Z" fill="white"/>
<path d="M33.89 26.6199C33.89 28.9299 32.02 30.8099 29.7 30.8099C27.38 30.8099 25.51 28.9399 25.51 26.6199C25.51 24.2999 27.38 22.4299 29.7 22.4299C32.02 22.4299 33.89 24.2999 33.89 26.6199Z" fill="white"/>
<path d="M49.1899 26.6199C49.1899 28.9299 47.3199 30.8099 44.9999 30.8099C42.6799 30.8099 40.8099 28.9399 40.8099 26.6199C40.8099 24.2999 42.6799 22.4299 44.9999 22.4299C47.3199 22.4299 49.1899 24.2999 49.1899 26.6199Z" fill="white"/>
</svg>
