<svg width="76" height="76" viewBox="0 0 76 76" fill="none" xmlns="http://www.w3.org/2000/svg">
<path d="M75.36 0.689941H0.0899658V75.9599H75.36V0.689941Z" fill="#D53875"/>
<path d="M50.3701 39.3998C50.3701 39.3998 51.12 53.8298 36.98 53.8298C22.84 53.8298 22.55 41.7598 22.55 39.3998C22.55 34.5798 24.98 26.8098 34.25 28.5398C35.62 28.7898 37.0201 28.7298 38.3801 28.4298C40.1701 28.0298 43.1001 27.9698 46.5501 30.1198C50.7901 32.7598 50.3701 39.4098 50.3701 39.4098V39.3998Z" fill="white"/>
<path d="M35.75 29.4899C35.75 29.4899 36.13 25.7199 34.43 24.1099C32.73 22.4999 35.42 22.0399 36.46 24.7699C37.27 26.9099 36.88 29.4899 36.88 29.4899H35.75Z" fill="white"/>
</svg>
