<svg width="690" height="19" viewBox="0 0 690 19" fill="none" xmlns="http://www.w3.org/2000/svg">
<g style="mix-blend-mode:multiply" opacity="0.6">
<path d="M0 15.19L1.58 14.03C2.4 15.58 4.26 16.62 6.19 16.62C8.57 16.62 10.5 15.34 10.5 13.55C10.5 11.51 7.9 10.53 5.58 9.65001C3.35 8.78001 0.86 7.69001 0.86 4.89001C0.86 2.09001 3.37 0.0100098 6.55 0.0100098C9.25 0.0100098 11.08 1.49001 11.76 3.28001L10.22 4.32001C9.63 2.96001 8.17 2.03001 6.54 2.03001C4.59 2.03001 2.93 3.31001 2.93 4.93001C2.93 6.69001 4.92 7.33001 7.26 8.23001C9.99 9.33001 12.56 10.59 12.56 13.51C12.56 16.64 9.67 18.68 6.18 18.68C3.2 18.68 0.88 17.13 0.01 15.19H0Z" fill="#A2C7F3"/>
<path d="M54.4301 10.11C54.4301 15.2 50.5101 18.68 45.8301 18.68C40.6201 18.68 36.4301 14.49 36.4301 9.37003C36.4301 4.25003 40.6301 0.0300293 45.7501 0.0300293C47.9801 0.0400293 50.6901 1.17003 52.3301 2.75003L51.1801 4.45003C49.7701 3.05003 47.5701 2.07003 45.7401 2.07003C41.9101 2.07003 38.5101 5.24003 38.5101 9.36003C38.5101 13.48 41.7201 16.6 45.9101 16.6C49.4601 16.6 52.2501 14.22 52.2501 11.01C52.2501 10.88 52.2501 10.75 52.2401 10.65H45.7301V8.80003H54.3601C54.3901 9.09003 54.4401 9.58003 54.4401 10.09L54.4301 10.11Z" fill="#A2C7F3"/>
<path d="M78.3101 15.19L79.8901 14.03C80.7101 15.58 82.5701 16.62 84.5001 16.62C86.8801 16.62 88.8101 15.34 88.8101 13.55C88.8101 11.51 86.2101 10.53 83.8901 9.65001C81.6601 8.78001 79.1701 7.69001 79.1701 4.89001C79.1701 2.09001 81.6801 0.0100098 84.8601 0.0100098C87.5501 0.0100098 89.3901 1.48001 90.0601 3.28001L88.5201 4.32001C87.9301 2.96001 86.4701 2.03001 84.8401 2.03001C82.8901 2.03001 81.2301 3.31001 81.2301 4.93001C81.2301 6.69001 83.2201 7.33001 85.5601 8.23001C88.2901 9.33001 90.8601 10.59 90.8601 13.51C90.8601 16.64 87.9701 18.68 84.4801 18.68C81.5001 18.68 79.1801 17.13 78.3101 15.19Z" fill="#A2C7F3"/>
<path d="M157.06 12.89C157.06 15.76 154.79 18.43 151.32 18.43H144.6V0.280029H149.56C152.59 0.280029 154.77 2.42003 154.77 4.81003C154.77 6.78003 153.34 8.21003 152.42 8.21003C154.75 8.21003 157.07 10.16 157.07 12.9L157.06 12.89ZM146.64 2.28003V7.77003H149.66C151.63 7.78003 152.85 6.58003 152.85 5.05003C152.85 3.52003 151.4 2.28003 149.67 2.28003H146.64ZM155.06 12.76C155.06 11.06 153.45 9.58003 151.05 9.60003H146.64V16.44H151.16C153.23 16.44 155.07 14.88 155.07 12.77L155.06 12.76Z" fill="#A2C7F3"/>
<path d="M181.51 11.38V0.280029H183.57V11.37C183.57 14.42 185.55 16.64 188.23 16.64C190.91 16.64 192.89 14.41 192.89 11.37V0.280029H194.95V11.38C194.95 15.61 192.09 18.71 188.23 18.71C184.37 18.71 181.51 15.61 181.51 11.38Z" fill="#A2C7F3"/>
<path d="M220.74 0.280029H222.79V18.43H220.74V0.280029Z" fill="#A2C7F3"/>
<path d="M259.71 16.4V18.44H248.76V0.280029H250.81V16.4H259.71Z" fill="#A2C7F3"/>
<path d="M298.67 9.37005C298.67 14.9101 295.07 18.43 289.41 18.43H284.35V0.28005H289.41C295.06 0.27005 298.67 3.81005 298.67 9.37005ZM296.6 9.37005C296.6 5.08005 293.78 2.31005 289.39 2.31005H286.39V16.39H289.42C293.79 16.39 296.59 13.6401 296.59 9.37005H296.6Z" fill="#A2C7F3"/>
<path d="M323.69 0.280029H325.74V18.43H323.69V0.280029Z" fill="#A2C7F3"/>
<path d="M366.31 0.24V18.72H366.21L353.77 4.9V18.46H351.72V0H351.83L364.26 13.81V0.24H366.31Z" fill="#A2C7F3"/>
<path d="M409.34 10.11C409.34 15.2 405.42 18.68 400.74 18.68C395.53 18.68 391.34 14.49 391.34 9.37003C391.34 4.25003 395.53 0.0300293 400.65 0.0300293C402.88 0.0400293 405.59 1.17003 407.23 2.75003L406.08 4.45003C404.67 3.05003 402.47 2.07003 400.64 2.07003C396.81 2.07003 393.41 5.24003 393.41 9.36003C393.41 13.48 396.62 16.6 400.81 16.6C404.36 16.6 407.15 14.22 407.15 11.01C407.15 10.88 407.15 10.75 407.14 10.65H400.63V8.80003H409.26C409.29 9.09003 409.34 9.58003 409.34 10.09V10.11Z" fill="#A2C7F3"/>
<path d="M463.26 0.280029H469.01C472.52 0.280029 475.39 2.91003 475.39 6.14003C475.39 9.37003 472.52 11.74 469.01 11.74H465.31V18.44H463.26V0.280029ZM473.35 6.12003C473.35 4.02003 471.4 2.31003 469.01 2.31003H465.31V9.71003H469.01C471.4 9.73003 473.35 8.11003 473.35 6.12003Z" fill="#A2C7F3"/>
<path d="M510.56 18.43L505.49 11.35H502.1V18.43H500.05V0.280029H505.4C508.77 0.280029 511.52 2.87003 511.52 6.07003C511.52 8.42003 509.91 10.45 507.7 11.11L513.09 18.43H510.56ZM505.47 9.63003C507.63 9.63003 509.41 7.99003 509.41 6.03003C509.41 3.93003 507.61 2.31003 505.47 2.31003H502.09V9.62003H505.47V9.63003Z" fill="#A2C7F3"/>
<path d="M536.39 9.37002C536.39 4.22002 540.59 0.0200195 545.71 0.0200195C550.83 0.0200195 555.05 4.22002 555.05 9.37002C555.05 14.52 550.85 18.67 545.7 18.67C540.55 18.67 536.39 14.48 536.39 9.37002ZM552.98 9.36002C552.98 5.36002 549.71 2.09002 545.7 2.09002C541.69 2.09002 538.46 5.37002 538.46 9.36002C538.46 13.35 541.71 16.6 545.7 16.6C549.69 16.6 552.98 13.35 552.98 9.36002Z" fill="#A2C7F3"/>
<path d="M582.12 2.27999V8.32999H589.59V10.38H582.12V18.47H580.07V0.23999H590.73V2.27999H582.12Z" fill="#A2C7F3"/>
<path d="M615.37 0.280029H617.42V18.43H615.37V0.280029Z" fill="#A2C7F3"/>
<path d="M654.34 16.4V18.44H643.39V0.280029H645.44V16.4H654.34Z" fill="#A2C7F3"/>
<path d="M681.03 2.30003V8.04003H688.5V10.09H681.03V16.4H689.64V18.44H678.98V0.280029H689.64V2.30003H681.03Z" fill="#A2C7F3"/>
</g>
</svg>
