<svg xmlns="http://www.w3.org/2000/svg" viewBox="0 0 690 19">
<path fill="#A2C7F3" d="M0,15.2L1.6,14c1.4,3.4,8.8,3.5,8.9-0.5c-0.4-4.4-9.8-3.3-9.6-8.7c-0.3-5.5,9.5-6.5,10.9-1.6l-1.5,1
	C9.1,1.1,3,1.4,2.9,4.9c0.6,3.9,10.1,3.4,9.6,8.6C12.8,19.7,1.8,20.2,0,15.2L0,15.2z M54.4,10.1c0,12.1-18.4,10.5-18-0.7
	C36.2,1.2,46.7-3,52.3,2.8l-1.2,1.7c-4.4-4.7-12.7-1.8-12.7,4.9c-0.7,8.4,13.9,10,13.7,1.3h-6.5V8.8h8.6
	C54.4,9.1,54.5,9.6,54.4,10.1z M78.3,15.2l1.6-1.2c1.4,3.4,8.8,3.5,8.9-0.5c-0.4-4.4-9.8-3.3-9.6-8.7c-0.3-5.5,9.5-6.5,10.9-1.6
	l-1.5,1c-1.1-3.2-7.2-2.9-7.3,0.6c0.6,3.9,10.1,3.4,9.6,8.6C91.1,19.7,80.1,20.2,78.3,15.2z M157.1,12.9c0.2,6.4-8,5.7-12.5,5.5V0.3
	h5c5.1-0.5,7.1,6.8,2.9,7.9C154.8,8.2,157.1,10.2,157.1,12.9L157.1,12.9z M146.6,2.3v5.5c2.2,0.1,6.4,0.3,6.2-2.7
	C152.9,2,148.8,2.2,146.6,2.3z M155.1,12.8c0.2-3.7-5.8-3.2-8.4-3.2v6.8C149.6,16.5,155.1,17.1,155.1,12.8L155.1,12.8z M181.5,11.4
	V0.3h2.1c0.6,4.1-2.4,16.6,4.7,16.4c7,0.2,4.1-12.3,4.7-16.4h2.1v11.1C195.2,21,181.2,21,181.5,11.4z M220.7,0.3h2v18.1h-2V0.3z
	 M259.7,16.4v2h-10.9V0.3h2.1v16.1H259.7z M298.7,9.4c0.4,8.2-7.7,9.7-14.3,9.1V0.3C291-0.4,299,1.2,298.7,9.4z M296.6,9.4
	c0.2-5.8-5.2-7.6-10.2-7.1v14.1C291.4,17,296.8,15.2,296.6,9.4L296.6,9.4z M323.7,0.3h2v18.1h-2V0.3z M366.3,0.2v18.5h-0.1
	L353.8,4.9v13.6h-2V0h0.1l12.4,13.8V0.2H366.3z M409.3,10.1c0,12.1-18.4,10.5-18-0.7c-0.2-8.1,10.2-12.4,15.9-6.6l-1.2,1.7
	c-4.4-4.7-12.7-1.8-12.7,4.9c-0.7,8.4,13.9,10,13.7,1.3h-6.5V8.8h8.6C409.3,9.1,409.3,9.6,409.3,10.1z M463.3,0.3h5.8
	c10.4,1.4,7.6,13.4-3.7,11.5v6.7h-2V0.3z M473.4,6.1c0.1-3.9-5.1-4-8-3.8v7.4C468.2,9.9,473.4,9.9,473.4,6.1z M510.6,18.4l-5.1-7.1
	h-3.4v7.1H500V0.3h5.4c6.4-0.3,8.5,9,2.3,10.8l5.4,7.3H510.6z M505.5,9.6c6.5-0.9,4.9-8.7-3.4-7.3v7.3L505.5,9.6L505.5,9.6z
	 M536.4,9.4c-0.1-12.1,18.8-12.1,18.7,0C555.2,21.4,536.2,21.4,536.4,9.4z M553,9.4c0.1-9.4-14.7-9.4-14.5,0
	C538.3,18.8,553.1,18.7,553,9.4z M582.1,2.3v6.1h7.5v2.1h-7.5v8.1h-2V0.2h10.7v2H582.1z M615.4,0.3h2v18.1h-2V0.3z M654.3,16.4v2
	h-11V0.3h2v16.1H654.3z M681,2.3V8h7.5v2H681v6.3h8.6v2H679V0.3h10.7v2H681z"/>
</svg>
