<svg width="1234" height="121" viewBox="0 0 1234 121" fill="none" xmlns="http://www.w3.org/2000/svg">
<g opacity="0.5">
<mask id="mask0_237_342" style="mask-type:alpha" maskUnits="userSpaceOnUse" x="0" y="0" width="1234" height="121">
<rect width="1234" height="121" fill="url(#paint0_linear_237_342)"/>
</mask>
<g mask="url(#mask0_237_342)">
<g opacity="0.25">
<path d="M76.55 94.79H24.96L17.52 111.35H-1L50.25 0.130005H51.26L102.51 111.35H83.98L76.54 94.79H76.55ZM69.92 80.12L50.79 37.52L31.59 80.12H69.93H69.92Z" fill="white"/>
<path d="M200.04 78.16C200.04 94.86 187.4 111.36 165.76 111.36H124.99V2.37H154.74C173.54 2.37 186.25 15.89 186.25 30.36C186.25 42.12 178.07 49.97 174.01 49.97C186.25 49.97 200.04 61.19 200.04 78.16ZM142.03 19V46.18L155.55 46.11C164 46.18 170.22 40.36 170.22 32.59C170.22 24.82 163.46 19 155.75 19H142.02H142.03ZM183.34 77.01C183.34 68.76 176.31 61.19 163.94 61.19L142.03 61.26V94.66H164.21C174.01 94.66 183.34 87.56 183.34 77.01Z" fill="white"/>
<path d="M218.81 56.93C218.81 26.23 244.43 0.469971 275.06 0.469971C289.19 0.669971 302.24 6.68997 312.92 17.1L302.98 30.55C295.34 22.91 285.4 17.84 274.72 17.84C254.98 17.84 236.11 35.15 236.11 56.99C236.11 78.83 255.24 95.93 274.78 95.93C285.94 95.93 295.54 90.39 303.04 82.95L312.91 96.74C303.51 106 291.54 113.1 275.32 113.1C244.42 113.1 218.8 87.68 218.8 56.91L218.81 56.93Z" fill="white"/>
<path d="M424.11 57C424.11 90.47 402.54 111.36 367.92 111.36H336.89V2.36999H367.92C402.54 2.29999 424.11 23.26 424.11 57ZM406.8 56.93C406.8 33.81 391.79 19.34 367.86 19.34H353.93V94.32H368.06C391.86 94.32 406.8 79.92 406.8 56.93Z" fill="white"/>
<path d="M467.28 19.2V47.12H508.52V64.16H467.28V94.32H515.08V111.36H450.17V2.37H515.08V19.21H467.28V19.2Z" fill="white"/>
<path d="M560.35 19.13V48.27H601.59V65.31H560.35V111.49H543.24V2.09998H608.15V19.14H560.35V19.13Z" fill="white"/>
<path d="M733.34 60.38C733.34 92.77 709.81 113.18 681.48 113.18C649.77 113.18 624.62 87.89 624.62 57C624.62 26.11 649.9 0.539978 680.87 0.539978C694.6 0.609978 710.28 7.22998 720.56 17.24L711.03 31.44C702.51 23.06 691.02 17.78 680.67 17.78C660.79 17.78 642 34.41 642 56.99C642 78.36 658.97 95.93 682.23 95.93C700.96 95.93 715.02 84.5 715.02 67.87V67.53H681.28V51.84H732.87C733.14 54.34 733.34 57.32 733.34 60.36V60.38Z" fill="white"/>
<path d="M825.19 94.32V111.36H759.47V2.37H776.58V94.32H825.19Z" fill="white"/>
<path d="M955.98 0V111.36H938.87V50.91L902.7 109.53H902.56L866.32 50.84V111.35H849.21V0H850.5L902.63 79.24L954.7 0H955.98Z" fill="white"/>
<path d="M1211.63 2.09997V113.25H1210.82L1141.11 40.43V111.49H1124V0.469971H1124.88L1194.45 73.15V2.09997H1211.62H1211.63Z" fill="white"/>
<path d="M983 57C983 25.9 1008.29 0.47998 1039.32 0.47998C1070.35 0.47998 1095.71 25.9 1095.71 57C1095.71 88.1 1070.29 113.12 1039.25 113.12C1008.21 113.12 983 87.83 983 57ZM1078.4 56.86C1078.4 35.29 1060.75 17.71 1039.25 17.71C1017.75 17.71 1000.24 35.29 1000.24 56.86C1000.24 78.43 1017.75 95.8 1039.25 95.8C1060.75 95.8 1078.4 78.29 1078.4 56.86Z" fill="white"/>
</g>
</g>
</g>
<defs>
<linearGradient id="paint0_linear_237_342" x1="617" y1="0" x2="617" y2="121" gradientUnits="userSpaceOnUse">
<stop offset="0.5"/>
<stop offset="0.897059" stop-opacity="0"/>
</linearGradient>
</defs>
</svg>
