<svg xmlns="http://www.w3.org/2000/svg" fill="#A2C7F3" viewBox="0 0 1289 19">
<path d="M2,2.3v6.1h7.5v2.1H2v8.1H0V0.2h10.7v2H2z M35.3,0.3h2v18.1h-2V0.3z M74.6,2.3h-5.3v16.1h-2.1V2.3H62v-2h12.6
	V2.3z M97.6,0.3h2.2l3.9,13.2l4.4-11.8h0.2l4.4,11.8l3.9-13.2h2.2l-5.6,18.3h-0.3l-4.7-12l-4.7,12h-0.3L97.6,0.3z M145.3,2.3V8h7.5
	v2h-7.5v6.3h8.6v2h-10.7V0.3h10.7v2H145.3z M190.2,16.4v2h-10.9V0.3h2.1v16.1L190.2,16.4L190.2,16.4z M257.1,0.3v18.1h-2v-8.1h-9.2
	v8.1h-2.1V0.3h2.1v8.1h9.2V0.3H257.1z M285.1,2.3V8h7.5v2h-7.5v6.3h8.6v2h-10.7V0.3h10.7v2H285.1z M369.8,16.4v2h-11V0.3h2.1v16.1
	L369.8,16.4L369.8,16.4z M402.3,2.3h-5.3v16.1h-2V2.3h-5.3v-2h12.6V2.3z M440.2,0.3v18.1h-2v-8.1H429v8.1H427V0.3h2.1v8.1h9.2V0.3
	H440.2z M471,10.7l-6.4-10.4h2.3l5.1,8.2l5.1-8.2h2.3L473,10.7v7.7h-2V10.7z M539.5,18.4h-6.7V0.3h5c5.5,0,7.1,6.8,2.9,7.9
	C546.5,8.2,547.1,18.4,539.5,18.4z M534.8,2.3v5.5h3c4.3,0.1,4-5.6,0-5.5H534.8z M539.2,9.6h-4.4v6.8h4.5
	C544.5,16.3,544.4,9.5,539.2,9.6z M569.6,11.4V0.3h2.1v11.1c0,6.7,9.3,6.7,9.3,0V0.3h2.1v11.1C583.1,20.8,569.6,20.8,569.6,11.4z
	 M608.9,0.3h2v18.1h-2V0.3z M647.8,16.4v2h-11V0.3h2v16.1L647.8,16.4L647.8,16.4z M677.5,18.4h-5.1V0.3l5.1,0
	C689.9,0.3,689.9,18.4,677.5,18.4z M677.5,2.3l-3,0v14.1h3C687.1,16.4,687.1,2.3,677.5,2.3z M711.8,0.3h2v18.1h-2V0.3z M752.4,13.8
	V0.2h2l-0.1,18.5L741.9,4.9v13.6h-2.1V0L752.4,13.8z M797.5,8.8c0,14.1-18.4,11.8-18,0.6c-0.2-8.1,10.2-12.4,15.9-6.6l-1.1,1.7
	c-4.4-4.7-12.7-1.8-12.7,4.9c-0.7,8.4,13.9,10,13.7,1.3h-6.5V8.8H797.5z M850.4,9.4c-0.2-7.9,10.1-12.6,15.6-6.6l-1.2,1.6
	c-4.1-4.7-12.3-1.5-12.3,5c-0.1,6.5,8.2,9.6,12.3,5L866,16C860.9,21.8,850.1,17.3,850.4,9.4z M892.7,2.3V8h7.5v2h-7.5v6.3h8.6v2
	h-10.7V0.3h10.7v2H892.7z M937.2,18.4l-5.1-7.1h-3.4v7.1h-2V0.3h5.3c6.4-0.3,8.5,9,2.3,10.8l5.4,7.3H937.2z M932.1,9.6
	c5.2,0.1,5-7.4,0-7.3h-3.4v7.3L932.1,9.6L932.1,9.6z M974.8,2.3h-5.3v16.1h-2V2.3h-5.3v-2h12.6V2.3z M999.5,0.3h2v18.1h-2V0.3z
	 M1029.5,2.3v6.1h7.5v2.1h-7.5v8.1h-2.1V0.2h10.7v2H1029.5z M1062.8,0.3h2v18.1h-2V0.3z M1089.8,9.4c-0.2-7.9,10.1-12.6,15.6-6.6
	l-1.2,1.6c-4.1-4.7-12.3-1.5-12.3,5c-0.1,6.5,8.2,9.6,12.3,5l1.2,1.6C1100.3,21.8,1089.5,17.3,1089.8,9.4z M1136.9,0l8.5,18.4h-2.2
	l-1.3-3h-9.9l-1.3,3h-2.2L1136.9,0z M1141.1,13.7l-4.2-9.3l-4.2,9.3H1141.1z M326,0l8.5,18.4h-2.2l-1.3-3H321l-1.3,3h-2.2L326,0z
	 M330.2,13.7L326,4.3l-4.2,9.3H330.2z M1178.8,2.3h-5.3v16.1h-2.1V2.3h-5.3v-2h12.6V2.3z M1203.4,0.3h2v18.1h-2V0.3z M1239.8,0
	c12.4,0,12.4,18.6,0,18.6C1227.3,18.7,1227.4,0,1239.8,0z M1239.8,2.1c-9.7,0-9.7,14.5,0,14.5S1249.5,2.1,1239.8,2.1z M1286.7,13.8
	V0.2h2.1v18.5l-12.5-13.8v13.6h-2V0L1286.7,13.8z"/>
</svg>
