<svg width="997" height="19" viewBox="0 0 997 19" fill="none" xmlns="http://www.w3.org/2000/svg">
<g opacity="0.3">
<path d="M0 15.19L1.58 14.03C2.4 15.58 4.26 16.62 6.19 16.62C8.57 16.62 10.5 15.34 10.5 13.55C10.5 11.51 7.9 10.53 5.58 9.65001C3.35 8.78001 0.86 7.69001 0.86 4.89001C0.86 2.09001 3.37 0.0100098 6.55 0.0100098C9.25 0.0100098 11.08 1.49001 11.76 3.28001L10.22 4.32001C9.63 2.96001 8.17 2.03001 6.54 2.03001C4.59 2.03001 2.93 3.31001 2.93 4.94001C2.93 6.70001 4.92 7.34001 7.27 8.24001C10 9.34001 12.57 10.6 12.57 13.52C12.57 16.65 9.68 18.69 6.19 18.69C3.21 18.69 0.89 17.14 0.02 15.2L0 15.19Z" fill="white"/>
<path d="M36.43 9.37002C36.43 4.22002 40.63 0.0200195 45.75 0.0200195C50.87 0.0200195 55.09 4.22002 55.09 9.37002C55.09 14.52 50.89 18.67 45.74 18.67C40.59 18.67 36.43 14.48 36.43 9.37002ZM53.02 9.36002C53.02 5.36002 49.75 2.09002 45.75 2.09002C41.75 2.09002 38.51 5.37002 38.51 9.36002C38.51 13.35 41.76 16.6 45.75 16.6C49.74 16.6 53.02 13.35 53.02 9.36002Z" fill="white"/>
<path d="M79.92 11.38V0.280029H81.98V11.37C81.98 14.42 83.96 16.64 86.64 16.64C89.32 16.64 91.3 14.41 91.3 11.37V0.280029H93.36V11.38C93.36 15.61 90.5 18.71 86.64 18.71C82.78 18.71 79.92 15.61 79.92 11.38Z" fill="white"/>
<path d="M130.4 2.31003H125.14V18.44H123.09V2.31003H117.81V0.280029H130.4V2.31003Z" fill="white"/>
<path d="M168.33 0.280029V18.43H166.29V10.36H157.09V18.43H155.04V0.280029H157.09V8.33003H166.29V0.280029H168.33Z" fill="white"/>
<path d="M196.36 2.30003V8.04003H203.83V10.09H196.36V16.4H204.97V18.44H194.31V0.280029H204.97V2.30003H196.36Z" fill="white"/>
<path d="M240.89 18.43L235.82 11.35H232.43V18.43H230.38V0.280029H235.73C239.1 0.280029 241.85 2.87003 241.85 6.07003C241.85 8.42003 240.24 10.45 238.03 11.11L243.42 18.43H240.89ZM235.8 9.63003C237.96 9.63003 239.74 7.99003 239.74 6.03003C239.74 3.94003 237.94 2.31003 235.8 2.31003H232.42V9.62003H235.8V9.63003Z" fill="white"/>
<path d="M282.28 0.24V18.72H282.18L269.74 4.9V18.46H267.69V0H267.8L280.23 13.81V0.24H282.28Z" fill="white"/>
<path d="M348.41 2.31003H343.15V18.44H341.1V2.31003H335.82V0.280029H348.41V2.31003Z" fill="white"/>
<path d="M382.63 15.45H372.72L371.39 18.43H369.17L377.56 0H377.78L386.18 18.43H383.95L382.62 15.45H382.63ZM381.84 13.67L377.68 4.33L373.51 13.67H381.83H381.84Z" fill="white"/>
<path d="M410.53 0.280029H412.58V18.43H410.53V0.280029Z" fill="white"/>
<path d="M436.94 0.280029H439.14L443.08 13.53L447.52 1.75003H447.68L452.09 13.53L456.03 0.280029H458.24L452.61 18.54H452.29L447.57 6.50003L442.87 18.54H442.57L436.94 0.280029Z" fill="white"/>
<path d="M491.6 15.45H481.69L480.36 18.43H478.14L486.53 0H486.75L495.15 18.43H492.92L491.59 15.45H491.6ZM490.81 13.67L486.65 4.33L482.48 13.67H490.8H490.81Z" fill="white"/>
<path d="M534.1 0.24V18.72H534L521.56 4.9V18.46H519.51V0H519.62L532.05 13.81V0.24H534.1Z" fill="white"/>
<path d="M587.83 15.19L589.41 14.03C590.23 15.58 592.09 16.62 594.02 16.62C596.4 16.62 598.33 15.34 598.33 13.55C598.33 11.51 595.73 10.53 593.41 9.65001C591.18 8.78001 588.69 7.69001 588.69 4.89001C588.69 2.09001 591.2 0.0100098 594.38 0.0100098C597.07 0.0100098 598.91 1.48001 599.58 3.28001L598.04 4.32001C597.45 2.96001 595.99 2.03001 594.36 2.03001C592.41 2.03001 590.75 3.31001 590.75 4.94001C590.75 6.70001 592.74 7.34001 595.08 8.24001C597.81 9.34001 600.38 10.6 600.38 13.52C600.38 16.65 597.49 18.69 594 18.69C591.02 18.69 588.7 17.14 587.83 15.2V15.19Z" fill="white"/>
<path d="M624.26 9.37002C624.26 4.27002 628.49 0.0200195 633.58 0.0200195C635.91 0.0400195 638.17 1.11002 639.82 2.77002L638.63 4.38002C637.32 3.04002 635.5 2.11002 633.51 2.11002C629.86 2.11002 626.34 5.26002 626.34 9.37002C626.34 13.48 629.83 16.61 633.55 16.61C635.6 16.61 637.35 15.64 638.65 14.36L639.83 16C638.32 17.5 636.28 18.67 633.6 18.67C628.56 18.67 624.26 14.51 624.26 9.37002Z" fill="white"/>
<path d="M664.46 0.280029H666.51V18.43H664.46V0.280029Z" fill="white"/>
<path d="M694.54 2.30003V8.04003H702.01V10.09H694.54V16.4H703.15V18.44H692.49V0.280029H703.15V2.30003H694.54Z" fill="white"/>
<path d="M743.15 0.24V18.72H743.05L730.61 4.9V18.46H728.56V0H728.67L741.1 13.81V0.24H743.15Z" fill="white"/>
<path d="M768.17 9.37002C768.17 4.27002 772.4 0.0200195 777.49 0.0200195C779.82 0.0400195 782.08 1.11002 783.73 2.77002L782.54 4.38002C781.23 3.04002 779.41 2.11002 777.42 2.11002C773.77 2.11002 770.25 5.26002 770.25 9.37002C770.25 13.48 773.74 16.61 777.46 16.61C779.51 16.61 781.25 15.64 782.56 14.36L783.74 16C782.23 17.5 780.19 18.67 777.51 18.67C772.47 18.67 768.17 14.51 768.17 9.37002Z" fill="white"/>
<path d="M810.42 2.30003V8.04003H817.89V10.09H810.42V16.4H819.03V18.44H808.37V0.280029H819.03V2.30003H810.42Z" fill="white"/>
<path d="M873.34 0.280029H879.09C882.6 0.280029 885.47 2.91003 885.47 6.14003C885.47 9.37003 882.6 11.74 879.09 11.74H875.38V18.44H873.33V0.280029H873.34ZM883.43 6.12003C883.43 4.03003 881.48 2.31003 879.1 2.31003H875.39V9.71003H879.1C881.49 9.73003 883.43 8.11003 883.43 6.12003Z" fill="white"/>
<path d="M918.58 15.45H908.67L907.34 18.43H905.12L913.51 0H913.73L922.13 18.43H919.9L918.57 15.45H918.58ZM917.79 13.67L913.63 4.33L909.46 13.67H917.78H917.79Z" fill="white"/>
<path d="M957 18.43L951.93 11.35H948.54V18.43H946.49V0.280029H951.84C955.21 0.280029 957.96 2.87003 957.96 6.07003C957.96 8.42003 956.35 10.45 954.14 11.11L959.53 18.43H957ZM951.91 9.63003C954.07 9.63003 955.85 7.99003 955.85 6.03003C955.85 3.94003 954.05 2.31003 951.91 2.31003H948.53V9.62003H951.91V9.63003Z" fill="white"/>
<path d="M983.79 0.280029H985.84V18.43H983.79V0.280029ZM986.11 9.30003L993.2 0.280029H995.61L988.55 9.21003L996.25 18.43H993.73L986.11 9.30003Z" fill="white"/>
</g>
</svg>
