<svg width="376" height="114" viewBox="0 0 376 114" fill="none" xmlns="http://www.w3.org/2000/svg">
<path d="M0.312 41L11.451 6.22H19.629L30.768 41H23.483L18.501 22.905C17.467 19.286 16.48 15.244 15.493 11.531H15.305C14.365 15.291 13.378 19.286 12.344 22.905L7.362 41H0.312ZM7.221 32.07V26.712H23.765V32.07H7.221ZM34.8864 41V6.22H41.8424V41H34.8864ZM52.186 4.058L57.356 2.037C59.424 5.186 61.68 9.416 62.479 12.283L56.933 14.539C56.228 11.766 54.16 7.348 52.186 4.058ZM81.373 1.802L87.4361 3.729C85.603 7.536 83.394 11.531 81.655 14.21L76.532 12.377C78.224 9.604 80.245 5.186 81.373 1.802ZM51.199 15.808H88.5171V21.401H51.199V15.808ZM48.332 26.994H90.961V32.681H48.332V26.994ZM66.474 1.05H72.443V45.183H66.474V1.05ZM95.285 31.882H137.914V36.159H95.285V31.882ZM107.834 4.951H137.632V8.758H107.834V4.951ZM122.545 30.143H127.997V39.825C127.997 42.363 127.527 43.632 125.6 44.384C123.72 45.136 121.229 45.183 117.704 45.183C117.469 43.726 116.67 41.705 115.965 40.342C118.268 40.436 120.9 40.389 121.652 40.389C122.31 40.389 122.545 40.248 122.545 39.684V30.143ZM103.463 38.18L107.317 35.078C109.526 36.582 112.299 38.885 113.662 40.483L109.526 43.914C108.351 42.316 105.672 39.825 103.463 38.18ZM113.051 1.896L117.516 0.767997C118.456 2.084 119.49 3.964 119.913 5.233L115.166 6.549C114.837 5.28 113.897 3.353 113.051 1.896ZM115.636 16.56V18.017H129.172V16.56H115.636ZM115.636 20.414V21.965H129.172V20.414H115.636ZM115.636 12.753V14.163H129.172V12.753H115.636ZM110.983 10.262H134.06V24.409H110.983V10.262ZM120.148 6.502L125.741 6.878C124.989 8.664 124.237 10.168 123.626 11.343L119.161 10.779C119.537 9.416 120.007 7.677 120.148 6.502ZM127.48 0.955997L132.791 1.802C131.663 3.682 130.535 5.28 129.642 6.455L125.177 5.562C125.976 4.199 126.963 2.272 127.48 0.955997ZM98.669 2.225L103.369 1.285C104.309 2.695 105.249 4.669 105.766 5.938L100.972 7.16C100.502 5.844 99.515 3.729 98.669 2.225ZM96.46 7.254H106.095V11.625H96.46V7.254ZM106.424 20.508C108.68 25.349 113.333 25.819 121.041 25.819C126.211 25.819 133.872 25.584 139.136 25.02C138.431 26.101 137.773 28.357 137.538 29.767C132.744 30.002 126.54 30.19 121.041 30.19C111.359 30.19 106.377 29.109 103.416 21.918L106.424 20.508ZM104.873 15.009H106.753L107.552 14.868L109.385 16.278C107.317 23.187 103.04 28.216 98.152 30.942C97.635 29.861 96.225 27.84 95.332 27.088C99.703 24.926 103.369 20.837 104.873 15.761V15.009ZM97.635 20.132V16.09L99.656 15.009H106.471L106.424 19.38H100.502C99.421 19.38 98.011 19.709 97.635 20.132ZM97.635 20.085C97.353 19.004 96.46 16.842 95.99 15.949C96.648 15.761 97.447 15.479 98.293 14.68C99.515 13.599 103.181 9.463 104.544 7.583V7.395L105.907 6.878L108.962 8.429C106.988 10.873 103.463 14.962 101.019 17.312C101.019 17.312 97.635 18.957 97.635 20.085ZM161.273 21.307H185.29V25.302H161.273V21.307ZM160.756 40.436H185.713V44.525H160.756V40.436ZM167.524 1.144H171.895V7.301H167.524V1.144ZM173.916 1.144H178.334V7.301H173.916V1.144ZM166.114 13.74V15.949H180.073V13.74H166.114ZM166.114 8.194V10.356H180.073V8.194H166.114ZM161.978 4.481H184.397V19.615H161.978V4.481ZM167.947 30.284V32.728H178.193V30.284H167.947ZM163.059 26.853H183.41V36.112H163.059V26.853ZM176.642 35.689L181.671 37.052C180.308 39.167 179.039 41.329 178.052 42.692L174.433 41.423C175.232 39.778 176.172 37.381 176.642 35.689ZM165.08 37.005L169.31 35.689C170.062 37.381 170.908 39.59 171.331 41L166.913 42.504C166.584 41.047 165.785 38.697 165.08 37.005ZM168.511 6.549H171.942V18.158H168.511V6.549ZM174.198 6.549H177.629V18.158H174.198V6.549ZM146.374 21.73H156.808V25.396H146.374V21.73ZM154.317 21.73H158.97V40.389C158.97 42.41 158.641 43.585 157.325 44.29C156.056 44.948 154.317 45.042 151.873 45.042C151.685 43.82 151.074 42.034 150.51 40.859C151.873 40.906 153.283 40.906 153.706 40.906C154.176 40.906 154.317 40.765 154.317 40.295V21.73ZM143.789 2.554H159.111V17.735H154.505V6.549H148.113V17.735H143.789V2.554ZM141.956 15.996H161.085V23.375H156.855V19.803H145.998V23.375H141.956V15.996ZM149.899 8.476H157.56V11.625H152.766V17.265H149.899V8.476ZM144.259 21.73H148.818V30.66C148.818 35.172 148.395 41.376 145.716 45.371C144.87 44.572 142.849 43.162 141.768 42.645C144.071 39.167 144.259 34.326 144.259 30.613V21.73ZM148.066 35.266C150.228 34.42 153.236 32.963 156.385 31.459L157.231 34.185C154.599 35.877 152.108 37.475 149.758 38.979L148.066 35.266ZM148.113 28.78L150.416 26.43C152.014 27.464 153.894 28.78 154.881 29.72L152.437 32.446C151.544 31.459 149.617 29.814 148.113 28.78ZM190.977 23.798H209.119V44.901H203.573V28.592H196.241V45.136H190.977V23.798ZM212.033 23.798H230.645V44.901H224.958V28.592H217.391V45.136H212.033V23.798ZM202.586 14.351V17.03H218.425V14.351H202.586ZM202.586 7.395V10.027H218.425V7.395H202.586ZM197.134 2.742H224.112V21.636H197.134V2.742ZM193.609 31.506H205.829V35.736H193.609V31.506ZM193.562 38.932H206.017V43.679H193.562V38.932ZM214.853 31.506H227.59V35.736H214.853V31.506ZM214.806 38.932H227.59V43.679H214.806V38.932ZM252.876 12.565V14.163H261.806V12.565H252.876ZM248.317 9.98H266.6V16.748H248.317V9.98ZM251.09 24.503V25.96H263.545V24.503H251.09ZM251.09 28.498V30.002H263.545V28.498H251.09ZM251.09 20.602V22.012H263.545V20.602H251.09ZM246.39 18.017H268.48V32.587H246.39V18.017ZM251.936 32.07L256.025 33.386C253.863 35.172 250.291 36.911 247.33 37.898C246.625 37.099 245.027 35.595 244.087 34.89C247.048 34.185 250.15 33.198 251.936 32.07ZM258.892 33.903L262.182 31.929C265.096 33.104 268.621 34.796 270.642 36.018L265.989 37.898C264.438 36.723 261.524 35.078 258.892 33.903ZM237.46 3.118H277.739V45.371H272.146V8.194H242.771V45.371H237.46V3.118ZM240.797 38.368H275.201V43.397H240.797V38.368ZM283.144 39.261H326.055V44.337H283.144V39.261ZM289.207 5.891H325.256V10.732H289.207V5.891ZM287.985 13.881H299.688V18.252H287.985V13.881ZM288.784 28.733H320.838V42.222H315.339V33.104H311.626V42.222H306.456V33.104H302.837V42.222H297.667V33.104H294.048V42.222H288.784V28.733ZM286.622 5.891H292.262V11.108C292.262 16.56 291.369 24.503 287.233 29.626C286.293 28.639 283.755 26.853 282.439 26.242C286.199 21.683 286.622 15.432 286.622 11.014V5.891ZM298.043 13.881H303.26C303.26 13.881 303.213 15.009 303.166 15.573C302.931 21.354 302.602 23.986 301.662 25.114C300.863 26.054 299.876 26.383 298.701 26.477C297.62 26.665 295.787 26.665 293.766 26.618C293.672 25.302 293.202 23.516 292.591 22.435C294.048 22.576 295.317 22.576 295.975 22.576C296.492 22.576 296.868 22.529 297.197 22.153C297.667 21.589 297.855 19.709 298.043 14.539V13.881ZM303.777 1.144H309.37C309.934 12.659 315.292 22.999 320.039 22.999C321.167 22.952 321.637 21.636 321.919 18.064C323.047 19.098 324.927 20.085 326.337 20.508C325.491 26.9 323.752 28.357 319.71 28.31C311.062 28.31 304.576 15.667 303.777 1.144ZM317.36 11.296L322.436 12.847C318.723 19.709 312.237 25.02 305.375 28.216C304.623 27.135 302.884 24.973 301.803 23.986C308.477 21.448 314.399 16.983 317.36 11.296ZM311.767 3.024L315.574 0.767997C317.454 1.896 319.569 3.635 320.744 4.857L316.749 7.442C315.668 6.126 313.459 4.152 311.767 3.024ZM330.144 12.424H373.008V17.876H330.144V12.424ZM336.536 2.46H342.411V37.193H371.833V42.692H336.536V2.46ZM348.756 1.473H354.396V26.759H360.882V1.943H366.804V31.929H348.756V1.473ZM3.132 72.998H44.868V78.262H3.132V72.998ZM13.425 93.208H34.481V97.579H13.425V93.208ZM12.438 100.681H35.515V105.193H12.438V100.681ZM21.133 95.323H26.491V111.867H21.133V95.323ZM4.871 81.787H38.899V86.957H10.558V113.136H4.871V81.787ZM37.301 81.787H43.129V107.496C43.129 110.222 42.471 111.491 40.544 112.29C38.664 113.089 35.891 113.136 32.084 113.136C31.802 111.679 30.956 109.611 30.204 108.342C32.507 108.483 35.468 108.483 36.22 108.436C37.066 108.389 37.301 108.154 37.301 107.449V81.787ZM15.211 88.226L19.723 86.91C20.804 88.414 21.885 90.576 22.402 91.986L17.702 93.584C17.279 92.08 16.198 89.871 15.211 88.226ZM28.465 87.004L33.259 88.32C31.99 90.576 30.721 92.785 29.64 94.289L25.645 93.114C26.632 91.375 27.854 88.79 28.465 87.004ZM20.945 69.379H27.149V85.406H20.945V69.379ZM56.148 73.468H61.647V113.183H56.148V73.468ZM49.004 82.304H67.851V87.568H49.004V82.304ZM56.477 84.419L59.767 85.876C57.981 92.597 54.644 100.963 51.025 105.616C50.508 103.971 49.286 101.621 48.393 100.211C51.683 96.451 54.973 89.636 56.477 84.419ZM64.561 69.52L67.71 74.126C62.822 75.912 56.383 77.087 50.884 77.745C50.649 76.476 49.944 74.596 49.38 73.374C54.738 72.575 60.66 71.118 64.561 69.52ZM61.506 87.803C62.681 88.931 66.817 93.631 67.757 94.806L64.467 99.224C63.386 96.827 60.472 92.08 59.062 90.059L61.506 87.803ZM82.186 69.05H87.732V113.183H82.186V69.05ZM67.052 99.365L92.432 94.994L93.278 100.305L67.898 104.77L67.052 99.365ZM70.107 75.113L73.773 71.917C76.358 73.844 79.601 76.664 81.058 78.685L77.11 82.21C75.794 80.189 72.692 77.181 70.107 75.113ZM68.368 87.474L71.94 84.231C74.666 86.158 78.144 89.025 79.742 91.093L75.888 94.712C74.384 92.644 71.094 89.542 68.368 87.474ZM112.595 80.565H120.961V84.043H112.595V80.565ZM112.078 73.28H139.479V77.745H112.078V73.28ZM117.765 95.464H134.121V99.788H117.765V95.464ZM117.483 102.373H134.215V106.744H117.483V102.373ZM124.204 83.103H127.964V92.926H124.204V83.103ZM132.006 92.973H136.894V113.089H132.006V92.973ZM119.269 80.565H122.653C122.653 80.565 122.653 81.458 122.653 81.928C122.559 87.521 122.418 90.012 121.76 90.952C121.243 91.657 120.679 91.939 119.786 92.08C119.222 92.174 118.235 92.221 117.248 92.221C117.154 91.14 116.872 89.683 116.449 88.743C117.248 88.884 117.765 88.884 118.094 88.884C118.423 88.884 118.658 88.837 118.846 88.508C119.128 88.038 119.222 86.252 119.269 81.082V80.565ZM136.753 78.779L139.667 81.411C137.223 82.821 133.98 83.996 131.16 84.654C131.019 83.902 130.502 82.633 130.079 81.834C132.523 81.082 135.249 79.907 136.753 78.779ZM128.622 77.416L132.147 78.685C130.267 80.659 128.105 82.821 126.413 84.137L124.157 83.103C125.708 81.458 127.541 79.061 128.622 77.416ZM136.753 81.035C137.27 84.513 138.304 88.085 140.184 89.777C139.526 90.341 138.492 91.563 138.022 92.409C135.907 90.2 134.826 85.876 134.262 81.646L136.753 81.035ZM115.274 92.973H120.115V99.083C120.115 103.313 119.363 109.564 114.569 113.183C113.723 112.384 111.843 110.927 110.715 110.269C114.71 107.214 115.274 102.185 115.274 98.989V92.973ZM114.804 81.787L118.141 82.022C117.765 86.91 116.543 90.623 113.488 92.973C113.065 92.221 112.078 90.764 111.373 90.106C113.77 88.367 114.616 85.547 114.804 81.787ZM121.431 78.638L124.11 77.463C124.862 78.591 125.567 80.142 125.849 81.176L123.029 82.586C122.747 81.505 122.089 79.86 121.431 78.638ZM122.277 69.802L126.695 68.439C127.588 70.084 128.575 72.34 128.951 73.75L124.345 75.301C124.016 73.797 123.076 71.494 122.277 69.802ZM130.079 81.881H133.087V89.777L130.361 92.879C130.126 92.033 129.468 90.388 128.951 89.589C129.515 89.213 130.079 88.367 130.079 86.534V81.881ZM130.408 92.973L130.173 90.153L131.301 89.025L135.202 87.85C135.296 88.696 135.531 89.918 135.766 90.623C131.912 92.033 130.925 92.503 130.408 92.973ZM101.832 75.442V81.458H106.861V75.442H101.832ZM97.602 70.883H111.279V86.017H97.602V70.883ZM103.195 84.419H107.566V105.945H103.195V84.419ZM97.461 89.777H101.503V107.261H97.461V89.777ZM96.004 106.321C99.952 105.569 105.733 104.3 111.373 102.984L111.796 107.402C106.626 108.718 101.174 110.034 96.897 111.068L96.004 106.321ZM105.028 92.08H111.796V96.78H105.028V92.08ZM154.425 81.129H175.34V85.218H154.425V81.129ZM154.425 88.038H175.34V92.08H154.425V88.038ZM172.802 73.562H178.63V106.368C178.63 109.611 178.019 111.256 175.951 112.243C173.883 113.183 170.828 113.277 166.269 113.277C166.034 111.585 165.141 108.906 164.295 107.308C167.209 107.496 170.546 107.449 171.533 107.449C172.473 107.449 172.802 107.167 172.802 106.274V73.562ZM143.803 95.793C151.511 95.511 164.013 94.853 175.528 94.195L175.434 98.942C164.483 99.882 152.78 100.822 144.602 101.386L143.803 95.793ZM181.027 83.244L186.526 85.876C177.737 99.412 163.261 108.06 146.952 112.901C146.153 111.538 144.273 108.953 143.145 107.731C159.548 103.595 173.366 95.558 181.027 83.244ZM162.039 68.956L168.995 69.708C167.585 72.575 165.752 75.489 164.436 77.369L159.407 76.382C160.441 74.173 161.522 71.165 162.039 68.956ZM150.806 73.562H174.682V78.403H156.446V98.378H150.806V73.562ZM190.521 80.424H233.385V85.876H190.521V80.424ZM196.913 70.46H202.788V105.193H232.21V110.692H196.913V70.46ZM209.133 69.473H214.773V94.759H221.259V69.943H227.181V99.929H209.133V69.473ZM247.908 82.821V86.252H270.092V82.821H247.908ZM247.908 75.254V78.591H270.092V75.254H247.908ZM242.268 70.695H275.967V90.764H242.268V70.695ZM265.439 87.803C268.541 92.033 274.651 95.511 281.231 97.156C279.962 98.284 278.27 100.493 277.471 101.95C270.562 99.694 264.452 95.182 260.692 89.542L265.439 87.803ZM252.608 87.756L257.59 89.683C253.783 95.135 247.438 99.741 240.764 102.138C239.918 100.728 238.226 98.613 237.004 97.485C243.349 95.699 249.506 91.986 252.608 87.756ZM249.271 96.357H255.099V99.6C255.099 104.112 253.736 110.128 244.336 113.559C243.584 112.149 241.704 110.034 240.482 108.953C248.331 106.415 249.271 102.42 249.271 99.412V96.357ZM256.133 72.998H261.82V88.508H256.133V72.998ZM263.606 96.451H269.481V113.089H263.606V96.451ZM324.001 82.821L327.526 86.534C324.048 88.931 319.63 91.422 316.34 92.926L313.52 89.636C316.763 88.038 321.275 85.077 324.001 82.821ZM303.133 71.776L307.269 69.191C309.478 70.836 311.781 73.186 312.909 74.925L308.538 77.886C307.551 76.147 305.248 73.562 303.133 71.776ZM300.125 76.523H327.573V81.364H300.125V76.523ZM311.499 88.273L315.024 90.623C312.345 93.255 307.269 96.545 303.556 98.425C302.851 97.203 301.582 95.417 300.548 94.43C304.214 93.208 309.102 90.576 311.499 88.273ZM313.802 94.665L317.468 97.156C313.99 100.963 307.316 105.052 301.958 107.12C301.206 105.851 299.89 104.159 298.668 103.125C304.12 101.621 310.653 98.049 313.802 94.665ZM319.113 69.144L324.518 70.742C322.779 73.515 320.805 76.335 319.254 78.168L314.695 76.664C316.246 74.643 318.126 71.494 319.113 69.144ZM285.837 71.118H296.929V76.147H290.772V113.277H285.837V71.118ZM295.19 71.118H296.13L296.929 70.93L300.595 72.998C299.373 77.04 297.822 82.163 296.459 85.829C299.373 89.495 299.937 92.644 299.937 95.37C299.937 98.425 299.326 100.399 297.822 101.433C297.07 101.95 296.177 102.279 295.143 102.42C294.297 102.514 293.169 102.561 292.088 102.561C292.041 101.198 291.618 99.083 290.866 97.72C291.712 97.767 292.323 97.814 292.887 97.767C293.404 97.767 293.874 97.673 294.203 97.391C294.767 96.968 295.002 96.028 295.002 94.712C295.002 92.503 294.391 89.589 291.712 86.44C293.028 82.21 294.532 75.724 295.19 72.716V71.118ZM311.781 78.168L316.34 79.907C312.815 84.231 307.034 88.179 301.864 90.576C301.206 89.542 299.655 87.521 298.621 86.581C303.65 84.748 308.867 81.646 311.781 78.168ZM321.839 89.589C323.343 94.477 326.257 99.882 329.077 102.984C327.949 103.783 326.304 105.475 325.458 106.603C322.45 102.937 319.395 96.639 317.609 90.999L321.839 89.589ZM307.598 83.996L311.687 81.834C320.617 90.294 320.429 106.368 316.434 110.222C314.93 112.055 313.285 112.666 310.841 112.713C309.854 112.713 308.397 112.666 307.034 112.572C306.987 111.162 306.564 109.047 305.671 107.59C307.269 107.778 308.82 107.825 309.901 107.825C310.982 107.825 311.734 107.59 312.392 106.509C314.648 103.971 315.071 91.187 307.598 83.996ZM331.662 91.563H374.291V96.545H331.662V91.563ZM342.66 77.886H368.04V82.257H342.66V77.886ZM342.66 84.701H368.04V89.072H342.66V84.701ZM354.974 92.691C358.029 100.869 364.609 106.133 375.325 108.06C374.103 109.282 372.505 111.632 371.753 113.136C360.191 110.504 353.658 104.159 349.804 93.96L354.974 92.691ZM368.322 95.934L372.834 99.083C369.403 101.574 365.126 104.065 361.836 105.616L358.076 102.702C361.319 101.057 365.69 98.19 368.322 95.934ZM339.558 70.695H369.356V75.348H345.339V93.396H339.558V70.695ZM338.524 113.324L338.195 108.953L340.545 107.214L354.457 104.488C354.175 105.992 353.987 108.342 353.987 109.517C341.72 112.196 339.746 112.666 338.524 113.324ZM338.571 94.853H344.117V108.859L338.524 113.418C338.195 112.055 337.114 109.141 336.174 107.778C337.255 107.214 338.571 106.133 338.571 104.206V94.853Z" fill="white"/>
</svg>
