<svg width="536" height="166" viewBox="0 0 536 166" fill="none" xmlns="http://www.w3.org/2000/svg">
<g opacity="0.5">
<mask id="mask0_237_85" style="mask-type:alpha" maskUnits="userSpaceOnUse" x="0" y="0" width="536" height="166">
<rect x="0.310608" y="0.44165" width="535.379" height="165.117" fill="url(#paint0_linear_237_85)"/>
</mask>
<g mask="url(#mask0_237_85)">
<g opacity="0.25">
<path d="M94.865 37.1426H58.3267V152.249H36.849V37.1426H0.310608V15.915H94.865V37.1426Z" fill="white"/>
<path d="M116.981 128.307L133.893 116.211C139.984 126.869 151.317 132.96 164.427 132.96C179.738 132.96 191.321 125.605 191.321 115.198C191.321 102.601 173.396 94.9836 157.497 88.1287C141.511 81.0237 123.748 72.7428 123.748 51.3402C123.748 29.9375 143.112 13.4634 167.642 13.4634C187.093 13.4634 201.641 22.845 207.22 37.8181L191.321 48.8134C187.093 39.5944 177.699 34.4407 167.804 34.4407C155.283 34.4407 145.313 42.2212 145.313 51.8656C145.313 62.5231 157.91 66.3258 174.496 73.4308C196.062 82.9 212.811 93.3074 212.811 114.785C212.811 138.977 191.834 154.538 164.177 154.538C141.761 154.538 124.761 144.056 116.981 128.32V128.307Z" fill="white"/>
<path d="M377.69 12.9504V152.249H356.287V76.633L311.043 149.96H310.88L265.548 76.5454V152.236H244.146V12.9504H245.747L310.955 112.071L376.076 12.9504H377.69Z" fill="white"/>
<path d="M410.376 84.1633C410.376 45.7611 442.423 13.5383 480.738 13.5383C498.413 13.7885 514.737 21.3188 528.097 34.3405L515.663 51.1775C506.106 41.6207 493.672 35.2787 480.313 35.2787C455.62 35.2787 432.016 56.9315 432.016 84.2509C432.016 111.57 455.945 132.96 480.388 132.96C494.348 132.96 506.356 126.018 515.738 116.724L528.084 133.974C516.326 145.557 501.353 154.438 481.063 154.438C442.411 154.438 410.363 122.641 410.363 84.1508L410.376 84.1633Z" fill="white"/>
</g>
</g>
</g>
<defs>
<linearGradient id="paint0_linear_237_85" x1="268" y1="0.44165" x2="268" y2="165.558" gradientUnits="userSpaceOnUse">
<stop offset="0.5"/>
<stop offset="0.897059" stop-opacity="0"/>
</linearGradient>
</defs>
</svg>
