<svg width="76" height="76" fill="none" xmlns="http://www.w3.org/2000/svg"><path d="M75.72 0.689941H0.449951V75.9599H75.72V0.689941Z" fill="#8E43B6"/><path d="M37.73 29.1201C26.3 29.1201 19.26 38.3201 19.26 38.3201C19.26 38.3201 26.3 47.5201 37.73 47.5201C49.16 47.5201 56.9 38.3201 56.9 38.3201C56.9 38.3201 49.16 29.1201 37.73 29.1201Z" fill="white"/><path d="M44.15 38.32C44.15 41.67 41.43 44.38 38.09 44.38C34.75 44.38 32.03 41.66 32.03 38.32C32.03 34.98 34.75 32.26 38.09 32.26C41.43 32.26 44.15 34.98 44.15 38.32Z" fill="#8E43B6"/></svg>