<svg width="628" height="19" fill="none" xmlns="http://www.w3.org/2000/svg"><g opacity="0.3"><path d="M12.78 2.36003H7.52V18.49H5.47V2.36003H0.190002V0.340027H12.78V2.37003V2.36003Z" fill="white"/><path d="M50.71 0.340027V18.49H48.67V10.42H39.47V18.49H37.42V0.340027H39.47V8.39003H48.67V0.340027H50.71Z" fill="white"/><path d="M78.73 2.35003V8.09003H86.2V10.14H78.73V16.45H87.34V18.49H76.68V0.340027H87.34V2.36003H78.73V2.35003Z" fill="white"/><path d="M141.66 0.340027H147.41C150.92 0.340027 153.79 2.97003 153.79 6.20003C153.79 9.43003 150.92 11.8 147.41 11.8H143.7V18.5H141.65V0.340027H141.66ZM151.75 6.17003C151.75 4.08003 149.8 2.36003 147.42 2.36003H143.71V9.76003H147.42C149.81 9.78003 151.75 8.16003 151.75 6.17003Z" fill="white"/><path d="M188.95 18.49L183.88 11.41H180.49V18.49H178.44V0.340027H183.79C187.16 0.340027 189.91 2.93003 189.91 6.13003C189.91 8.48003 188.3 10.51 186.09 11.18L191.48 18.5H188.95V18.49ZM183.86 9.68003C186.02 9.68003 187.8 8.04003 187.8 6.08003C187.8 3.99003 186 2.36003 183.86 2.36003H180.48V9.67003H183.86V9.68003Z" fill="white"/><path d="M215.74 0.340027H217.79V18.49H215.74V0.340027Z" fill="white"/><path d="M261.55 0V18.49H259.5V6.17L252.68 18.19H252.66L245.83 6.15V18.49H243.78V0H244.02L252.68 14.44L261.34 0H261.56H261.55Z" fill="white"/><path d="M289.58 2.35003V8.09003H297.05V10.14H289.58V16.45H298.19V18.49H287.53V0.340027H298.19V2.36003H289.58V2.35003Z" fill="white"/><path d="M363.44 16.45V18.49H352.49V0.340027H354.54V16.45H363.44Z" fill="white"/><path d="M386.17 9.42001C386.17 4.27001 390.37 0.0700073 395.49 0.0700073C400.61 0.0700073 404.82 4.27001 404.82 9.42001C404.82 14.57 400.62 18.72 395.47 18.72C390.32 18.72 386.16 14.53 386.16 9.42001H386.17ZM402.76 9.41001C402.76 5.41001 399.49 2.14001 395.48 2.14001C391.47 2.14001 388.24 5.42001 388.24 9.41001C388.24 13.4 391.49 16.65 395.48 16.65C399.47 16.65 402.76 13.4 402.76 9.41001Z" fill="white"/><path d="M428.89 9.42001C428.89 4.32001 433.12 0.0700073 438.21 0.0700073C440.54 0.0900073 442.8 1.16001 444.45 2.82001L443.26 4.43001C441.95 3.09001 440.13 2.16001 438.14 2.16001C434.49 2.16001 430.97 5.31001 430.97 9.42001C430.97 13.53 434.46 16.66 438.18 16.66C440.23 16.66 441.98 15.69 443.28 14.41L444.46 16.05C442.95 17.55 440.91 18.72 438.23 18.72C433.19 18.72 428.89 14.56 428.89 9.42001Z" fill="white"/><path d="M480.93 15.51H471.02L469.69 18.49H467.47L475.86 0.0599976H476.08L484.48 18.49H482.25L480.92 15.51H480.93ZM480.14 13.73L475.98 4.4L471.81 13.73H480.13H480.14Z" fill="white"/><path d="M517.83 2.36003H512.57V18.49H510.52V2.36003H505.24V0.340027H517.83V2.37003V2.36003Z" fill="white"/><path d="M542.47 0.340027H544.52V18.49H542.47V0.340027Z" fill="white"/><path d="M569.54 9.42001C569.54 4.27001 573.74 0.0700073 578.86 0.0700073C583.98 0.0700073 588.19 4.27001 588.19 9.42001C588.19 14.57 583.99 18.72 578.84 18.72C573.69 18.72 569.53 14.53 569.53 9.42001H569.54ZM586.12 9.41001C586.12 5.41001 582.85 2.14001 578.84 2.14001C574.83 2.14001 571.6 5.42001 571.6 9.41001C571.6 13.4 574.85 16.65 578.84 16.65C582.83 16.65 586.12 13.4 586.12 9.41001Z" fill="white"/><path d="M627.81 0.289998V18.77H627.71L615.27 4.95V18.51H613.22V0.0599976H613.33L625.76 13.87V0.289998H627.81Z" fill="white"/></g></svg>