<svg xmlns="http://www.w3.org/2000/svg" viewBox="0 0 586 19"><path fill="#A2C7F3" d="M12.6,2.1H7.3v16.1h-2V2.1H0V0h12.6V2.1z M50.5,0v18.1h-2v-8.1h-9.2v8.1h-2V0h2v8.1h9.2V0H50.5z M78.5,2.1v5.7
	H86v2.1h-7.5v6.3h8.6v2H76.5V0h10.7v2H78.5z M153.9,12.7c0.2,6.4-8,5.7-12.5,5.5V0h5c5.1-0.5,7.1,6.8,2.9,7.9
	C151.6,8,153.9,9.9,153.9,12.7L153.9,12.7z M143.5,2v5.5c2.2,0.1,6.4,0.3,6.2-2.7C149.7,1.8,145.7,1.9,143.5,2z M151.9,12.5
	c0.2-3.7-5.8-3.2-8.4-3.2v6.8C146.4,16.2,152,16.9,151.9,12.5z M180.6,2.1v5.7h7.5v2.1h-7.5v6.3h8.6v2h-10.7V0h10.7v2H180.6z
	 M225.9,2.1h-5.3v16.1h-2.1V2.1h-5.3V0h12.6V2.1z M261.8,2.1h-5.3v16.1h-2V2.1h-5.3V0h12.6V2.1z M288.5,2.1v5.7h7.5v2.1h-7.5v6.3
	h8.6v2h-10.7V0h10.7v2H288.5z M333,18.2l-5.1-7.1h-3.4v7.1h-2.1V0h5.4c6.4-0.3,8.5,9,2.3,10.8l5.4,7.3L333,18.2L333,18.2z
	 M327.9,9.4c6.5-0.9,4.9-8.7-3.4-7.3v7.3L327.9,9.4L327.9,9.4z M390.7,2v6.1h7.5v2.1h-7.5v8.1h-2V0h10.7v2H390.7z M423.8,11.1V0h2.1
	c0.6,4.1-2.4,16.6,4.7,16.4c7,0.2,4.1-12.3,4.7-16.4h2.1v11.1C437.5,20.7,423.5,20.7,423.8,11.1L423.8,11.1z M474.3,2.1H469v16.1h-2
	V2.1h-5.3V0h12.6V2.1z M498.7,11.1V0h2.1c0.6,4.1-2.4,16.6,4.7,16.4c7,0.2,4.1-12.3,4.7-16.4h2.1v11.1
	C512.5,20.7,498.4,20.7,498.7,11.1L498.7,11.1z M548.5,18.2l-5.1-7.1H540v7.1H538V0h5.4c6.4-0.3,8.5,9,2.3,10.8l5.4,7.3L548.5,18.2
	L548.5,18.2z M543.4,9.4c6.5-0.9,4.9-8.7-3.4-7.3v7.3L543.4,9.4L543.4,9.4z M577.3,2.1v5.7h7.5v2.1h-7.5v6.3h8.6v2h-10.7V0h10.7v2
	H577.3z"/></svg>