<svg viewBox="0 0 960 19" fill="#A2C7F3" xmlns="http://www.w3.org/2000/svg"><path d="M14.3,9.4C14.5,17.8,6.8,19,0,18.4C0,13.9,0,4.8,0,0.3C6.8-0.3,14.5,1,14.3,9.4C14.3,9.4,14.3,9.4,14.3,9.4z
	 M12.2,9.4C12.4,3.5,7.1,1.7,2,2.3c0,3.5,0,10.6,0,14.1C7,16.9,12.4,15.3,12.2,9.4C12.2,9.4,12.2,9.4,12.2,9.4z M38.5,11.4
	c0-2.8,0-8.3,0-11.1c0.5,0,1.5,0,2.1,0c0.7,4.8-2.7,15.9,4.7,16.4c7.3-0.5,3.9-11.5,4.7-16.4c0.5,0,1.5,0,2.1,0c0,2.8,0,8.3,0,11.1
	C52.3,20.9,38,20.9,38.5,11.4z M87.1,15.4c-2.5,0-7.4,0-9.9,0c-0.3,0.7-1,2.2-1.3,3c-0.6,0-1.7,0-2.2,0C75.8,13.8,80,4.6,82.1,0
	c0.1,0,0.2,0,0.2,0c2.1,4.6,6.3,13.8,8.4,18.4c-0.6,0-1.7,0-2.2,0C88.1,17.7,87.5,16.2,87.1,15.4C87.1,15.4,87.1,15.4,87.1,15.4z
	 M86.4,13.7c-1-2.3-3.1-7-4.2-9.3c-1,2.3-3.1,7-4.2,9.3C80.1,13.7,84.3,13.7,86.4,13.7z M125.3,16.4c0,0.5,0,1.5,0,2
	c-2.7,0-8.2,0-10.9,0c0-4.5,0-13.6,0-18.2c0.5,0,1.5,0,2.1,0c0,4,0,12.1,0,16.1C118.6,16.4,123.1,16.4,125.3,16.4
	C125.3,16.4,125.3,16.4,125.3,16.4z M177.5,0.3c0.5,0,1.5,0,2,0c0,4.5,0,13.6,0,18.1c-0.5,0-1.5,0-2,0
	C177.5,13.9,177.5,4.8,177.5,0.3z M219.4,0.2c0,4.6,0,13.9,0,18.5c0,0-0.1,0-0.1,0c-3.1-3.4-9.3-10.4-12.4-13.8c0,3.4,0,10.2,0,13.6
	c-0.5,0-1.5,0-2.1,0c0-4.6,0-13.9,0-18.5c0,0,0.1,0,0.1,0c3.1,3.4,9.3,10.4,12.4,13.8c0-3.4,0-10.2,0-13.6
	C217.9,0.2,218.9,0.2,219.4,0.2z M255.9,2.3c-1.3,0-3.9,0-5.3,0c0,4,0,12.1,0,16.1c-0.5,0-1.5,0-2.1,0c0-4,0-12.1,0-16.1
	c-1.3,0-4,0-5.3,0c0-0.5,0-1.5,0-2c3.1,0,9.5,0,12.6,0C255.9,0.8,255.9,1.8,255.9,2.3z M281.9,2.3c0,1.4,0,4.3,0,5.7
	c1.9,0,5.6,0,7.5,0c0,0.5,0,1.5,0,2c-1.9,0-5.6,0-7.5,0c0,1.6,0,4.7,0,6.3c2.1,0,6.5,0,8.6,0c0,0.5,0,1.5,0,2c-2.7,0-8,0-10.7,0
	c0-4.5,0-13.6,0-18.2c2.7,0,8,0,10.7,0c0,0.5,0,1.5,0,2C288.4,2.3,284.1,2.3,281.9,2.3z M325.8,18.4c-1.3-1.8-3.8-5.3-5.1-7.1
	c-0.8,0-2.5,0-3.4,0c0,1.8,0,5.3,0,7.1c-0.5,0-1.5,0-2,0c0-4.5,0-13.6,0-18.1c1.3,0,4,0,5.3,0c6.3-0.3,8.6,9,2.3,10.8
	c1.3,1.8,4,5.5,5.4,7.3C327.7,18.4,326.4,18.4,325.8,18.4z M320.7,9.6c6.4-0.6,4.2-8.5-1.7-7.3c0,0-1.7,0-1.7,0c0,1.8,0,5.5,0,7.3
	C318.1,9.6,319.8,9.6,320.7,9.6C320.7,9.6,320.7,9.6,320.7,9.6z M366.5,0.2c0,4.6,0,13.9,0,18.5c0,0-0.1,0-0.1,0
	c-3.1-3.4-9.3-10.4-12.4-13.8c0,3.4,0,10.2,0,13.6c-0.5,0-1.5,0-2.1,0c0-4.6,0-13.9,0-18.5c0,0,0.1,0,0.1,0
	c3.1,3.4,9.3,10.4,12.4,13.8c0-3.4,0-10.2,0-13.6C364.9,0.2,365.9,0.2,366.5,0.2z M403.6,15.4c-2.5,0-7.4,0-9.9,0
	c-0.3,0.7-1,2.2-1.3,3c-0.6,0-1.7,0-2.2,0c2.1-4.6,6.3-13.8,8.4-18.4c0.1,0,0.2,0,0.2,0c2.1,4.6,6.3,13.8,8.4,18.4
	c-0.6,0-1.7,0-2.2,0C404.6,17.7,403.9,16.2,403.6,15.4C403.6,15.4,403.6,15.4,403.6,15.4z M402.8,13.7c-1-2.3-3.1-7-4.2-9.3
	c-1,2.3-3.1,7-4.2,9.3C396.5,13.7,400.7,13.7,402.8,13.7z M439.8,2.3c-1.3,0-3.9,0-5.3,0c0,4,0,12.1,0,16.1c-0.5,0-1.5,0-2,0
	c0-4,0-12.1,0-16.1c-1.3,0-4,0-5.3,0c0-0.5,0-1.5,0-2c3.1,0,9.5,0,12.6,0C439.8,0.8,439.8,1.8,439.8,2.3z M463.7,0.3
	c0.5,0,1.5,0,2.1,0c0,4.5,0,13.6,0,18.1c-0.5,0-1.5,0-2.1,0C463.7,13.9,463.7,4.8,463.7,0.3z M490.1,9.4c-0.2-12.1,18.8-12.1,18.6,0
	C508.9,21.4,489.9,21.4,490.1,9.4C490.1,9.4,490.1,9.4,490.1,9.4z M506.7,9.4c0.1-9.4-14.7-9.4-14.5,0
	C492.1,18.8,506.8,18.7,506.7,9.4z M547.7,0.2c0,4.6,0,13.9,0,18.5c0,0-0.1,0-0.1,0c-3.1-3.4-9.3-10.4-12.4-13.8
	c0,3.4,0,10.2,0,13.6c-0.5,0-1.5,0-2,0c0-4.6,0-13.9,0-18.5c0,0,0.1,0,0.1,0c3.1,3.4,9.3,10.4,12.4,13.8c0-3.4,0-10.2,0-13.6
	C546.2,0.2,547.2,0.2,547.7,0.2z M584.8,15.4c-2.5,0-7.4,0-9.9,0c-0.3,0.7-1,2.2-1.3,3c-0.6,0-1.7,0-2.2,0
	c2.1-4.6,6.3-13.8,8.4-18.4c0.1,0,0.2,0,0.2,0c2.1,4.6,6.3,13.8,8.4,18.4c-0.6,0-1.7,0-2.2,0C585.8,17.7,585.1,16.2,584.8,15.4
	C584.8,15.4,584.8,15.4,584.8,15.4z M584,13.7c-1-2.3-3.1-7-4.2-9.3c-1,2.3-3.1,7-4.2,9.3C577.8,13.7,582,13.7,584,13.7z M623,16.4
	c0,0.5,0,1.5,0,2c-2.7,0-8.2,0-10.9,0c0-4.5,0-13.6,0-18.2c0.5,0,1.5,0,2,0c0,4,0,12.1,0,16.1C616.3,16.4,620.8,16.4,623,16.4
	C623,16.4,623,16.4,623,16.4z M674.2,9.4c-0.2-7.9,10.1-12.6,15.6-6.6c-0.3,0.4-0.9,1.2-1.2,1.6c-4.2-4.7-12.4-1.3-12.3,5
	c-0.1,6.3,8.1,9.7,12.3,5c0.3,0.4,0.9,1.2,1.2,1.6C684.4,21.9,673.9,17.2,674.2,9.4z M715.7,2.3c0,1.4,0,4.3,0,5.7
	c1.9,0,5.6,0,7.5,0c0,0.5,0,1.5,0,2c-1.9,0-5.6,0-7.5,0c0,1.6,0,4.7,0,6.3c2.1,0,6.5,0,8.6,0c0,0.5,0,1.5,0,2c-2.7,0-8,0-10.7,0
	c0-4.5,0-13.6,0-18.2c2.7,0,8,0,10.7,0c0,0.5,0,1.5,0,2C722.2,2.3,717.9,2.3,715.7,2.3z M759.6,18.4c-1.3-1.8-3.8-5.3-5.1-7.1
	c-0.8,0-2.5,0-3.4,0c0,1.8,0,5.3,0,7.1c-0.5,0-1.5,0-2,0c0-4.5,0-13.6,0-18.1c1.3,0,4,0,5.3,0c6.3-0.3,8.6,9,2.3,10.8
	c1.3,1.8,4,5.5,5.4,7.3C761.5,18.4,760.2,18.4,759.6,18.4z M754.5,9.6c6.4-0.6,4.2-8.5-1.7-7.3c0,0-1.7,0-1.7,0c0,1.8,0,5.5,0,7.3
	C752,9.6,753.6,9.6,754.5,9.6C754.5,9.6,754.5,9.6,754.5,9.6z M796.5,2.3c-1.3,0-3.9,0-5.3,0c0,4,0,12.1,0,16.1c-0.5,0-1.5,0-2,0
	c0-4,0-12.1,0-16.1c-1.3,0-4,0-5.3,0c0-0.5,0-1.5,0-2c3.1,0,9.5,0,12.6,0C796.5,0.8,796.5,1.8,796.5,2.3z M820.4,0.3
	c0.5,0,1.5,0,2,0c0,4.5,0,13.6,0,18.1c-0.5,0-1.5,0-2,0C820.4,13.9,820.4,4.8,820.4,0.3z M849.8,2.3c0,1.5,0,4.5,0,6.1
	c1.9,0,5.6,0,7.5,0c0,0.5,0,1.5,0,2.1c-1.9,0-5.6,0-7.5,0c0,2,0,6.1,0,8.1c-0.5,0-1.5,0-2,0c0-4.5,0-13.7,0-18.2c2.7,0,8,0,10.7,0
	c0,0.5,0,1.5,0,2C856.3,2.3,852,2.3,849.8,2.3z M882.4,0.3c0.5,0,1.5,0,2,0c0,4.5,0,13.6,0,18.1c-0.5,0-1.5,0-2,0
	C882.4,13.9,882.4,4.8,882.4,0.3z M911.8,2.3c0,1.4,0,4.3,0,5.7c1.9,0,5.6,0,7.5,0c0,0.5,0,1.5,0,2c-1.9,0-5.6,0-7.5,0
	c0,1.6,0,4.7,0,6.3c2.1,0,6.5,0,8.6,0c0,0.5,0,1.5,0,2c-2.7,0-8,0-10.7,0c0-4.5,0-13.6,0-18.2c2.7,0,8,0,10.7,0c0,0.5,0,1.5,0,2
	C918.2,2.3,913.9,2.3,911.8,2.3z M959.4,9.4c0.2,8.4-7.5,9.7-14.3,9.1c0-4.5,0-13.6,0-18.2C951.9-0.3,959.6,1,959.4,9.4z M957.3,9.4
	c0.2-5.9-5.2-7.6-10.2-7.1c0,3.5,0,10.6,0,14.1C952.1,16.9,957.5,15.3,957.3,9.4C957.3,9.4,957.3,9.4,957.3,9.4z"/></svg>