<svg width="995" height="154" fill="none" xmlns="http://www.w3.org/2000/svg"><path d="M75.2 112C75.2 106.73 73.49 102.62 70.06 99.67C66.63 96.73 60.61 93.68 51.99 90.53C43.37 87.38 36.33 84.33 30.85 81.39C13.04 71.86 4.14 58.77 4.14 42.13C4.14 33.84 6.36 26.53 10.79 20.19C15.22 13.86 21.5 8.91998 29.62 5.38998C37.74 1.86998 46.86 0.0999756 56.99 0.0999756C67.12 0.0999756 75.72 2.01998 83.55 5.84998C91.38 9.68998 97.47 15.15 101.81 22.24C106.15 29.33 108.32 37.43 108.32 46.54H75.29C75.29 40.44 73.58 35.72 70.15 32.36C66.72 29 62.08 27.33 56.23 27.33C50.38 27.33 45.65 28.75 42.22 31.59C38.79 34.43 37.08 38.05 37.08 42.43C37.08 46.27 38.97 49.74 42.74 52.86C46.51 55.98 53.15 59.2 62.65 62.52C72.15 65.84 79.95 69.42 86.05 73.26C100.9 82.58 108.32 95.42 108.32 111.79C108.32 124.87 103.79 135.15 94.73 142.61C85.67 150.08 73.25 153.81 57.46 153.81C46.32 153.81 36.24 151.64 27.22 147.29C18.19 142.94 11.4 136.98 6.84 129.41C2.28 121.84 0 113.12 0 103.26H33.22C33.22 111.27 35.12 117.18 38.93 120.98C42.74 124.78 48.92 126.68 57.47 126.68C62.94 126.68 67.27 125.4 70.45 122.83C73.63 120.26 75.22 116.65 75.22 111.99L75.2 112Z" fill="white"/><path d="M234.89 133.26C229.79 139.42 222.34 144.39 212.53 148.16C202.72 151.93 191.96 153.81 180.26 153.81C162.27 153.81 147.89 147.82 137.14 135.83C126.38 123.84 120.63 107.16 119.87 85.79L119.78 72.84C119.78 58.11 122.17 45.25 126.95 34.26C131.73 23.27 138.57 14.81 147.47 8.87999C156.37 2.95999 166.67 -0.0100098 178.37 -0.0100098C195.48 -0.0100098 208.77 4.24999 218.24 12.78C227.71 21.31 233.23 34.03 234.8 50.95H202.91C201.78 42.59 199.32 36.63 195.55 33.07C191.78 29.51 186.43 27.73 179.51 27.73C171.21 27.73 164.79 31.57 160.26 39.24C155.73 46.91 153.43 57.87 153.37 72.12V81.16C153.37 96.09 155.71 107.31 160.4 114.81C165.09 122.31 172.46 126.06 182.53 126.06C191.15 126.06 197.56 123.97 201.78 119.79V96.57H178.76V71.81H234.91V133.25L234.89 133.26Z" fill="white"/><path d="M322.11 112C322.11 106.73 320.4 102.62 316.97 99.67C313.54 96.73 307.52 93.68 298.9 90.53C290.28 87.38 283.24 84.33 277.76 81.39C259.96 71.87 251.06 58.79 251.06 42.14C251.06 33.85 253.28 26.54 257.71 20.2C262.14 13.87 268.42 8.92999 276.54 5.39999C284.66 1.86999 293.78 0.109985 303.91 0.109985C314.04 0.109985 322.64 2.02999 330.47 5.85999C338.3 9.69999 344.39 15.16 348.73 22.25C353.07 29.34 355.24 37.44 355.24 46.55H322.21C322.21 40.45 320.5 35.73 317.07 32.37C313.64 29.01 309 27.34 303.15 27.34C297.3 27.34 292.57 28.76 289.14 31.6C285.71 34.44 284 38.06 284 42.44C284 46.28 285.89 49.75 289.66 52.87C293.43 55.99 300.07 59.21 309.57 62.53C319.07 65.85 326.87 69.43 332.97 73.27C347.82 82.59 355.24 95.43 355.24 111.8C355.24 124.88 350.71 135.16 341.65 142.62C332.59 150.09 320.17 153.82 304.38 153.82C293.24 153.82 283.16 151.65 274.14 147.3C265.11 142.95 258.32 136.99 253.76 129.42C249.2 121.85 246.92 113.13 246.92 103.27H280.14C280.14 111.28 282.04 117.19 285.85 120.99C289.66 124.79 295.84 126.69 304.39 126.69C309.86 126.69 314.19 125.41 317.37 122.84C320.55 120.27 322.14 116.66 322.14 112H322.11Z" fill="white"/><path d="M728.71 53.68C733.73 53.68 738.54 53.63 743.34 53.74C743.91 53.75 744.8 54.49 744.97 55.06C749.48 70.23 753.88 85.44 758.38 100.62C761.39 110.8 764.53 120.94 767.75 131.56C776.47 105.41 785.07 79.64 793.69 53.77H807.66C816.34 79.53 825.01 105.28 833.9 131.67C837.26 120.49 840.44 110.01 843.56 99.51C846.39 89.99 849.16 80.46 851.92 70.92C853.26 66.29 854.59 61.66 855.8 56.99C856.43 54.57 857.52 53.39 860.29 53.6C864.08 53.89 867.91 53.67 872.15 53.67C871.89 54.98 871.79 56.01 871.48 56.98C868.01 68.06 864.54 79.14 861.03 90.21C855.94 106.24 850.82 122.26 845.72 138.28C844.59 141.84 843.43 145.4 842.4 148.99C841.93 150.63 841.03 151.09 839.38 151.03C835.76 150.9 832.12 150.89 828.5 151.03C826.68 151.1 825.95 150.47 825.39 148.74C820.44 133.48 815.38 118.26 810.35 103.03C807.33 93.88 804.29 84.72 801.25 75.58C801.07 75.03 800.74 74.53 800.28 73.59C795.29 89.01 790.44 104.05 785.56 119.08C782.37 128.91 779.05 138.69 775.98 148.56C775.39 150.46 774.64 151.11 772.72 151.03C769.2 150.9 765.66 150.87 762.15 151.03C760.11 151.13 759.17 150.53 758.54 148.49C752.46 128.85 746.28 109.25 740.1 89.64C736.35 77.74 732.57 65.86 728.7 53.67L728.71 53.68Z" fill="white"/><path d="M966.81 106.29H887.24C888.85 123 897.06 134.88 913.12 139.25C929.54 143.72 942.95 137.54 953.07 123.68C956.64 126.48 960.21 129.27 964 132.24C960.19 137.59 955.45 142.02 949.88 145.57C939.34 152.29 927.55 153.93 915.52 152.7C894 150.5 877.08 134.33 873.13 113.05C870.9 101.05 871.8 89.42 877.2 78.57C884.73 63.43 896.86 54.08 914 51.82C926.66 50.15 938.51 52.03 949.04 59.61C957.99 66.05 963.5 74.9 965.65 85.65C966.7 90.88 967.02 96.26 967.48 101.58C967.61 103.07 967.06 104.62 966.8 106.29H966.81ZM952.47 94.05C951.48 82.44 947.32 72.44 936.84 67.24C925.11 61.42 913.07 61.93 901.91 69.88C893.57 75.82 888.93 83.76 887.63 94.05H952.47Z" fill="white"/><path d="M583.73 72.43H571.78V53.75H583.62C583.62 47.21 583.44 40.99 583.66 34.78C583.98 25.79 586.24 17.28 592.32 10.43C595.89 6.39999 600.74 3.92999 606.14 2.91999C611.58 1.89999 617.02 1.94999 622.36 3.53999C623.07 3.74999 624.08 4.80999 624.04 5.40999C623.67 10.96 623.1 16.49 622.58 22.15C619.13 21.04 615.66 20.41 612.04 22.16C607.21 24.5 606.15 29.13 605.56 33.48C604.68 39.99 604.82 46.64 604.51 53.58H620.34V72.26H605.44V150.83H583.73V72.42V72.43Z" fill="white"/><path d="M683.38 72.41H670.87V53.73H683.28V28.45H703.77V53.57H720.69V72.24H703.94V75.76C703.94 90.87 703.91 105.98 703.97 121.08C703.97 123.25 704.2 125.46 704.67 127.57C705.89 133.04 711.17 135.99 716.6 134.4C717.71 134.07 718.81 133.7 720.26 133.23C720.26 136.91 720.26 140.22 720.26 143.53C720.26 144.43 720.17 145.36 720.35 146.24C721.2 150.56 721.13 151 717.18 151.91C710.38 153.47 703.59 154.21 696.73 151.7C692.19 150.04 688.44 147.4 686.76 143C685.1 138.65 683.62 133.92 683.53 129.32C683.16 111.6 683.38 93.87 683.38 76.14V72.4V72.41Z" fill="white"/><path d="M656.57 150.85H634.55V53.9H656.57V150.85Z" fill="white"/><path d="M994.54 150.86H980.4V1.91998H994.54V150.86Z" fill="white"/><path d="M632.59 25.61C632.96 16.75 637.99 11.43 645.63 11.48C653.37 11.54 658.32 16.72 658.48 25.1C658.65 33.7 653.45 38.94 645.64 39.01C637.81 39.08 633.15 34.25 632.58 25.61H632.59Z" fill="white"/><path d="M417.61 31.51L536.54 150.28" stroke="white" stroke-width="2.45" stroke-miterlimit="10"/><path d="M536.54 31.51L417.61 150.28" stroke="white" stroke-width="2.45" stroke-miterlimit="10"/></svg>