<svg width="1211" height="166" fill="none" xmlns="http://www.w3.org/2000/svg"><g opacity="0.5"><mask id="mask0_237_85" style="mask-type:alpha" maskUnits="userSpaceOnUse" x="0" y="0" width="1211" height="166"><rect width="1211" height="166" fill="url(#paint0_linear_237_85)"/></mask><g mask="url(#mask0_237_85)"><g opacity="0.25"><path d="M-1.00001 114.32L10.78 105.9C15.02 113.32 22.91 117.56 32.04 117.56C42.7 117.56 50.77 112.44 50.77 105.19C50.77 96.42 38.29 91.12 27.22 86.35C16.09 81.4 3.72999 75.63 3.72999 60.74C3.72999 45.85 17.19 34.35 34.27 34.35C47.81 34.35 57.94 40.89 61.83 51.31L50.76 58.96C47.82 52.54 41.28 48.95 34.39 48.95C25.68 48.95 18.73 54.37 18.73 61.08C18.73 68.5 27.5 71.15 39.04 76.1C54.06 82.69 65.71 89.94 65.71 104.89C65.71 121.73 51.11 132.57 31.85 132.57C16.25 132.57 4.40999 125.27 -1.01001 114.32H-1.00001Z" fill="white"/><path d="M102.42 50.7201V75.0401H138.34V89.8801H102.42V116.14H144.05V130.98H87.52V36.0601H144.05V50.7201H102.42Z" fill="white"/><path d="M261.55 34V130.98H246.65V78.34L215.15 129.39H215.03L183.47 78.28V130.98H168.57V34H169.69L215.09 103.01L260.43 34H261.55Z" fill="white"/><path d="M288.84 36.0601H303.74V130.98H288.84V36.0601Z" fill="white"/><path d="M326.49 83.58C326.49 56.85 348.81 34.41 375.48 34.41C387.79 34.59 399.15 39.83 408.46 48.9L399.8 60.62C393.15 53.97 384.49 49.55 375.19 49.55C358 49.55 341.57 64.62 341.57 83.64C341.57 102.66 358.23 117.56 375.25 117.56C384.97 117.56 393.33 112.73 399.86 106.25L408.46 118.26C400.27 126.33 389.85 132.51 375.72 132.51C348.81 132.51 326.49 110.37 326.49 83.58Z" fill="white"/><path d="M420.73 83.64C420.73 56.55 442.75 34.41 469.78 34.41C496.81 34.41 518.89 56.55 518.89 83.64C518.89 110.73 496.75 132.51 469.72 132.51C442.69 132.51 420.73 110.49 420.73 83.64ZM503.82 83.52C503.82 64.74 488.45 49.43 469.73 49.43C451.01 49.43 435.75 64.74 435.75 83.52C435.75 102.3 451 117.44 469.73 117.44C488.46 117.44 503.82 102.19 503.82 83.52Z" fill="white"/><path d="M617.9 35.83V132.64H617.19L556.48 69.22V131.11H541.58V34.41H542.35L602.94 97.71V35.83H617.9Z" fill="white"/><path d="M721.14 83.64C721.14 112.79 702.36 130.98 672.21 130.98H645.18V36.06H672.21C702.36 36 721.14 54.25 721.14 83.64ZM706.07 83.58C706.07 63.44 693 50.84 672.15 50.84H660.02V116.14H672.33C693.06 116.14 706.07 103.6 706.07 83.58Z" fill="white"/><path d="M742.95 95.0001V36.0601H757.91V94.9401C757.91 108.07 767.16 117.67 778.75 117.67C790.34 117.67 799.71 108.07 799.71 94.9401V36.0601H814.72V95.0001C814.72 116.79 799 132.74 778.8 132.74C758.6 132.74 742.94 116.78 742.94 95.0001H742.95Z" fill="white"/><path d="M836.54 83.58C836.54 56.85 858.86 34.41 885.53 34.41C897.84 34.59 909.2 39.83 918.5 48.9L909.84 60.62C903.19 53.97 894.53 49.55 885.23 49.55C868.04 49.55 851.61 64.62 851.61 83.64C851.61 102.66 868.27 117.56 885.29 117.56C895.01 117.56 903.37 112.73 909.9 106.25L918.5 118.26C910.32 126.33 899.89 132.51 885.76 132.51C858.85 132.51 836.53 110.37 836.53 83.58H836.54Z" fill="white"/><path d="M998.85 50.8401H973.41V130.98H958.45V50.8401H933.01V36.0601H998.84V50.8401H998.85Z" fill="white"/><path d="M1010.47 83.64C1010.47 56.55 1032.49 34.41 1059.52 34.41C1086.55 34.41 1108.63 56.55 1108.63 83.64C1108.63 110.73 1086.49 132.51 1059.46 132.51C1032.43 132.51 1010.47 110.49 1010.47 83.64ZM1093.56 83.52C1093.56 64.74 1078.19 49.43 1059.47 49.43C1040.75 49.43 1025.49 64.74 1025.49 83.52C1025.49 102.3 1040.74 117.44 1059.47 117.44C1078.2 117.44 1093.56 102.19 1093.56 83.52Z" fill="white"/><path d="M1183.49 130.98L1157.93 94.2401H1146.27V130.98H1131.37L1131.31 36.0601H1160.81C1178.47 36.0601 1192.96 49.6601 1192.96 66.5601C1192.96 78.8101 1185.07 89.4701 1174.18 93.0001L1201.8 130.98H1183.49ZM1161.18 81.8701C1170.13 81.9301 1177.61 74.6901 1177.61 66.2101C1177.61 57.7301 1170.01 50.8401 1161.18 50.8401H1146.22V81.8701H1161.18Z" fill="white"/></g></g></g><defs><linearGradient id="paint0_linear_237_85" x1="605.5" y1="0" x2="605.5" y2="166" gradientUnits="userSpaceOnUse"><stop offset="0.5"/><stop offset="0.897059" stop-opacity="0"/></linearGradient></defs></svg>