<svg viewBox="0 0 995 154" fill="none" xmlns="http://www.w3.org/2000/svg"><path fill="#FFF" d="M75.2,112C74.5,98.1,65.7,96.4,52,90.5c-24.4-8-48.8-23.3-47.8-48.4c-0.1-17,9.8-30,25.5-36.7
	C62-9.1,109.3,5.6,108.3,46.5h-33c1.6-32.4-56.4-19.1-32.6,6.3C51,60,76.8,66.3,86,73.3c41.8,27.2,22,83.7-28.6,80.5
	c-30,0.8-58.6-19-57.5-50.5h33.2c0,8,1.9,13.9,5.7,17.7C47.2,129.5,76.2,130.1,75.2,112L75.2,112z M234.9,133.3
	c-22.3,24.7-75.1,29.4-97.7,2.6c-21.1-22.4-21.9-73.1-10.2-101.6C147.9-18.4,233.8-9.3,234.8,51h-31.9
	c-0.7-24.6-30.5-32.1-42.7-11.7c-9.7,16.4-9.7,59.7,0.1,75.6c6.7,13.4,31.9,14.6,41.4,5V96.6h-23V71.8h56.2L234.9,133.3L234.9,133.3
	z M322.1,112c-0.7-13.9-9.5-15.6-23.2-21.5c-24.4-8-48.8-23.2-47.8-48.4c-0.1-17,9.8-30,25.5-36.7c32.4-14.5,79.7,0.2,78.7,41.1h-33
	c1.6-32.4-56.4-19.1-32.6,6.3c8.2,7.1,34,13.4,43.3,20.4c41.8,27.2,22,83.7-28.6,80.5c-30,0.8-58.6-19-57.5-50.5h33.2
	c0,8,1.9,13.9,5.7,17.7C294.1,129.6,323.1,130.1,322.1,112L322.1,112z M728.7,53.7c4.4,0.7,13.6-1.7,16.3,1.4
	c7.6,25.7,14.8,50.7,22.8,76.5c8.7-26.1,17.3-51.9,25.9-77.8h14c8.7,25.8,17.4,51.5,26.2,77.9c6.3-20.9,12.1-40.2,18-60.8
	c5.8-17.4-0.2-18,20.2-17.2c-7.9,28.5-17.8,56.4-26.4,84.6c-4.6,15-1.6,12.6-17.2,12.7c-1.8,0.1-2.5-0.6-3.1-2.3
	c-8.4-25-16-50.4-25.1-75.2c-8.1,25.4-16.2,49.8-24.3,75c-0.6,1.9-1.3,2.6-3.3,2.5c-4.2-1.1-12.5,2.4-14.2-2.5
	C748.7,116.7,738.8,85.5,728.7,53.7L728.7,53.7z M966.8,106.3h-79.6c0.8,35,47.6,46.9,65.8,17.4c3.6,2.8,7.1,5.6,10.9,8.6
	c-38.8,49.9-113.3,3.7-86.8-53.7C902.2,29.9,975,49.6,966.8,106.3L966.8,106.3z M952.5,94.1c-1.4-41.8-60.7-39-64.8,0H952.5z
	 M583.7,72.4h-11.9V53.8h11.8c-0.8-19.1-1.1-46.4,22.5-50.8c22-2.2,18,0.5,16.4,19.2c-19.8-6.7-17.7,18.8-18.1,31.4h15.8v18.7h-14.9
	v78.6h-21.7V72.4L583.7,72.4z M683.4,72.4h-12.5V53.7h12.4V28.5h20.5v25.1h16.9v18.7h-16.8c0,16.3,0,32.6,0,48.8
	c-0.9,10.1,6.5,17,16.3,12.1c0.1,4.7-0.2,8.7,0.1,13c0.9,4.3,0.8,4.8-3.2,5.7c-6.8,1.6-13.6,2.3-20.5-0.2
	c-9.8-2.8-12.5-13.5-13.2-22.4C683.1,110.4,683.4,91.4,683.4,72.4L683.4,72.4z M656.6,150.9h-22v-97h22V150.9z M994.5,150.9h-14.1
	V1.9h14.1V150.9z M632.6,25.6c-0.5-18.6,26.4-18.7,25.9-0.5C659.7,43.1,632.3,43.9,632.6,25.6L632.6,25.6z"/><path stroke="#FFF" stroke-width="2.45" d="M417.6,31.5l118.9,118.8 M536.5,31.5L417.6,150.3"/></svg>