<svg width="469" height="100" fill="none" xmlns="http://www.w3.org/2000/svg"><path d="M12.792 36.574C8.692 36.574 4.674 35.016 1.722 32.187L5.207 28.005C7.339 30.014 10.25 31.326 12.915 31.326C16.072 31.326 17.712 29.973 17.712 27.882C17.712 25.627 15.867 24.889 13.161 23.741L9.102 22.019C6.068 20.789 2.952 18.288 2.952 13.901C2.952 8.94 7.339 5.127 13.448 5.127C16.974 5.127 20.5 6.521 22.96 9.022L19.926 12.835C17.958 11.236 15.949 10.334 13.448 10.334C10.783 10.334 9.102 11.523 9.102 13.491C9.102 15.664 11.275 16.484 13.858 17.509L17.835 19.149C21.484 20.666 23.903 23.044 23.903 27.39C23.903 32.351 19.762 36.574 12.792 36.574ZM42.354 36.574C34.113 36.574 27.799 31.08 27.799 20.953C27.799 10.949 34.277 5.127 42.354 5.127C46.7 5.127 49.734 7.013 51.702 8.981L48.504 12.876C46.987 11.441 45.265 10.334 42.559 10.334C37.475 10.334 33.99 14.27 33.99 20.748C33.99 27.39 37.024 31.326 42.969 31.326C44.445 31.326 45.921 30.916 46.782 30.219V24.233H41.37V19.272H52.194V32.925C50.144 34.975 46.536 36.574 42.354 36.574ZM67.7656 36.574C63.6656 36.574 59.6476 35.016 56.6956 32.187L60.1806 28.005C62.3126 30.014 65.2236 31.326 67.8886 31.326C71.0456 31.326 72.6856 29.973 72.6856 27.882C72.6856 25.627 70.8406 24.889 68.1346 23.741L64.0756 22.019C61.0416 20.789 57.9256 18.288 57.9256 13.901C57.9256 8.94 62.3126 5.127 68.4216 5.127C71.9476 5.127 75.4736 6.521 77.9336 9.022L74.8996 12.835C72.9316 11.236 70.9226 10.334 68.4216 10.334C65.7566 10.334 64.0756 11.523 64.0756 13.491C64.0756 15.664 66.2486 16.484 68.8316 17.509L72.8086 19.149C76.4576 20.666 78.8766 23.044 78.8766 27.39C78.8766 32.351 74.7356 36.574 67.7656 36.574ZM96.9817 25.053H123.55V29.317H96.9817V25.053ZM98.9907 16.033H121.582V20.338H98.9907V16.033ZM92.9637 34.319H127.978V38.706H92.9637V34.319ZM107.601 17.96H112.808V36.779H107.601V17.96ZM98.7857 2.462H112.562V7.013H98.7857V2.462ZM107.56 2.462H112.931C116.457 7.669 123.099 12.835 130.069 15.418C129.085 16.443 127.486 18.534 126.789 19.887C119.573 16.525 112.931 10.703 108.831 5.127H107.56V2.462ZM108.339 2.462L111.906 4.922C107.847 10.58 100.262 16.648 93.7427 19.928C93.0867 18.698 91.8157 16.976 90.7087 15.951C97.2277 13.286 104.69 7.628 108.339 2.462ZM146.141 7.833H170.454V12.302H146.141V7.833ZM155.612 1.232H160.368V34.196C160.368 36.615 159.876 37.927 158.441 38.706C157.006 39.526 154.956 39.731 151.84 39.731C151.676 38.419 150.856 36.287 150.159 34.975C152.209 35.057 154.136 35.057 154.751 35.057C155.366 35.057 155.612 34.852 155.612 34.196V1.232ZM144.296 30.998C147.125 29.03 152.045 25.135 156.391 21.568L158.072 25.053C154.505 28.702 150.487 32.433 147.248 35.385L144.296 30.998ZM146.387 15.828L150.2 14.147C151.758 16.361 153.521 19.354 154.177 21.363L150.159 23.249C149.544 21.281 147.945 18.165 146.387 15.828ZM165.985 13.983L170.249 16.197C167.953 19.108 165.288 22.388 163.115 24.438L159.712 22.511C161.762 20.297 164.468 16.689 165.985 13.983ZM161.598 3.938L164.345 1.437C166.026 2.585 168.199 4.307 169.265 5.537L166.395 8.366C165.411 7.054 163.32 5.209 161.598 3.938ZM160.204 13.081C161.885 23.044 164.714 28.374 171.151 32.761C170.003 33.663 168.732 35.221 168.117 36.533C161.024 31.162 158.031 24.93 156.145 13.819L160.204 13.081ZM132.283 3.528H145.362V8.12H132.283V3.528ZM132.529 15.336H144.747V19.887H132.529V15.336ZM131.709 31.162C135.194 30.26 140.442 28.702 145.403 27.185L146.141 31.613C141.549 33.089 136.629 34.606 132.693 35.836L131.709 31.162ZM136.629 5.414H141.18V30.588L136.629 31.326V5.414ZM177.998 2.421H206.821V15.705H201.819V5.865H182.754V15.705H177.998V2.421ZM184.066 7.464H200.507V10.375H184.066V7.464ZM184.066 11.933H200.384V15.008H184.066V11.933ZM173.898 16.648H210.675V20.584H173.898V16.648ZM192.594 22.101H206.083V25.873H192.594V22.101ZM180.212 22.183H189.519V25.586H180.212V22.183ZM180.212 27.267H189.519V30.67H180.212V27.267ZM197.719 25.504C200.056 30.506 204.894 34.278 211.454 35.836C210.47 36.697 209.199 38.501 208.543 39.649C201.491 37.599 196.612 33.007 193.783 26.611L197.719 25.504ZM204.976 22.101H205.837L206.657 21.937L209.691 23.085C207.19 31.695 201.368 36.902 193.947 39.608C193.414 38.46 192.225 36.697 191.323 35.754C197.801 33.827 203.131 29.153 204.976 22.798V22.101ZM173.488 33.417C177.588 33.171 183.738 32.679 189.642 32.146L189.724 35.918C184.148 36.574 178.285 37.148 173.939 37.558L173.488 33.417ZM187.018 17.919H191.692V39.69H187.018V17.919ZM177.137 18.001H181.606V34.688H177.137V18.001ZM215.062 5.004H251.429V9.145H215.062V5.004ZM225.435 14.024V16.238H241.384V14.024H225.435ZM220.515 10.703H246.591V19.559H220.515V10.703ZM216.21 21.199H249.092V25.217H220.966V39.69H216.21V21.199ZM245.566 21.199H250.527V35.18C250.527 37.312 249.994 38.255 248.436 38.829C246.919 39.362 244.705 39.403 241.835 39.362C241.589 38.255 240.933 36.779 240.359 35.795C241.999 35.918 244.213 35.877 244.746 35.877C245.32 35.836 245.566 35.713 245.566 35.18V21.199ZM229.945 2.134L234.988 0.903997C235.726 2.626 236.669 5.004 237.079 6.398L231.749 7.874C231.421 6.398 230.56 3.938 229.945 2.134ZM226.788 26.693H242.04V35.877H226.788V32.474H237.694V30.096H226.788V26.693ZM224.082 26.693H228.633V37.558H224.082V26.693ZM256.226 8.858H267.378V13.368H256.226V8.858ZM260.367 1.191H264.221V39.69H260.367V1.191ZM259.998 11.933L262.212 12.999C261.31 19.354 259.383 27.062 257.087 31.121C256.677 29.727 255.775 27.554 255.16 26.283C257.292 23.003 259.178 16.894 259.998 11.933ZM264.016 14.926C264.836 15.951 267.788 20.502 268.444 21.568L266.312 24.889C265.533 22.757 263.36 18.493 262.376 16.73L264.016 14.926ZM273.856 10.375H285.992V14.106H273.856V10.375ZM272.585 19.436V23.249H275.291V19.436H272.585ZM269.059 16.156H279.022V26.529H269.059V16.156ZM284.434 19.436V23.249H287.304V19.436H284.434ZM280.867 16.156H291.076V26.529H280.867V16.156ZM272.298 26.98L276.562 27.882C274.963 33.007 271.847 37.189 267.993 39.854C267.337 39.034 265.738 37.435 264.795 36.697C268.403 34.606 271.068 31.162 272.298 26.98ZM272.421 32.679L274.758 29.768C276.398 30.752 278.53 32.187 279.555 33.253L277.095 36.492C276.111 35.385 274.061 33.745 272.421 32.679ZM283.696 26.939L288.042 27.554C286.935 32.925 284.516 37.148 280.826 39.772C280.211 38.993 278.612 37.353 277.71 36.656C280.908 34.606 282.917 31.121 283.696 26.939ZM282.958 32.925L285.705 29.973C288.288 31.613 291.855 34.114 293.536 35.795L290.625 39.157C288.985 37.394 285.541 34.729 282.958 32.925ZM278.243 0.657998L282.958 2.339C279.924 7.259 274.963 11.4 269.797 14.229C269.1 13.286 267.583 11.564 266.599 10.785C271.396 8.407 275.865 4.471 278.243 0.657998ZM280.457 2.011C283.327 5.045 288.903 8.243 293.741 9.801C293.003 10.99 292.142 13.163 291.855 14.475C286.443 12.138 280.539 8.079 277.013 4.307L280.457 2.011ZM300.342 9.473H311.535V13.081H300.342V9.473ZM300.342 15.541H311.658V19.149H300.342V15.541ZM304.278 5.906H308.009V24.438H304.278V5.906ZM305.262 27.226L307.025 26.652C307.681 28.333 308.501 30.506 308.788 31.859L306.943 32.556C306.656 31.121 305.918 28.907 305.262 27.226ZM302.843 27.677L304.811 27.349C305.303 29.44 305.795 32.187 306 33.991L303.95 34.401C303.786 32.556 303.335 29.809 302.843 27.677ZM300.383 27.964L302.392 27.759C302.638 30.178 302.761 33.253 302.761 35.303L300.588 35.549C300.67 33.458 300.588 30.383 300.383 27.964ZM297.472 27.103L299.973 27.964C299.686 30.711 299.153 34.606 298.456 36.943L295.832 36C296.611 33.622 297.226 29.85 297.472 27.103ZM308.706 21.691H312.56C312.56 21.691 312.56 22.757 312.519 23.249C312.273 33.13 311.986 36.82 311.125 38.05C310.469 38.952 309.772 39.239 308.829 39.403C308.009 39.567 306.738 39.567 305.426 39.526C305.344 38.419 304.975 36.902 304.442 35.918C305.467 36.041 306.328 36.041 306.82 36.041C307.271 36.041 307.558 35.959 307.804 35.549C308.296 34.811 308.542 31.613 308.706 22.347V21.691ZM312.191 2.79V6.767H301.736V21.691H310.674V25.709H297.923V2.79H312.191ZM316.783 19.231V23.085H319.079V19.231H316.783ZM313.626 16.115H322.482V26.201H313.626V16.115ZM326.992 19.231V23.085H329.534V19.231H326.992ZM323.753 16.115H332.937V26.201H323.753V16.115ZM316.373 26.939L320.473 27.677C319.448 32.515 317.398 36.943 314.651 39.731C313.954 39.034 312.355 37.64 311.412 37.025C313.913 34.688 315.594 30.998 316.373 26.939ZM317.07 10.252H329.206V13.983H317.07V10.252ZM316.25 33.171L318.587 30.26C320.268 31.203 322.482 32.761 323.507 33.827L321.047 37.066C320.063 35.918 317.931 34.278 316.25 33.171ZM326.418 26.816L330.764 27.554C329.944 32.433 328.14 36.902 325.598 39.772C324.86 39.034 323.056 37.681 322.031 37.025C324.409 34.688 325.803 30.916 326.418 26.816ZM325.639 34.524L328.345 31.49C330.354 32.761 333.06 34.647 334.413 35.918L331.543 39.28C330.313 37.927 327.648 35.918 325.639 34.524ZM322.031 0.657998L326.459 2.175C323.671 6.89 319.12 10.908 314.241 13.655C313.585 12.794 312.15 11.236 311.248 10.539C315.758 8.161 319.858 4.307 322.031 0.657998ZM324.122 1.97C326.459 4.553 330.969 7.505 334.823 8.981C334.126 10.129 333.306 12.261 333.019 13.491C328.632 11.236 323.753 7.382 320.801 4.02L324.122 1.97ZM358.357 4.717H361.842V16.894H358.357V4.717ZM364.056 4.717H367.541V16.894H364.056V4.717ZM366.68 31.859L370.247 29.973C372.215 31.941 374.347 34.565 375.413 36.369L371.641 38.583C370.698 36.738 368.566 33.868 366.68 31.859ZM354.913 29.932L359.218 31.162C357.742 34.032 355.487 37.025 353.396 38.911C352.576 38.173 350.772 36.902 349.747 36.287C351.797 34.688 353.806 32.269 354.913 29.932ZM351.428 2.708H374.839V6.603H351.428V2.708ZM353.888 19.887H372.461V23.618H353.888V19.887ZM351.469 25.258H374.921V29.112H351.469V25.258ZM356.184 11.933V14.967H369.878V11.933H356.184ZM352.207 8.407H374.101V18.493H352.207V8.407ZM360.817 27.636H365.204V39.649H360.817V27.636ZM337.734 8.858H351.346V13.368H337.734V8.858ZM342.859 1.191H347.287V39.69H342.859V1.191ZM342.531 12.22L345.073 13.368C343.925 19.723 341.588 27.636 338.923 31.941C338.472 30.465 337.365 28.21 336.627 26.898C339.128 23.495 341.465 17.017 342.531 12.22ZM347.164 15.049C348.107 16.197 351.428 21.404 352.166 22.634L349.296 25.914C348.394 23.495 346.139 18.821 344.991 16.771L347.164 15.049ZM380.989 4.512L383.531 1.191C385.663 1.929 388.492 3.282 389.927 4.348L387.262 8.038C385.909 6.931 383.121 5.414 380.989 4.512ZM377.996 11.482L380.497 8.161C382.547 8.899 385.417 10.211 386.893 11.236L384.269 14.885C382.916 13.86 380.087 12.343 377.996 11.482ZM378.98 23.167C381.235 21.24 384.515 17.96 387.303 14.803L389.927 18.083C387.59 20.953 384.966 24.028 382.383 26.857L378.98 23.167ZM378.693 28.21H416.167V32.597H378.693V28.21ZM394.601 25.75H399.685V39.69H394.601V25.75ZM394.314 0.985999L398.947 2.421C396.733 7.054 393.166 11.769 389.886 14.721C389.025 13.86 387.098 12.302 385.991 11.605C389.312 9.063 392.51 5.004 394.314 0.985999ZM392.756 20.994H415.265V24.848H392.756V20.994ZM393.453 11.031H413.01V14.024H393.453V11.031ZM393.453 15.951H413.01V18.985H393.453V15.951ZM401.653 7.177H406.327V23.29H401.653V7.177ZM400.587 2.544L405.343 1.273C406.081 2.79 406.983 4.84 407.434 6.152L402.432 7.587C402.104 6.275 401.284 4.102 400.587 2.544ZM395.995 5.414H414.691V9.063H395.995V26.406H391.198V7.915L393.74 5.414H395.995ZM13.694 68.883H38.827V72.532H13.694V68.883ZM15.457 80.281H37.064V83.766H15.457V80.281ZM13.817 85.816H38.376V89.547H13.817V85.816ZM22.837 60.232H27.47V92.335H22.837V60.232ZM15.908 63.225H36.572V78.313H15.703V74.582H32.267V66.956H15.908V63.225ZM2.296 62.446H11.603V66.71H2.296V62.446ZM5.74 74.131H11.562V78.395H5.576L5.74 74.131ZM9.84 74.131H10.701L11.521 74.049L14.268 74.664C13.202 86.923 9.922 94.713 4.551 98.69C3.813 97.788 2.009 96.107 0.984 95.492C6.191 91.966 9.02 85.365 9.84 74.992V74.131ZM5.863 80.773C9.061 91.679 16.359 93.483 26.035 93.483C28.372 93.483 36.9 93.483 39.77 93.401C39.073 94.426 38.253 96.558 38.007 97.87H25.912C14.186 97.87 6.273 95.41 2.296 82.003L5.863 80.773ZM3.69 80.24C3.362 79.338 2.419 77.452 1.804 76.468C2.624 76.222 3.813 75.115 4.674 73.721C5.535 72.409 8.241 67.448 9.799 62.733V62.487L11.521 61.79L14.473 63.799C12.259 69.129 9.43 74.295 6.97 77.862V77.903C6.97 77.903 3.69 79.379 3.69 80.24ZM62.156 60.191L66.584 61.052C65.108 67.858 62.402 74.377 59.081 78.477C58.302 77.739 56.375 76.345 55.35 75.73C58.63 72.122 60.926 66.259 62.156 60.191ZM75.932 66.587H80.565C80.565 66.587 80.524 68.186 80.483 68.801C79.704 87.21 78.966 93.934 77.408 95.984C76.465 97.378 75.563 97.87 74.21 98.116C73.062 98.362 71.34 98.362 69.536 98.28C69.413 96.886 68.921 94.795 68.183 93.442C69.7 93.606 71.094 93.647 71.873 93.647C72.488 93.647 72.857 93.442 73.349 92.868C74.497 91.433 75.276 85.078 75.932 67.653V66.587ZM63.386 66.587H78.023V71.138H61.131L63.386 66.587ZM66.256 68.063L69.823 69.826C68.183 76.878 64.575 84.996 60.106 89.178C59.163 88.235 57.605 87.087 56.334 86.39C61.09 82.659 64.698 74.951 66.256 68.063ZM71.955 68.514L75.768 70.277C73.8 80.937 69.454 92.089 62.689 97.747C61.746 96.763 60.024 95.533 58.671 94.877C65.846 89.752 70.069 79.051 71.955 68.514ZM42.066 82.536C46.084 81.634 52.07 79.953 57.728 78.354L58.384 82.7C53.218 84.299 47.601 85.98 43.255 87.251L42.066 82.536ZM49.446 60.191H53.956V98.69H49.446V60.191ZM44.034 62.528L48.134 63.225C47.601 68.637 46.617 74.377 45.141 78.026C44.403 77.452 42.64 76.304 41.656 75.812C42.968 72.532 43.665 67.407 44.034 62.528ZM45.141 68.104H57.359V72.819H44.239L45.141 68.104ZM90.487 67.612H119.023V72.409H90.487V67.612ZM88.806 79.707H117.465V84.422H88.806V79.707ZM84.05 92.704H121.114V97.501H84.05V92.704ZM99.999 60.191H105.124V95.082H99.999V60.191ZM90.528 60.683L95.612 61.831C93.808 68.186 90.815 74.5 87.617 78.436C86.633 77.575 84.46 76.14 83.189 75.443C86.428 71.999 89.052 66.341 90.528 60.683ZM129.847 74.418H162.073V78.395H129.847V74.418ZM127.797 63.471H160.925V67.325H127.797V63.471ZM136.653 81.675H159.941V85.488H136.653V81.675ZM136.202 87.62H158.752V91.351H136.202V87.62ZM132.471 93.729H162.729V97.706H132.471V93.729ZM144.935 79.133H149.773V96.476H144.935V79.133ZM127.387 74.418H132.184V81.839C132.184 86.964 131.405 94.467 127.551 99.141C126.813 98.28 124.763 96.558 123.738 95.984C127.059 91.884 127.387 86.062 127.387 81.757V74.418ZM136.694 78.723L140.835 79.994C139.318 84.135 136.817 88.358 133.865 90.941C133.537 89.998 132.389 87.497 131.651 86.431C133.783 84.545 135.628 81.716 136.694 78.723ZM132.553 69.088L135.71 66.71C143.131 68.186 152.602 70.687 158.342 72.532L155.267 75.115C149.855 73.188 140.261 70.564 132.553 69.088ZM153.668 66.546L156.907 68.555C150.716 71.548 141.081 73.844 133.619 75.197C132.963 74.418 131.692 73.188 130.913 72.532C138.662 71.384 148.625 69.088 153.668 66.546ZM140.589 61.298L143.869 59.699C145.099 61.134 146.534 63.102 147.149 64.455L143.623 66.259C143.09 64.906 141.778 62.815 140.589 61.298ZM168.387 61.339H173.348V73.721C173.348 80.896 172.774 91.761 169.166 98.69C168.223 97.911 165.968 96.722 164.697 96.271C168.141 89.834 168.387 80.363 168.387 73.762V61.339ZM172.241 61.339H201.023V71.015H172.241V67.284H196.103V65.07H172.241V61.339ZM188.395 87.784H198.522V90.449H188.395V87.784ZM186.181 73.27H202.212V76.345H186.181V73.27ZM197.579 87.784H198.358L199.137 87.661L201.638 88.645C198.645 94.877 191.88 97.542 183.762 98.731C183.434 97.747 182.614 96.271 181.917 95.451C189.051 94.754 195.242 92.581 197.579 88.235V87.784ZM185.156 87.005C188.231 91.72 194.955 94.385 203.524 95.246C202.704 96.025 201.761 97.583 201.269 98.608C192.208 97.378 185.525 94.016 181.794 87.989L185.156 87.005ZM188.518 85.857L192.249 86.923C190.24 89.834 186.755 92.376 183.516 94.016C182.86 93.319 181.425 91.966 180.605 91.351C183.762 90.08 186.878 88.071 188.518 85.857ZM188.395 83.069V84.463H196.636V83.069H188.395ZM188.395 79.748V81.06H196.636V79.748H188.395ZM184.459 77.616H200.777V86.595H184.459V77.616ZM186.345 70.974L190.076 72.245C188.518 75.607 185.894 79.256 183.27 81.47C182.901 80.609 181.835 78.477 181.138 77.534C183.188 75.935 185.197 73.475 186.345 70.974ZM179.293 77.821L183.065 79.256C180.974 82.864 177.53 86.595 174.25 88.85C173.963 87.948 172.856 85.652 172.241 84.627C174.865 82.987 177.653 80.486 179.293 77.821ZM175.849 84.668L178.678 81.798L180.113 82.249V98.649H175.849V84.668ZM178.924 71.343L182.696 72.614C181.056 75.033 178.391 77.616 176.054 79.174C175.48 78.395 174.127 76.755 173.307 76.017C175.439 74.869 177.612 73.147 178.924 71.343ZM212.339 61.667H243.991V66.095H212.339V61.667ZM212.79 93.606H244.073V97.665H212.79V93.606ZM228.985 86.39H240.547V90.162H228.985V86.39ZM209.1 61.667H213.733V74.336C213.733 81.347 213.241 91.843 209.92 98.608C209.018 97.911 206.968 96.763 205.779 96.353C208.854 90.039 209.1 80.814 209.1 74.336V61.667ZM226.402 83.028H231.158V95.902H226.402V83.028ZM217.218 85.898H221.933V95.943H217.218V85.898ZM214.553 72.409H227.304V75.812H214.553V72.409ZM219.022 68.186H223.04V83.274H219.022V68.186ZM218.53 73.926L221.195 74.91C219.883 78.067 217.464 81.47 215.045 83.315C214.471 82.372 213.282 81.06 212.421 80.363C214.758 79.051 217.218 76.386 218.53 73.926ZM228.329 72.409H243.048V75.812H228.329V72.409ZM233.126 68.186H237.226V83.274H233.126V68.186ZM232.142 73.885L234.848 74.828C233.618 78.026 231.281 81.47 228.862 83.315C228.247 82.372 227.058 81.019 226.197 80.322C228.534 78.969 230.953 76.345 232.142 73.885ZM222.876 75.443C223.819 75.935 226.607 77.698 227.345 78.272L225.008 81.224C224.065 80.199 221.728 78.067 220.58 77.165L222.876 75.443ZM224.065 66.341L227.099 68.801C223.901 70.031 219.186 70.646 215.25 70.851C215.045 70.072 214.594 68.842 214.184 68.063C217.792 67.817 221.851 67.202 224.065 66.341ZM238.866 66.136L241.9 68.596C238.374 69.908 233.167 70.564 228.78 70.769C228.657 70.031 228.165 68.719 227.755 68.022C231.773 67.694 236.406 67.079 238.866 66.136ZM237.349 75.525C238.743 76.304 243.253 79.297 244.36 80.117L242.187 83.274C240.629 81.757 236.898 78.764 235.217 77.534L237.349 75.525ZM277.165 70.687H303.733V73.844H277.165V70.687ZM284.504 77.985V80.035H295.943V77.985H284.504ZM280.158 75.279H300.494V82.782H280.158V75.279ZM295.164 63.963V66.587H297.747V63.963H295.164ZM288.932 63.963V66.587H291.433V63.963H288.932ZM282.741 63.963V66.587H285.201V63.963H282.741ZM278.764 61.257H301.929V69.293H278.764V61.257ZM300.084 82.126L303.118 84.422C301.396 85.816 299.264 87.087 297.706 87.948L295.123 85.857C296.64 84.955 298.813 83.274 300.084 82.126ZM289.26 80.773L292.253 82.208C289.096 85.078 283.52 87.866 279.133 89.26C278.6 88.44 277.534 87.128 276.755 86.431C281.06 85.324 286.472 83.069 289.26 80.773ZM283.069 94.098L282.7 90.777L284.258 89.506L292.786 87.087C292.868 88.112 293.114 89.67 293.319 90.531C285.242 93.032 283.889 93.524 283.069 94.098ZM289.916 85.529L292.868 83.438C296.025 85.447 300.617 88.44 302.995 90.285L299.879 92.745C297.665 90.859 293.155 87.702 289.916 85.529ZM283.069 94.098C282.905 93.237 282.29 91.679 281.798 91.023C282.454 90.777 283.192 90.244 283.192 88.727V85.078H287.087V91.31C287.087 91.31 283.069 92.909 283.069 94.098ZM267.284 62.364L270.974 60.191C272.819 62.159 274.992 64.742 276.099 66.423L272.245 69.047C271.22 67.284 269.006 64.414 267.284 62.364ZM266.218 69.744H274.213V73.68H266.218V69.744ZM274.5 87.579C276.673 93.114 281.511 93.77 289.014 93.811C293.442 93.811 300.207 93.565 304.881 93.114C304.184 94.098 303.569 96.312 303.323 97.624C299.018 97.911 293.729 97.993 288.932 97.993C279.338 97.993 274.254 96.763 271.22 88.891L274.5 87.579ZM272.614 79.707H274.09L274.869 79.625L276.919 80.445C275.771 89.342 272.901 95.533 268.719 98.772C268.063 97.87 266.464 96.189 265.521 95.533C269.375 92.745 271.794 87.538 272.614 80.445V79.707ZM267.243 84.176V80.65L269.006 79.707H274.992V83.52H269.785C268.801 83.52 267.612 83.807 267.243 84.176ZM267.243 84.176C266.997 83.151 266.136 81.06 265.685 80.24C266.341 80.035 266.997 79.707 267.653 78.887C268.719 77.739 271.917 72.368 273.106 70.072V69.99L274.295 69.457L277.288 70.605C275.648 73.475 272.532 78.846 270.482 81.47C270.482 81.47 267.243 83.069 267.243 84.176ZM324.069 60.314L328.907 61.421C327.185 67.899 324.274 74.336 320.994 78.395C320.133 77.534 318.165 75.935 317.058 75.197C320.174 71.671 322.675 66.013 324.069 60.314ZM322.921 78.559L327.677 79.543C326.529 84.75 324.397 89.998 322.101 93.319C321.158 92.54 319.067 91.269 317.919 90.654C320.215 87.784 321.978 83.11 322.921 78.559ZM324.971 67.53H341.781V72.081H323.126L324.971 67.53ZM329.686 69.539H334.565V93.196C334.565 95.574 334.155 96.927 332.679 97.747C331.244 98.526 329.235 98.731 326.611 98.731C326.365 97.296 325.627 95.123 324.93 93.77C326.652 93.852 328.374 93.811 328.948 93.811C329.481 93.811 329.686 93.688 329.686 93.155V69.539ZM336 79.625L340.428 78.149C342.56 82.372 344.323 87.825 344.897 91.556L340.182 93.196C339.731 89.506 338.009 83.848 336 79.625ZM340.469 67.53H341.125L341.904 67.407L345.348 68.022C344.856 71.384 344.118 75.197 343.585 77.657L339.362 76.919C339.731 74.705 340.182 71.056 340.469 68.186V67.53ZM315.295 60.355L319.928 61.79C317.263 68.801 312.999 76.181 308.53 80.855C308.079 79.666 306.767 76.96 305.906 75.771C309.637 72.04 313.204 66.218 315.295 60.355ZM311.318 71.671L315.992 66.997L316.033 67.038V98.649H311.318V71.671ZM370.727 89.916H381.961V94.508H370.727V89.916ZM368.513 63.717H384.257V96.927H379.255V68.35H373.269V97.501H368.513V63.717ZM355.721 67.571H360.682V75.484C360.682 82.454 359.206 92.581 350.965 98.567C350.35 97.542 348.464 95.574 347.48 94.877C354.983 89.465 355.721 81.429 355.721 75.402V67.571ZM352.359 65.398H366.422V69.949H352.359V65.398ZM348.095 76.427H367.447V81.101H348.095V76.427ZM359.452 82.208C361.133 83.684 366.545 89.875 367.816 91.392L364.495 95.533C362.568 92.499 358.55 87.415 356.459 84.996L359.452 82.208ZM351.908 60.191L356.623 61.134C355.557 66.546 353.589 71.958 351.252 75.402C350.391 74.623 348.382 73.229 347.316 72.573C349.53 69.621 351.088 64.906 351.908 60.191ZM406.93 83.807H421.444V87.292H406.93V83.807ZM402.789 62.979H425.79V66.505H402.789V62.979ZM404.224 68.145H424.478V71.466H404.224V68.145ZM401.846 73.188H427.102V76.714H401.846V73.188ZM406.93 89.137H421.485V92.54H406.93V89.137ZM420.214 78.313H424.847V94.016C424.847 96.148 424.478 97.337 422.961 97.993C421.526 98.69 419.476 98.731 416.647 98.731C416.442 97.501 415.868 95.697 415.294 94.549C416.975 94.631 418.943 94.631 419.476 94.59C420.009 94.59 420.214 94.426 420.214 93.934V78.313ZM411.85 60.191H416.729V74.336H411.85V60.191ZM394.712 60.109H399.263V98.608H394.712V60.109ZM390.489 68.309L394.22 68.842C393.974 72.368 393.236 77.247 392.293 80.445L388.398 79.051C389.382 76.263 390.161 71.712 390.489 68.309ZM398.197 67.038L401.395 65.603C402.42 67.653 403.691 70.4 404.224 71.999L400.862 73.721C400.37 72.04 399.181 69.17 398.197 67.038ZM404.019 78.313H408.611V85.857C408.611 89.998 407.996 95.574 404.962 99.1C404.306 98.198 402.379 96.394 401.436 95.779C403.814 92.909 404.019 88.932 404.019 85.734V78.313ZM406.684 78.313H422.715V81.757H406.684V78.313ZM443.133 62.938H451.128V66.505H443.133V62.938ZM459 62.938H468.307V66.505H459V62.938ZM449.652 60.191H453.875V68.063H449.652V60.191ZM456.909 60.191H461.173V68.022H456.909V60.191ZM459.738 71.753V74.008H462.895V71.753H459.738ZM456.171 68.76H466.585V77.001H456.171V68.76ZM447.889 71.753V74.008H450.923V71.753H447.889ZM444.404 68.76H454.613V77.001H444.404V68.76ZM448.012 84.34H465.642V87.497H448.012V84.34ZM448.012 89.096H465.642V92.253H448.012V89.096ZM447.602 93.893H468.02V97.378H447.602V93.893ZM454.326 81.634H458.59V96.476H454.326V81.634ZM449.816 79.666H467.077V82.741H449.816V98.69H445.47V81.593L447.315 79.666H449.816ZM447.766 76.222L451.661 77.575C449.816 81.552 446.905 85.652 443.953 88.194C443.584 87.292 442.395 85.078 441.698 84.135C444.076 82.167 446.413 79.256 447.766 76.222ZM453.67 78.108L457.852 77.001C458.426 78.436 459.082 80.363 459.328 81.634L455.023 82.946C454.777 81.675 454.162 79.584 453.67 78.108ZM430.423 67.858H443.502V72.368H430.423V67.858ZM435.384 60.191H439.648V98.69H435.384V60.191ZM435.056 71.22L437.516 72.368C436.409 78.723 434.154 86.636 431.612 90.941C431.12 89.465 430.095 87.21 429.398 85.898C431.817 82.495 434.072 76.017 435.056 71.22ZM439.525 74.049C440.345 74.992 443.297 79.092 443.953 80.117L441.329 83.438C440.509 81.429 438.459 77.411 437.434 75.73L439.525 74.049Z" fill="black"/></svg>