<svg width="360" height="114" fill="none" xmlns="http://www.w3.org/2000/svg"><path d="M0.712002 4.998H42.448V10.262H0.712002V4.998ZM11.005 25.208H32.061V29.579H11.005V25.208ZM10.018 32.681H33.095V37.193H10.018V32.681ZM18.713 27.323H24.071V43.867H18.713V27.323ZM2.451 13.787H36.479V18.957H8.138V45.136H2.451V13.787ZM34.881 13.787H40.709V39.496C40.709 42.222 40.051 43.491 38.124 44.29C36.244 45.089 33.471 45.136 29.664 45.136C29.382 43.679 28.536 41.611 27.784 40.342C30.087 40.483 33.048 40.483 33.8 40.436C34.646 40.389 34.881 40.154 34.881 39.449V13.787ZM12.791 20.226L17.303 18.91C18.384 20.414 19.465 22.576 19.982 23.986L15.282 25.584C14.859 24.08 13.778 21.871 12.791 20.226ZM26.045 19.004L30.839 20.32C29.57 22.576 28.301 24.785 27.22 26.289L23.225 25.114C24.212 23.375 25.434 20.79 26.045 19.004ZM18.525 1.379H24.729V17.406H18.525V1.379ZM59.368 5.468H64.867V45.183H59.368V5.468ZM52.224 14.304H71.071V19.568H52.224V14.304ZM59.697 16.419L62.987 17.876C61.201 24.597 57.864 32.963 54.245 37.616C53.728 35.971 52.506 33.621 51.613 32.211C54.903 28.451 58.193 21.636 59.697 16.419ZM67.781 1.52L70.93 6.126C66.042 7.912 59.603 9.087 54.104 9.745C53.869 8.476 53.164 6.596 52.6 5.374C57.958 4.575 63.88 3.118 67.781 1.52ZM64.726 19.803C65.901 20.931 70.037 25.631 70.977 26.806L67.687 31.224C66.606 28.827 63.692 24.08 62.282 22.059L64.726 19.803ZM85.406 1.05H90.952V45.183H85.406V1.05ZM70.272 31.365L95.652 26.994L96.498 32.305L71.118 36.77L70.272 31.365ZM73.327 7.113L76.993 3.917C79.578 5.844 82.821 8.664 84.278 10.685L80.33 14.21C79.014 12.189 75.912 9.181 73.327 7.113ZM71.588 19.474L75.16 16.231C77.886 18.158 81.364 21.025 82.962 23.093L79.108 26.712C77.604 24.644 74.314 21.542 71.588 19.474ZM108.953 5.609H144.767V11.343H108.953V5.609ZM112.196 20.743H141.007V26.43H112.196V20.743ZM106.274 36.629H147.258V42.41H106.274V36.629ZM184.858 3.212H197.031V8.288H184.858V3.212ZM184.858 13.834H197.031V18.769H184.858V13.834ZM184.858 24.55H197.078V29.579H184.858V24.55ZM194.587 3.212H200.039V39.026C200.039 41.752 199.522 43.303 197.83 44.149C196.185 45.042 193.788 45.183 190.263 45.183C190.122 43.679 189.37 41.235 188.665 39.825C190.686 39.919 192.989 39.919 193.647 39.872C194.352 39.872 194.587 39.637 194.587 38.932V3.212ZM182.555 3.212H187.819V20.461C187.819 27.887 187.208 38.65 183.213 45.324C182.273 44.337 179.97 42.692 178.748 42.128C182.273 36.112 182.555 27.182 182.555 20.461V3.212ZM157.927 6.643H180.957V11.531H157.927V6.643ZM164.084 14.304H175.27V18.628H164.084V14.304ZM164.084 21.636H175.317V25.913H164.084V21.636ZM157.363 29.062H180.628V33.997H157.363V29.062ZM161.64 1.614H166.716V30.848H161.64V1.614ZM172.591 1.614H177.761V30.848H172.591V1.614ZM163.238 34.326L168.549 35.877C166.81 39.355 164.037 43.021 161.546 45.324C160.465 44.384 158.303 42.786 156.987 42.034C159.525 40.107 161.922 37.193 163.238 34.326ZM170.194 36.441L174.471 34.091C176.351 36.159 178.748 39.026 179.829 40.953L175.27 43.632C174.33 41.752 172.074 38.65 170.194 36.441ZM210.05 29.25H254.23V34.42H210.05V29.25ZM211.977 3.635H252.35V8.805H211.977V3.635ZM219.356 20.649H245.3V25.443H219.356V20.649ZM243.232 11.907H248.825V39.12C248.825 41.987 248.214 43.491 246.24 44.384C244.313 45.23 241.54 45.324 237.545 45.324C237.263 43.82 236.37 41.376 235.571 40.013C238.156 40.154 241.258 40.107 242.057 40.06C242.903 40.06 243.232 39.825 243.232 39.073V11.907ZM215.408 11.907H245.441V16.983H221.001V45.277H215.408V11.907ZM229.085 5.186H234.772V31.036H229.085V5.186ZM262.22 24.926C266.027 24.08 271.761 22.529 277.166 20.978L277.871 26.054C272.936 27.558 267.672 29.109 263.442 30.378L262.22 24.926ZM262.925 10.027H277.73V15.197H262.925V10.027ZM268.236 1.144H273.547V38.65C273.547 41.329 273.124 42.833 271.62 43.726C270.21 44.666 268.142 44.854 265.181 44.854C264.993 43.397 264.382 40.953 263.677 39.402C265.322 39.449 266.92 39.449 267.484 39.449C268.048 39.449 268.236 39.261 268.236 38.603V1.144ZM290.326 1.943L295.684 0.720998C296.295 2.084 297 3.917 297.282 5.139L291.689 6.549C291.454 5.327 290.843 3.4 290.326 1.943ZM292.394 26.994H297.235V35.736H292.394V26.994ZM284.639 11.249H306.024V14.351H284.639V11.249ZM282.336 20.273H306.823V23.939H282.336V20.273ZM287.365 9.275H291.971V15.996H297.846V9.275H302.687V19.004H287.365V9.275ZM288.822 32.963V34.749H301.089V32.963H288.822ZM288.822 28.357V30.096H301.089V28.357H288.822ZM284.639 25.208H305.46V37.898H284.639V25.208ZM296.248 41L298.551 37.851C301.512 39.167 304.896 40.859 306.917 41.987L304.191 45.371C302.264 44.196 299.021 42.363 296.248 41ZM281.866 4.34H306.588V8.429H281.866V4.34ZM278.858 4.34H283.793V22.294C283.793 29.391 282.994 39.449 278.294 45.465C277.589 44.525 275.568 42.692 274.534 42.034C278.576 36.629 278.858 28.592 278.858 22.247V4.34ZM290.091 37.804L293.663 40.953C290.749 42.504 287.083 44.149 284.451 45.324C283.887 44.337 282.853 42.833 282.054 41.893C284.498 40.812 288.023 39.073 290.091 37.804ZM329.618 11.061H358.429V15.244H329.618V11.061ZM331.639 24.127H356.408V28.122H331.639V24.127ZM329.759 30.472H357.912V34.749H329.759V30.472ZM340.099 1.144H345.41V37.945H340.099V1.144ZM332.156 4.575H355.844V21.871H331.921V17.594H350.909V8.852H332.156V4.575ZM316.552 3.682H327.221V8.57H316.552V3.682ZM320.5 17.077H327.174V21.965H320.312L320.5 17.077ZM325.2 17.077H326.187L327.127 16.983L330.276 17.688C329.054 31.741 325.294 40.671 319.137 45.23C318.291 44.196 316.223 42.269 315.048 41.564C321.017 37.522 324.26 29.955 325.2 18.064V17.077ZM320.641 24.691C324.307 37.193 332.673 39.261 343.765 39.261C346.444 39.261 356.22 39.261 359.51 39.167C358.711 40.342 357.771 42.786 357.489 44.29H343.624C330.182 44.29 321.111 41.47 316.552 26.101L320.641 24.691ZM318.15 24.08C317.774 23.046 316.693 20.884 315.988 19.756C316.928 19.474 318.291 18.205 319.278 16.607C320.265 15.103 323.367 9.416 325.153 4.011V3.729L327.127 2.93L330.511 5.233C327.973 11.343 324.73 17.265 321.91 21.354V21.401C321.91 21.401 318.15 23.093 318.15 24.08ZM25.3865 71.494H30.8385V96.263C30.8385 98.378 31.1205 98.707 33.0475 98.707C33.8935 98.707 37.7005 98.707 38.7345 98.707C40.3324 98.707 40.6615 97.814 40.8965 93.49C42.0715 94.383 44.2805 95.276 45.7845 95.605C45.1735 101.762 43.6695 103.783 39.2045 103.783C37.9825 103.783 33.3764 103.783 32.2015 103.783C26.9845 103.783 25.3865 102.232 25.3865 96.31V71.494ZM27.6895 71.494H43.4815V89.166H27.6895V84.184H37.9825V76.476H27.6895V71.494ZM3.57845 73.75H22.8485V78.685H3.57845V73.75ZM2.26245 83.009H24.0234V87.991H2.26245V83.009ZM14.5294 93.067H23.6005V97.955H14.5294V93.067ZM10.5814 69.238H15.8925V85.688H10.5814V69.238ZM11.7564 86.205H16.9264V107.12H11.7564V86.205ZM8.27845 95.323C10.7695 105.193 16.0804 106.65 25.9974 106.65C29.6165 106.697 42.1655 106.697 46.4425 106.462C45.5495 107.731 44.6095 110.363 44.2334 112.055H25.9974C13.5894 112.055 7.47945 109.705 4.23645 96.498L8.27845 95.323ZM3.90745 90.717L9.07745 91.093C8.84245 100.07 8.13745 108.436 5.74045 113.841C4.75345 113.183 2.26245 111.961 0.993449 111.444C3.34345 106.697 3.81345 98.848 3.90745 90.717ZM49.4034 87.803H92.3145V91.892H49.4034V87.803ZM53.2574 99.271H88.4134V103.36H53.2574V99.271ZM50.2964 105.052H91.4215V109.282H50.2964V105.052ZM55.0434 82.257H87.4265V97.626H54.5734V93.678H81.5985V86.205H55.0434V82.257ZM67.7805 80.048H73.5615V113.23H67.7805V80.048ZM55.5134 71.635H70.2715V75.865H55.5134V71.635ZM74.8305 71.635H92.5965V75.865H74.8305V71.635ZM55.7954 68.674L60.7305 70.178C58.7564 74.173 55.5134 78.215 52.4584 80.753C51.7064 79.766 49.8264 77.792 48.7454 76.852C51.5654 74.878 54.2444 71.776 55.7954 68.674ZM75.0655 68.674L80.1885 70.037C78.5435 73.985 75.6765 77.98 72.8565 80.424C71.9164 79.531 69.8485 77.839 68.6735 77.04C71.3995 75.019 73.7495 71.87 75.0655 68.674ZM58.4745 77.51L62.0465 74.784C63.5034 76.1 65.3834 78.027 66.2294 79.296L62.4695 82.304C61.6704 80.988 59.8845 78.92 58.4745 77.51ZM78.9665 77.275L82.8675 74.69C84.3245 76.006 86.2045 77.886 87.0974 79.155L83.0085 82.069C82.2565 80.706 80.4705 78.685 78.9665 77.275ZM108.999 109.658C104.299 109.658 99.6934 107.872 96.3094 104.629L100.304 99.835C102.748 102.138 106.085 103.642 109.14 103.642C112.759 103.642 114.639 102.091 114.639 99.694C114.639 97.109 112.524 96.263 109.422 94.947L104.769 92.973C101.291 91.563 97.7194 88.696 97.7194 83.667C97.7194 77.98 102.748 73.609 109.751 73.609C113.793 73.609 117.835 75.207 120.655 78.074L117.177 82.445C114.921 80.612 112.618 79.578 109.751 79.578C106.696 79.578 104.769 80.941 104.769 83.197C104.769 85.688 107.26 86.628 110.221 87.803L114.78 89.683C118.963 91.422 121.736 94.148 121.736 99.13C121.736 104.817 116.989 109.658 108.999 109.658ZM138.329 88.179H148.998V91.845H138.329V88.179ZM153.51 79.672H164.602V84.137H158.445V113.324H153.51V79.672ZM137.765 81.787H151.207V98.331H137.765V94.383H146.272V85.782H137.765V81.787ZM143.64 100.446L147.917 98.848C149.656 102.185 151.865 106.697 152.852 109.423L148.293 111.444C147.4 108.624 145.332 103.924 143.64 100.446ZM131.42 72.763H168.785V77.604H131.42V72.763ZM128.177 72.763H133.441V87.051C133.441 94.618 132.83 106.18 129.164 113.465C128.224 112.478 125.921 110.739 124.746 110.175C127.942 103.548 128.177 93.913 128.177 87.098V72.763ZM163.145 79.672H164.038L164.79 79.484L168.409 81.317C167.187 84.748 165.73 88.696 164.367 91.845C167.234 95.229 167.892 98.237 167.892 100.728C167.892 103.595 167.328 105.522 165.824 106.603C165.072 107.167 164.179 107.496 163.192 107.637C162.346 107.731 161.124 107.778 159.996 107.731C159.996 106.415 159.526 104.394 158.774 103.125C159.62 103.219 160.372 103.219 160.936 103.172C161.453 103.172 161.923 103.078 162.252 102.843C162.816 102.467 163.004 101.527 163.004 100.258C163.004 98.237 162.393 95.511 159.667 92.409C161.03 88.743 162.393 83.714 163.145 80.988V79.672ZM146.037 69.849L151.395 68.627C152.241 70.46 153.181 72.857 153.651 74.408L148.011 75.912C147.682 74.267 146.789 71.729 146.037 69.849ZM135.509 112.478L134.945 108.248L136.778 106.697L148.387 102.937C148.481 104.3 148.857 106.227 149.139 107.308C138.376 111.021 136.59 111.679 135.509 112.478ZM140.444 78.826L145.191 77.745C146.037 79.531 146.883 81.881 147.306 83.338L142.371 84.701C142.042 83.103 141.149 80.659 140.444 78.826ZM135.509 112.478C135.039 111.397 133.723 109.517 132.877 108.765C133.911 107.966 135.321 106.321 135.321 103.877V81.787H140.397V106.838C140.397 106.838 135.509 110.598 135.509 112.478ZM185.329 74.69H215.456V79.249H185.329V74.69ZM197.079 76.758L203.565 77.181C202.578 79.719 201.168 82.21 200.181 83.902L195.575 83.197C196.186 81.223 196.797 78.638 197.079 76.758ZM205.257 69.05L210.709 70.554C209.111 72.904 207.56 75.207 206.244 76.758L201.826 75.348C203.048 73.609 204.505 70.977 205.257 69.05ZM189.371 70.977L193.836 69.191C194.87 70.648 196.233 72.669 196.844 73.938L192.191 75.959C191.674 74.643 190.405 72.528 189.371 70.977ZM194.212 91.704V94.289H206.244V91.704H194.212ZM194.212 97.861V100.446H206.244V97.861H194.212ZM194.212 85.594V88.132H206.244V85.594H194.212ZM188.901 81.599H211.79V104.441H188.901V81.599ZM173.814 71.682L177.997 69.097C180.253 71.306 182.885 74.267 184.295 76.147L179.971 79.296C178.702 77.275 175.976 73.985 173.814 71.682ZM172.639 80.048H182.603V84.56H172.639V80.048ZM182.18 100.493C184.718 106.838 190.217 107.59 198.724 107.637C203.753 107.637 211.508 107.308 216.819 106.838C216.067 107.966 215.315 110.504 215.033 112.055C210.145 112.337 204.129 112.478 198.63 112.478C187.726 112.478 181.898 111.021 178.42 101.997L182.18 100.493ZM181.052 91.469H182.368L183.261 91.375L185.987 92.362C184.389 102.749 180.535 109.705 175.036 113.277C174.331 112.196 172.498 110.269 171.464 109.517C176.54 106.462 179.877 100.587 181.052 92.315V91.469ZM173.532 96.592V92.55L175.553 91.469H182.65L182.603 95.84H176.399C175.271 95.84 173.908 96.169 173.532 96.592ZM173.532 96.592C173.203 95.417 172.216 93.02 171.699 91.986C172.498 91.798 173.25 91.469 174.143 90.482C175.553 89.166 179.783 83.15 181.381 80.565V80.424L182.838 79.813L186.269 81.364C184.06 84.607 179.971 90.435 177.292 93.49C177.292 93.49 173.532 95.323 173.532 96.592ZM245.771 84.654H263.114V89.871H245.771V84.654ZM220.156 73.75H241.306V78.356H220.156V73.75ZM219.686 92.456H241.259V97.203H219.686V92.456ZM219.404 84.231H242.058V88.884H219.404V84.231ZM253.244 86.957H258.743V112.995H253.244V86.957ZM222.647 79.249L227.112 78.168C227.817 79.766 228.475 81.881 228.71 83.244L224.057 84.56C223.822 83.15 223.258 80.894 222.647 79.249ZM234.162 78.121L239.285 79.108C238.251 81.599 237.311 84.043 236.418 85.735L231.859 84.748C232.658 82.915 233.645 80.095 234.162 78.121ZM257.944 69.52L262.315 73.656C257.38 75.583 250.894 76.993 245.301 77.839C245.066 76.664 244.267 74.737 243.656 73.562C248.826 72.622 254.513 71.118 257.944 69.52ZM226.783 69.99L232.47 68.627C233.41 70.648 234.538 73.327 234.961 75.066L229.039 76.664C228.663 74.925 227.676 72.105 226.783 69.99ZM243.656 73.562H248.873V90.435C248.873 97.344 248.262 107.073 244.22 113.089C243.327 112.102 241.071 110.363 239.896 109.752C243.374 104.394 243.656 96.545 243.656 90.435V73.562ZM234.961 100.211L238.627 98.143C240.084 100.305 241.682 103.078 242.434 104.864L238.627 107.261C237.875 105.381 236.277 102.373 234.961 100.211ZM223.023 98.707L227.347 99.976C226.172 103.313 224.198 107.214 222.553 109.658C221.754 108.953 219.921 107.684 218.84 107.073C220.485 104.911 222.036 101.621 223.023 98.707ZM228.475 86.816H233.974V112.901H228.475V86.816ZM267.203 87.756H309.315V93.349H267.203V87.756ZM270.728 76.147H305.884V81.74H270.728V76.147ZM285.11 69.097H291.079V113.23H285.11V69.097ZM284.123 90.999L289.011 93.02C284.499 100.493 277.167 107.308 269.741 111.162C268.801 109.752 266.921 107.496 265.605 106.321C272.843 103.172 280.269 97.062 284.123 90.999ZM292.113 91.046C295.92 97.109 303.346 103.219 310.537 106.321C309.221 107.449 307.341 109.752 306.401 111.256C299.116 107.402 291.925 100.446 287.413 93.02L292.113 91.046ZM314.861 74.972H355.751V80.471H314.861V74.972ZM332.016 69.097H337.938V113.23H332.016V69.097ZM332.674 90.341L337.374 92.127C332.768 100.446 325.201 107.637 316.835 111.491C315.942 110.081 314.109 107.778 312.84 106.65C320.971 103.501 328.726 97.109 332.674 90.341ZM337.703 90.717C341.651 97.203 349.359 103.313 357.443 106.274C356.033 107.496 354.2 109.846 353.26 111.444C345.082 107.684 337.656 100.587 333.05 92.55L337.703 90.717ZM320.548 88.649L324.12 85.077C326.235 86.863 329.29 89.448 330.794 91.046L327.081 94.994C325.671 93.302 322.71 90.576 320.548 88.649ZM322.428 80.753L327.927 81.787C326.188 88.649 322.851 94.524 318.48 98.19C317.54 97.156 315.378 95.323 314.109 94.477C318.245 91.469 321.112 86.487 322.428 80.753ZM343.014 88.837L346.68 85.453C349.594 87.662 354.059 90.999 356.221 93.02L352.32 96.921C350.346 94.806 346.022 91.328 343.014 88.837ZM344.612 80.753L350.064 81.74C348.795 87.38 346.21 92.362 343.061 95.511C341.98 94.618 339.583 93.161 338.267 92.55C341.416 89.871 343.625 85.5 344.612 80.753Z" fill="white"/></svg>