<svg xmlns="http://www.w3.org/2000/svg" viewBox="0 0 550 99"><path d="M3.2,36V11.2c0-4.8,2.3-8.4,8-8.4c1.8,0,3.4,0.4,4.4,0.7L14.5,8c-0.8-0.3-1.6-0.5-2.4-0.5c-1.8,0-2.8,1.1-2.8,3.6V36H3.2z
	 M0.1,17.8v-4.5l3.4-0.2h10v4.7H0.1z M17.5,36V13.1h6V36H17.5z M20.4,9.4C18.4,9.4,17,8,17,6c0-2,1.4-3.2,3.5-3.2
	C22.5,2.8,24,4.1,24,6C24,8,22.5,9.4,20.4,9.4z M38.3,36.6c-5.5,0-7.5-3.4-7.5-8.6V17.8h-3.2v-4.5l3.6-0.2l0.7-6.2h5v6.2h5.7v4.7
	h-5.7V28c0,2.6,1.1,3.9,3.1,3.9c0.8,0,1.6-0.3,2.3-0.5l1,4.4C41.9,36.1,40.3,36.6,38.3,36.6z M50.9,36L45,13.1h6l2.5,11.3
	c0.4,2.3,0.7,4.4,1.1,6.7h0.2c0.4-2.3,0.8-4.5,1.4-6.7l2.8-11.3h5.3l2.9,11.3c0.5,2.3,1,4.4,1.5,6.7h0.2c0.4-2.3,0.7-4.4,1.1-6.7
	l2.5-11.3h5.6L72.5,36h-7.1l-2.4-10c-0.5-2.1-0.9-4.2-1.3-6.7h-0.2c-0.4,2.5-0.8,4.6-1.3,6.7l-2.3,10H50.9z M92,36.6
	c-6.4,0-11.4-4.4-11.4-12c0-7.5,5.2-12.1,10.7-12.1c6.4,0,9.6,4.6,9.6,10.9c0,1.1-0.1,2.2-0.2,2.8H86.4c0.5,3.8,3,5.7,6.4,5.7
	c1.8,0,3.5-0.6,5.2-1.6l2,3.7C97.7,35.6,94.8,36.6,92,36.6z M86.3,22.2h9.4c0-3.1-1.4-5.1-4.3-5.1C88.9,17.1,86.8,18.9,86.3,22.2z
	 M111.5,36.6c-4.2,0-5.7-2.7-5.7-7V3.3h6v26.5c0,1.4,0.6,1.9,1.2,1.9c0.2,0,0.4,0,0.8-0.1l0.7,4.5C113.9,36.3,112.9,36.6,111.5,36.6
	z M132.2,1.3l4.4,1.2c-1.9,6.9-5.1,14.4-8.8,19.3c-0.3-1.2-1.5-4.1-2.2-5.3C128.4,12.6,130.7,7,132.2,1.3z M129.7,13.2l4.2-4.2
	l0.1,0v30.7h-4.3V13.2z M151.5,1.5h4.1V34h-4.1V1.5z M145.5,9.6h19.1v3.6h-19.1V9.6z M146,26.3h17.3v3.8H146V26.3z M146.9,20.7h15.4
	v3.7h-15.4V20.7z M136.3,3.8h6.5V8h-6.5V3.8z M138.5,22.5c2.7,10.5,9,12.3,16.6,12.3c1.7,0,7.4,0,9.5-0.1c-0.6,1-1.2,3-1.5,4.2h-8.2
	c-9.5,0-16.4-2.5-19.8-15.3L138.5,22.5z M147.1,4.3h15v14.5h-15v-3.4h11.3V7.6h-11.3V4.3z M138.7,15.8h4.1v3.8h-5.3L138.7,15.8z
	 M142,15.8h0.8l0.7-0.1l2.5,0.6c-1,12.1-4,19.6-9.1,23.4c-0.7-0.9-2.3-2.4-3.2-3c4.9-3.4,7.5-9.7,8.3-20.1V15.8z M136.7,20.9
	c-0.4-0.9-1.4-2.6-1.9-3.4c0.8-0.2,2-1.4,2.7-2.7c0.7-1.3,3.1-6,4.4-10.6V3.9l1.6-0.7l2.7,1.9c-1.8,5-4.3,10-6.5,13.4v0.1
	C139.8,18.7,136.7,20,136.7,20.9z M175.7,15.8h23.8v3.4h-23.8V15.8z M177.4,10.4h24.4v14.4h-24.9v-3.3h20.3v-7.7h-19.8V10.4z
	 M186.7,8h5V35c0,2.5-0.6,3.5-2.2,4.1c-1.7,0.6-4.1,0.7-7.5,0.7c-0.2-1.2-0.9-2.9-1.5-4c2.1,0.1,4.6,0.1,5.2,0.1c0.7,0,1-0.2,1-0.9
	V8z M175.8,26.9l2.6-2.7c1.8,1,4.6,2.6,5.9,3.6l-2.7,3C180.4,29.7,177.8,28,175.8,26.9z M199.9,24.5l3.6,2.9
	c-2.5,1.7-5.5,3.4-7.7,4.5l-2.8-2.5C195.2,28.2,198.2,26,199.9,24.5z M174,33.2c3.3-1.1,8.5-3.1,13.4-5l0.8,3.4
	c-4.3,2-8.8,4.1-12.4,5.7L174,33.2z M172.6,4.4H205v4.3h-32.4V4.4z M170.3,4.4h4.7v11.9c0,6.7-0.6,16.8-4.3,23.2
	c-0.9-0.8-2.9-2.2-4-2.7c3.4-5.9,3.6-14.5,3.6-20.5V4.4z M184.7,2l4.9-1.2c1,1.6,2.1,3.7,2.6,5l-5,1.5C186.7,5.9,185.6,3.6,184.7,2z
	 M199.4,15.4h6v4.2h-6V15.4z M188.9,31.2l2.1-3c4.4,1.7,10.8,4.5,14.1,6.2l-2.3,3.4C199.7,36,193.4,33,188.9,31.2z M220.5,9.9h25.1
	v3.6h-25.1V9.9z M222.3,21.3h21.6v3.5h-21.6V21.3z M220.6,26.8h24.6v3.7h-24.6V26.8z M229.6,1.2h4.6v32.1h-4.6V1.2z M222.7,4.2h20.7
	v15.1h-20.9v-3.7h16.6V8h-16.4V4.2z M209.1,3.4h9.3v4.3h-9.3V3.4z M212.5,15.1h5.8v4.3h-6L212.5,15.1z M216.6,15.1h0.9l0.8-0.1
	l2.7,0.6c-1.1,12.3-4.3,20-9.7,24c-0.7-0.9-2.5-2.6-3.6-3.2c5.2-3.5,8-10.1,8.9-20.5V15.1z M212.7,21.8
	c3.2,10.9,10.5,12.7,20.2,12.7c2.3,0,10.9,0,13.7-0.1c-0.7,1-1.5,3.2-1.8,4.5h-12.1c-11.7,0-19.6-2.5-23.6-15.9L212.7,21.8z
	 M210.5,21.2c-0.3-0.9-1.3-2.8-1.9-3.8c0.8-0.2,2-1.4,2.9-2.7c0.9-1.3,3.6-6.3,5.1-11V3.5l1.7-0.7l3,2c-2.2,5.3-5,10.5-7.5,14.1v0
	C213.8,18.9,210.5,20.4,210.5,21.2z M250.4,12.1h14.4v3.4h-14.4V12.1z M255.5,13.1h4.5v8.5h-4.5V13.1z M250,21.1
	c3.8-0.4,9.3-1,14.7-1.7l0.1,3.7c-5,0.7-10.3,1.4-14.3,1.9L250,21.1z M270,12.8h4.1v3.7c0,3.4-1.1,6.8-6.4,8.9
	c-0.6-0.8-2.3-2.2-3.2-2.8c4.8-1.7,5.5-3.9,5.5-6.2V12.8z M277,11.9h4.6v7.8c0,0.7,0,1.1,0.1,1.2c0.1,0.1,0.2,0.2,0.4,0.2
	s0.5,0,0.7,0c0.2,0,0.4,0,0.5-0.1c0.1-0.1,0.2-0.3,0.3-0.8s0.1-1.6,0.2-2.9c0.7,0.7,2.1,1.3,3.2,1.7c0,1.6-0.3,3.2-0.5,4
	c-0.3,0.7-0.7,1.2-1.4,1.6c-0.5,0.3-1.4,0.5-2.1,0.5c-0.6,0-1.5,0-2,0c-1,0-2.1-0.3-2.8-1c-0.7-0.7-1-1.6-1-4.2V11.9z M249.6,26.5
	H287v3.9h-37.3V26.5z M265.9,24.2h4.8v15.5h-4.8V24.2z M265.4,18.5l1.7-2.8c3.1,1.3,7.7,3.4,10,4.7l-1.7,3.2
	C273.1,22.2,268.6,20,265.4,18.5z M266.2,11.9h12.3v3.2h-12.3V11.9z M254.9,3.4h12.8v3.7h-12.8V3.4z M271.8,3.4h15.5v3.7h-15.5V3.4z
	 M255.1,0.8l4.3,1.3c-1.7,3.5-4.6,7-7.2,9.2c-0.7-0.9-2.3-2.6-3.3-3.4C251.5,6.2,253.8,3.5,255.1,0.8z M272,0.8l4.5,1.2
	c-1.4,3.6-3.9,7.2-6.4,9.4c-0.8-0.8-2.6-2.3-3.6-3C268.8,6.6,270.8,3.7,272,0.8z M257.5,8.3l3.1-2.4c1.3,1.1,2.9,2.8,3.6,3.9
	l-3.3,2.6C260.3,11.4,258.7,9.6,257.5,8.3z M275.4,8.1l3.4-2.3c1.2,1.1,2.7,2.6,3.4,3.6l-3.6,2.5C278,10.9,276.6,9.3,275.4,8.1z
	 M260.1,30.6l4,1.5c-2.5,3.2-6.9,5.9-11.4,7.2c-0.7-1.2-2.2-3-3.2-4C253.7,34.4,257.9,32.7,260.1,30.6z M272.6,33.3l3.3-3
	c3.4,1.4,8.2,3.6,10.7,5.3l-3.6,3.3C280.8,37.3,276.1,34.9,272.6,33.3z M292.3,4.3h34.2v4h-34.2V4.3z M293.8,34.5h31.4v4h-31.4V34.5
	z M300.9,10h16.7v3.4h-16.7V10z M300.9,15.3h16.7v3.4h-16.7V15.3z M290.1,20.5h38.3v4h-38.3V20.5z M299.4,28h19.8v3.9h-19.8V28z
	 M297.9,1.2h5v21.6h-5V1.2z M315.8,1.2h5v21.5h-5V1.2z M306.7,25.4h5v11.4h-5V25.4z M300.5,21.7l4.1,1.5c-2.6,4.3-7.1,8.2-11.7,10.3
	c-0.7-1.1-2.1-2.9-3.1-3.8C294,28.2,298.3,25,300.5,21.7z M318.3,21.7c2.2,3.2,6.4,6.1,10.6,7.6c-1.1,0.9-2.5,2.7-3.2,3.8
	c-4.4-2-8.7-5.9-11.3-10L318.3,21.7z M339.2,13.9h22.1v4.4h-22.1V13.9z M348.1,8.4h4.8c-0.3,11.8-1.2,20.1-11.1,24.6
	c-0.6-1.2-1.9-3.1-3-3.9C347.6,25.4,347.9,18.7,348.1,8.4z M348.1,22.1l3.3-2.5c3.9,3,8.2,7.1,10.3,9.8l-3.4,3
	C356.2,29.6,351.8,25.1,348.1,22.1z M332.7,2.6H368v37.1h-4.8V7h-25.9v32.7h-4.6V2.6z M335.6,33.8h30v4.1h-30V33.8z M1.6,62.9h35.8
	v5H1.6V62.9z M21.4,76.7l3.8-3.2c4.4,3.2,10.7,7.9,13.7,11.2l-4.2,3.8C32,85.2,26,80.2,21.4,76.7z M19.8,64.8l5.5,1.9
	c-4.7,8.7-12.1,17-21.6,21.9c-0.8-1.3-2.3-3.4-3.4-4.5C9.1,80,16.4,72.1,19.8,64.8z M16.8,74.7l5.4-5.4v29.3h-5.4V74.7z M63.6,88.2
	l4.3-2.5c3.7,2.9,8.7,7.1,11.2,10l-4.6,2.9C72.2,95.7,67.3,91.3,63.6,88.2z M53.2,85.8l5.2,2c-3.3,4-8.1,8.3-12.5,10.9
	c-1-1-2.9-2.6-4.1-3.4C46.2,93,50.9,89,53.2,85.8z M51.1,67.9v10.3h18.7V67.9H51.1z M46,63.2h29.1v19.7H46V63.2z M83.4,77.7h36.3V82
	H83.4V77.7z M101.7,85.1h15.3v4.2h-15.3V85.1z M99.4,79.9h5v15.2h-5V79.9z M93.1,86.5c2.3,6,7.5,6.9,14.6,7c2.3,0,10.2,0,13.1-0.1
	c-0.7,1.1-1.4,3.2-1.7,4.7h-11.7c-9.4,0-15-1.7-18.4-10.2L93.1,86.5z M89.5,82.9l4.9,0.7c-1.4,6.8-4.3,11.9-8.9,15.2
	c-0.7-0.9-2.6-2.7-3.7-3.4C86.1,92.7,88.6,88.4,89.5,82.9z M91.9,70.4v2h18.8v-2H91.9z M91.9,65.1v2.1h18.8v-2.1H91.9z M87.2,61.6
	h28.6v14.3H87.2V61.6z M130.5,67.6H159v4.8h-28.5V67.6z M128.8,79.7h28.7v4.7h-28.7V79.7z M124.1,92.7h37.1v4.8h-37.1V92.7z
	 M140,60.2h5.1v34.9H140V60.2z M130.5,60.7l5.1,1.1c-1.8,6.4-4.8,12.7-8,16.6c-1-0.9-3.2-2.3-4.4-3C126.4,72,129.1,66.3,130.5,60.7z
	 M179.1,82h21.5v16.4h-4.7v-12h-12.3v12.1h-4.5V82z M197.3,60.2l3.8,3.9c-6,2.3-14.4,3.6-21.6,4.2c-0.2-1.2-0.9-3.1-1.4-4.2
	C185.1,63.3,192.8,62,197.3,60.2z M187.5,64.8h4.7v19.8h-4.7V64.8z M176.5,72.1h26.2v4.7h-26.2V72.1z M182.3,92.5h15.5V97h-15.5
	V92.5z M166.4,64.2l2.7-3.5c2.3,1.1,5.9,3,7.6,4.1l-2.9,4C172.2,67.6,168.7,65.6,166.4,64.2z M164.4,75.6l2.7-3.6
	c2.3,1.1,6,2.9,7.8,4l-2.7,4.1C170.4,78.9,166.9,76.9,164.4,75.6z M165,94.9c2.2-3.1,5.4-8.2,7.8-12.9l3.6,3.2
	c-2.2,4.3-4.8,9-7.3,13L165,94.9z M213.5,92.9h22.1v4.3h-22.1V92.9z M210.8,83.6h27.8v15h-5V87.9h-17.8v10.9h-4.9V83.6z M206.5,63.5
	h16v4.2h-16V63.5z M205.8,71.9c4.3-0.3,10.7-1,16.9-1.7l0.1,4c-5.9,0.7-12,1.5-16.5,2L205.8,71.9z M212.6,60.2h4.7v18.1
	c0,2.1-0.4,3.1-1.8,3.7c-1.4,0.6-3.2,0.7-5.9,0.7c-0.2-1.1-0.7-2.8-1.3-3.9c1.4,0.1,3.2,0.1,3.6,0c0.5,0,0.7-0.2,0.7-0.6V60.2z
	 M225.7,69.3h17.4v4.1h-17.4V69.3z M233.4,70.6h4.7v12.1h-4.7V70.6z M238.2,60.3l3.8,3.2c-4.6,1.6-11,2.7-16.4,3.3
	c-0.2-1-0.8-2.7-1.3-3.6C229.3,62.6,234.9,61.5,238.2,60.3z M224.3,63.2h4.3v6.7c0,4.8-0.7,9.8-5.4,13.2c-0.7-1-2.4-2.5-3.5-3.2
	c4.1-2.7,4.6-6.5,4.6-10.1V63.2z M246.8,87.3H284v3.9h-37.2V87.3z M254.8,80.2h18v3.5h-18V80.2z M263.5,86.1h4.8v8
	c0,2.2-0.5,3.3-2.2,3.9c-1.7,0.6-3.9,0.6-7,0.6c-0.2-1.3-0.9-3-1.6-4.1c2,0.1,4.4,0.1,5.1,0.1c0.7,0,0.8-0.1,0.8-0.7V86.1z
	 M271.6,80.2h1.2l1-0.2l2.8,2.5c-3.1,2.2-7.1,4.5-10.9,6.1c-0.5-0.7-1.6-1.9-2.2-2.5c2.9-1.2,6.4-3.5,8.1-5V80.2z M247.5,75h36v8.4
	h-4.9v-4.9h-26.4v4.9h-4.7V75z M276.7,61.5h4.7c-0.2,5-0.7,11.3-1.1,15.2h-4.7C276.1,72.7,276.5,66.5,276.7,61.5z M271,61.5h7.6v3.1
	H271V61.5z M258.2,60.4l2.1,2.8c-2.6,1-6.2,1.7-8.7,2.1l-1.7-2.7C252.3,62.2,256,61.1,258.2,60.4z M252.3,66h7.7v3h-7.7V66z
	 M252.4,70.5h7.7v3h-7.7V70.5z M271.3,66h6.9v3h-6.9V66z M271.1,70.5h6.9v3h-6.9V70.5z M267,60.4l3.2,0.9c-1.8,2.5-4.9,4.9-7.7,6.4
	c-0.6-0.6-1.8-1.7-2.6-2.2C262.8,64.3,265.5,62.4,267,60.4z M260.8,62.6l2.3-1.9c2.5,1.2,5.7,3.1,7.3,4.6l-2.4,2.1
	C266.5,65.9,263.3,63.9,260.8,62.6z M267.1,67.4l3.2,0.9c-2,2.7-5.2,5.3-8.2,6.8c-0.5-0.6-1.8-1.9-2.5-2.4
	C262.5,71.5,265.5,69.5,267.1,67.4z M260.6,69.6l2.3-1.9c2.6,1.3,6,3.4,7.7,5l-2.4,2.1C266.6,73.3,263.3,71.1,260.6,69.6z
	 M249.9,62.7l4.7,1.2l0.7,12.7h-4.6L249.9,62.7z M307,62h36.1v4.4H307V62z M322.8,63.9h5.2v16.6c0,8.3-3.4,15.2-18.9,18.2
	c-0.5-1.1-1.9-3.2-3-4.3c14.8-2.3,16.7-7.4,16.7-14V63.9z M315.2,79.1v2.7h20.4v-2.7H315.2z M315.2,72.8v2.6h20.4v-2.6H315.2z
	 M310.6,68.8h30v16.9h-30V68.8z M315.5,85.6c5.7,7.3,15.3,7.9,29.3,7.8c-0.9,1.1-1.8,3.2-2.1,4.9c-14.5-0.3-25.3-1.6-31.6-10.9
	L315.5,85.6z M348,77.7h36.3V82H348V77.7z M366.3,85.1h15.3v4.2h-15.3V85.1z M364,79.9h5v15.2h-5V79.9z M357.7,86.5
	c2.3,6,7.5,6.9,14.6,7c2.3,0,10.2,0,13.1-0.1c-0.7,1.1-1.4,3.2-1.7,4.7H372c-9.4,0-15-1.7-18.4-10.2L357.7,86.5z M354.1,82.9
	l4.9,0.7c-1.4,6.8-4.3,11.9-8.9,15.2c-0.7-0.9-2.6-2.7-3.7-3.4C350.7,92.7,353.2,88.4,354.1,82.9z M356.5,70.4v2h18.8v-2H356.5z
	 M356.5,65.1v2.1h18.8v-2.1H356.5z M351.8,61.6h28.6v14.3h-28.6V61.6z M418.4,64.8v2.7h2.6v-2.7H418.4z M412.2,64.8v2.7h2.5v-2.7
	H412.2z M406.1,64.8v2.7h2.4v-2.7H406.1z M402.2,61.5H425v9.2h-22.7V61.5z M402.7,72.3h21.6v3.5h-21.6V72.3z M401.1,77.7h24.4v3.7
	h-24.4V77.7z M402,84.5h22.6v3.6H402V84.5z M400.4,90h25.7v3.6h-25.7V90z M410.9,69.8h4.6v9.5h-4.6V69.8z M410.9,86.2h4.6v12.5h-4.6
	V86.2z M405.6,82l4-0.9c0.5,1.1,1,2.5,1.2,3.4l-4.2,1C406.5,84.7,406.1,83.2,405.6,82z M417.5,81.1l4.5,1.1
	c-0.9,1.6-1.8,3.1-2.5,4.2l-3.6-1C416.5,84.1,417.2,82.3,417.5,81.1z M387.5,80.8c3.2-0.7,8-2,12.6-3.3l0.6,4.4
	c-4.1,1.3-8.6,2.5-12.1,3.6L387.5,80.8z M388.1,68h12.4v4.5h-12.4V68z M392.4,60.2h4.5v33.2c0,2.3-0.4,3.5-1.7,4.3
	c-1.2,0.8-3,0.9-5.7,0.9c-0.1-1.2-0.7-3.2-1.3-4.6c1.5,0.1,2.9,0.1,3.4,0c0.5,0,0.7-0.1,0.7-0.7V60.2z M429.4,69.7h12.8v4.6h-12.8
	V69.7z M433.8,60.8h4.6v27.2h-4.6V60.8z M428.5,87.3c3.4-1.2,8.6-3.4,13.5-5.4l1.1,4.3c-4.3,2.1-8.9,4.3-12.6,6L428.5,87.3z
	 M452.9,60.2h4.6v28.9h-4.6V60.2z M440.7,76.7l21.2-9l1.8,4.2L442.6,81L440.7,76.7z M444.8,64.2h4.7v26.6c0,2.4,0.4,2.7,2.9,2.7
	c1.2,0,6.7,0,8,0c2.3,0,2.7-0.9,3-5.1c1.1,0.7,3,1.5,4.3,1.8c-0.6,5.8-2.1,7.7-6.9,7.7c-1.4,0-7.5,0-8.8,0c-5.6,0-7.2-1.5-7.2-7.2
	V64.2z M460.8,68.8h-0.5l1.6-1.1l3.7,1.1l-0.2,0.7c-0.2,5.7-0.8,13.2-1.8,18.2l-4-1.1C460.3,82.2,460.7,74.5,460.8,68.8z
	 M489.2,61.8h16.7v18.9h-16.7v-4.2h12V66.1h-12V61.8z M489.5,69.3h14v4h-14V69.3z M498,78.2c1.6,7.3,4.9,13.3,10.8,16.1
	c-1.1,0.9-2.6,2.9-3.4,4.2C499,94.9,495.8,87.8,494,79L498,78.2z M505.1,81.1l3.2,3.5c-2.3,1.8-5,3.7-7.1,4.9l-2.6-3
	C500.6,85.2,503.5,82.9,505.1,81.1z M486.5,98.8l-0.4-4.3l2-1.6l8.8-1.9c0,1.4,0,3.4,0.2,4.5C489,97.6,487.4,98.2,486.5,98.8z
	 M486.5,98.8c-0.3-1.1-1.4-3-2.1-3.9c0.9-0.5,1.9-1.7,1.9-3.6V61.8h4.8v32.5C491.1,94.3,486.5,97.1,486.5,98.8z M473.7,62.6h9.7
	v29.6h-9.7v-4.3h5.7v-21h-5.7V62.6z M473.8,71.1h8.4v4.1h-8.4V71.1z M473.8,79.5h8.4v4.1h-8.4V79.5z M471.1,62.6h4.2v33h-4.2V62.6z
	 M520.4,72.2v3h19.4v-3H520.4z M520.4,65.6v2.9h19.4v-2.9H520.4z M515.5,61.6h29.4v17.5h-29.4V61.6z M535.7,76.5
	c2.7,3.7,8,6.7,13.8,8.2c-1.1,1-2.6,2.9-3.3,4.2c-6-2-11.4-5.9-14.6-10.8L535.7,76.5z M524.5,76.5l4.3,1.7
	c-3.3,4.8-8.9,8.8-14.7,10.9c-0.7-1.2-2.2-3.1-3.3-4.1C516.4,83.4,521.8,80.2,524.5,76.5z M521.6,84h5.1v2.8c0,3.9-1.2,9.2-9.4,12.2
	c-0.7-1.2-2.3-3.1-3.4-4c6.8-2.2,7.7-5.7,7.7-8.3V84z M527.6,63.6h5v13.5h-5V63.6z M534.1,84.1h5.1v14.5h-5.1V84.1z"/></svg>