<svg width="488" height="126" fill="none" xmlns="http://www.w3.org/2000/svg"><path d="M8.15 3.041H51.033V22.805H43.591V8.165H15.226V22.805H8.15V3.041ZM17.178 10.544H41.639V14.875H17.178V10.544ZM17.178 17.193H41.456V21.768H17.178V17.193ZM2.05 24.208H56.767V30.064H2.05V24.208ZM29.866 32.321H49.935V37.933H29.866V32.321ZM11.444 32.443H25.291V37.506H11.444V32.443ZM11.444 40.007H25.291V45.07H11.444V40.007ZM37.491 37.384C40.968 44.826 48.166 50.438 57.926 52.756C56.462 54.037 54.571 56.721 53.595 58.429C43.103 55.379 35.844 48.547 31.635 39.031L37.491 37.384ZM48.288 32.321H49.569L50.789 32.077L55.303 33.785C51.582 46.595 42.92 54.342 31.879 58.368C31.086 56.66 29.317 54.037 27.975 52.634C37.613 49.767 45.543 42.813 48.288 33.358V32.321ZM1.44 49.157C7.54 48.791 16.69 48.059 25.474 47.266L25.596 52.878C17.3 53.854 8.577 54.708 2.111 55.318L1.44 49.157ZM21.57 26.099H28.524V58.49H21.57V26.099ZM6.869 26.221H13.518V51.048H6.869V26.221ZM83.363 44.521H117.035V49.401H83.363V44.521ZM80.252 51.78H119.597V56.904H80.252V51.78ZM96.539 15.668H103.249V55.44H96.539V15.668ZM80.74 19.938H119.231V24.879H80.74V19.938ZM90.561 36.347V38.665H109.471V36.347H90.561ZM90.561 30.552V32.748H109.471V30.552H90.561ZM84.095 26.77H116.242V42.447H84.095V26.77ZM114.29 12.191L117.279 16.766C108.434 17.803 95.746 18.352 85.254 18.291C85.071 17.071 84.461 15.119 83.973 13.899C94.404 13.716 106.726 13.106 114.29 12.191ZM69.333 1.211H76.287V58.49H69.333V1.211ZM64.026 13.289L68.601 13.899C68.662 19.755 67.808 26.831 65.612 31.345L61.098 29.271C63.05 25.489 63.904 18.779 64.026 13.289ZM75.86 12.557L80.069 11.093C81.472 13.838 82.631 17.437 82.936 19.694L78.483 21.524C78.239 19.145 77.141 15.424 75.86 12.557ZM81.777 4.81H98.552V9.812H81.777V4.81ZM88.304 1.211H94.709V12.679H88.304V1.211ZM104.042 1.211H110.508V11.947H104.042V1.211ZM100.138 4.81H118.194V9.812H100.138V4.81ZM124.416 6.274H178.584V13.106H124.416V6.274ZM137.775 32.504H165.103V38.177H137.775V32.504ZM136.494 42.203H166.445V48.059H136.494V42.203ZM147.779 35.249H154.733V56.721H147.779V35.249ZM126.673 17.681H170.837V24.391H134.054V58.368H126.673V17.681ZM168.763 17.681H176.327V51.048C176.327 54.586 175.473 56.233 172.972 57.27C170.532 58.307 166.933 58.368 161.992 58.368C161.626 56.477 160.528 53.793 159.552 52.146C162.541 52.329 166.384 52.329 167.36 52.268C168.458 52.207 168.763 51.902 168.763 50.987V17.681ZM140.093 26.038L145.949 24.33C147.352 26.282 148.755 29.088 149.426 30.918L143.326 32.992C142.777 31.04 141.374 28.173 140.093 26.038ZM157.295 24.452L163.517 26.16C161.87 29.088 160.223 31.955 158.82 33.907L153.635 32.382C154.916 30.125 156.502 26.77 157.295 24.452ZM147.535 1.577H155.587V22.378H147.535V1.577ZM193.224 6.884H200.361V58.429H193.224V6.884ZM183.952 18.352H208.413V25.184H183.952V18.352ZM193.651 21.097L197.921 22.988C195.603 31.711 191.272 42.569 186.575 48.608C185.904 46.473 184.318 43.423 183.159 41.593C187.429 36.713 191.699 27.868 193.651 21.097ZM204.143 1.76L208.23 7.738C201.886 10.056 193.529 11.581 186.392 12.435C186.087 10.788 185.172 8.348 184.44 6.762C191.394 5.725 199.08 3.834 204.143 1.76ZM200.178 25.489C201.703 26.953 207.071 33.053 208.291 34.578L204.021 40.312C202.618 37.201 198.836 31.04 197.006 28.417L200.178 25.489ZM227.018 1.15H234.216V58.429H227.018V1.15ZM207.376 40.495L240.316 34.822L241.414 41.715L208.474 47.51L207.376 40.495ZM211.341 9.019L216.099 4.871C219.454 7.372 223.663 11.032 225.554 13.655L220.43 18.23C218.722 15.607 214.696 11.703 211.341 9.019ZM209.084 25.062L213.72 20.853C217.258 23.354 221.772 27.075 223.846 29.759L218.844 34.456C216.892 31.772 212.622 27.746 209.084 25.062ZM268.681 1.272H277.038C276.672 13.899 276.306 43.362 250.808 58.368C249.466 56.416 247.087 54.098 244.708 52.451C269.535 39.092 268.376 11.703 268.681 1.272ZM276.367 8.714C276.855 13.655 278.807 41.105 302.597 51.719C300.401 53.427 298.327 55.928 297.229 58.002C272.219 46.107 270.206 15.607 269.291 9.507L276.367 8.714ZM312.723 11.093H331.45V52.207H312.723V45.741H324.801V17.498H312.723V11.093ZM308.453 11.093H315.102V56.721H308.453V11.093ZM312.418 27.38H328.034V33.724H312.418V27.38ZM317.115 1.15L325.106 2.309C323.703 6.457 322.178 10.788 320.958 13.655L315.102 12.374C315.956 9.202 316.81 4.505 317.115 1.15ZM339.502 10.666H357.314V17.315H339.502V10.666ZM354.813 10.666H361.584C361.584 10.666 361.584 13.045 361.523 13.96C360.73 41.41 359.998 51.109 357.497 54.342C355.789 56.721 354.081 57.392 351.58 57.758C349.262 58.124 345.541 58.063 342.003 57.88C341.881 55.867 340.905 52.756 339.563 50.804C343.528 51.109 347.188 51.17 348.713 51.17C349.933 51.17 350.604 50.926 351.397 50.072C353.349 47.998 354.142 37.506 354.813 12.069V10.666ZM339.685 1.211L346.7 2.858C344.321 11.886 340.356 21.158 336.208 27.014C334.866 25.794 331.877 23.72 330.169 22.744C334.256 17.62 337.733 9.324 339.685 1.211ZM336.696 28.234L342.43 25.001C345.419 29.21 349.445 35.066 351.336 38.665L345.114 42.447C343.467 38.726 339.624 32.748 336.696 28.234ZM385.374 14.143H422.767V19.572H385.374V14.143ZM387.997 31.101H420.144V36.286H387.997V31.101ZM385.557 39.336H422.096V44.887H385.557V39.336ZM398.977 1.272H405.87V49.035H398.977V1.272ZM388.668 5.725H419.412V28.173H388.363V22.622H413.007V11.276H388.668V5.725ZM368.416 4.566H382.263V10.91H368.416V4.566ZM373.54 21.951H382.202V28.295H373.296L373.54 21.951ZM379.64 21.951H380.921L382.141 21.829L386.228 22.744C384.642 40.983 379.762 52.573 371.771 58.49C370.673 57.148 367.989 54.647 366.464 53.732C374.211 48.486 378.42 38.665 379.64 23.232V21.951ZM373.723 31.833C378.481 48.059 389.339 50.743 403.735 50.743C407.212 50.743 419.9 50.743 424.17 50.621C423.133 52.146 421.913 55.318 421.547 57.27H403.552C386.106 57.27 374.333 53.61 368.416 33.663L373.723 31.833ZM370.49 31.04C370.002 29.698 368.599 26.892 367.684 25.428C368.904 25.062 370.673 23.415 371.954 21.341C373.235 19.389 377.261 12.008 379.579 4.993V4.627L382.141 3.59L386.533 6.579C383.239 14.509 379.03 22.195 375.37 27.502V27.563C375.37 27.563 370.49 29.759 370.49 31.04ZM429.904 17.376H451.315V22.439H429.904V17.376ZM437.407 18.901H444.056V31.528H437.407V18.901ZM429.233 30.796C434.845 30.247 443.141 29.271 451.132 28.234L451.315 33.785C443.873 34.822 436.004 35.798 430.087 36.591L429.233 30.796ZM459.062 18.474H465.162V23.964C465.162 28.966 463.454 34.151 455.585 37.201C454.67 36.042 452.169 33.907 450.827 33.053C457.964 30.491 459.062 27.197 459.062 23.781V18.474ZM469.371 17.132H476.264V28.722C476.264 29.698 476.203 30.308 476.386 30.552C476.508 30.735 476.752 30.796 476.996 30.796C477.24 30.796 477.667 30.796 477.972 30.796C478.216 30.796 478.521 30.735 478.704 30.613C478.887 30.491 479.07 30.186 479.192 29.454C479.314 28.722 479.375 27.136 479.436 25.184C480.534 26.16 482.608 27.136 484.133 27.685C484.072 30.003 483.706 32.504 483.34 33.602C482.913 34.639 482.242 35.432 481.266 35.92C480.473 36.347 479.131 36.591 478.094 36.591C477.179 36.591 475.837 36.591 475.044 36.591C473.519 36.591 471.872 36.103 470.835 35.127C469.798 34.029 469.371 32.748 469.371 28.905V17.132ZM428.745 38.909H484.255V44.643H428.745V38.909ZM452.901 35.371H459.977V58.429H452.901V35.371ZM452.169 26.953L454.67 22.805C459.306 24.757 466.077 27.868 469.554 29.759L466.992 34.456C463.637 32.443 456.927 29.149 452.169 26.953ZM453.389 17.132H471.628V21.89H453.389V17.132ZM436.614 4.505H455.707V9.995H436.614V4.505ZM461.685 4.505H484.682V9.995H461.685V4.505ZM436.919 0.661998L443.324 2.614C440.762 7.799 436.553 13.045 432.649 16.339C431.612 15.058 429.172 12.496 427.769 11.276C431.429 8.714 434.906 4.688 436.919 0.661998ZM461.929 0.661998L468.578 2.431C466.443 7.738 462.783 13.106 459.123 16.4C457.903 15.241 455.219 13.045 453.694 12.008C457.232 9.263 460.282 4.993 461.929 0.661998ZM440.396 11.825L445.032 8.287C446.923 9.995 449.363 12.496 450.461 14.143L445.581 18.047C444.544 16.339 442.226 13.655 440.396 11.825ZM467.053 11.52L472.055 8.165C473.885 9.751 476.081 12.008 477.179 13.533L471.872 17.254C470.896 15.668 468.822 13.228 467.053 11.52ZM444.361 45.009L450.339 47.205C446.557 52.024 440.091 56.05 433.442 57.88C432.405 56.111 430.209 53.366 428.623 51.902C434.784 50.682 441.067 48.12 444.361 45.009ZM462.966 48.974L467.907 44.521C473.031 46.595 480.107 49.95 483.767 52.451L478.46 57.392C475.105 54.952 468.151 51.292 462.966 48.974ZM7.69156 92.894H33.9176V96.842H7.69156V92.894ZM26.5856 90.356L29.0766 87.912C30.6746 88.664 32.6016 89.886 33.5416 90.92L30.9566 93.599C30.0166 92.565 28.1366 91.249 26.5856 90.356ZM28.5126 98.158L32.8836 99.004C30.5336 107.323 25.9746 113.715 19.8176 117.663C19.2536 116.817 17.7026 115.031 16.7626 114.279C22.6376 110.942 26.6796 105.349 28.5126 98.158ZM7.17456 110.848C10.6056 110.472 15.5406 109.861 20.4756 109.203L20.6166 112.963C16.0576 113.668 11.4516 114.373 7.69156 114.937L7.17456 110.848ZM12.5326 101.871V104.879H15.6816V101.871H12.5326ZM8.91356 98.863H19.4416V107.84H8.91356V98.863ZM20.2876 88.852H24.9876C25.3166 100.555 26.9146 111.6 30.0166 112.352C30.5336 112.493 30.9096 110.66 31.1446 107.887C31.9906 108.78 33.6826 110.096 34.6226 110.566C33.9176 116.394 31.3796 118.18 28.2776 116.77C22.4026 114.89 20.9926 102.388 20.2876 88.852ZM0.688563 83.118H40.9676V125.371H35.3746V88.194H5.99956V125.371H0.688563V83.118ZM4.02556 118.368H38.4296V123.397H4.02556V118.368ZM47.4066 82.93H58.1226V87.959H52.2006V125.089H47.4066V82.93ZM56.3836 82.93H57.2766L58.0286 82.742L61.5066 84.669C60.4256 88.711 58.9686 93.505 57.7466 97.218C60.3786 100.931 60.8956 104.268 60.8956 107.041C60.8956 110.049 60.3316 112.117 58.9216 113.198C58.2166 113.762 57.3236 114.044 56.3836 114.232C55.5846 114.326 54.5036 114.373 53.4696 114.279C53.4226 113.01 53.0466 110.989 52.2946 109.673C53.0936 109.72 53.6576 109.72 54.2216 109.72C54.6916 109.72 55.1146 109.626 55.3966 109.344C55.9136 108.921 56.1956 107.793 56.1956 106.43C56.1956 104.174 55.6786 101.119 53.1876 97.735C54.4566 93.552 55.7726 87.442 56.3836 84.434V82.93ZM67.7576 99.333H81.5756V103.798H67.7576V99.333ZM63.4336 106.994H86.2756V111.553H63.4336V106.994ZM65.5486 84.528H72.6456V88.194H65.5486V84.528ZM63.8096 90.967L66.1596 88.429C67.8516 89.651 70.2016 91.484 71.3296 92.659L68.8856 95.526C67.8046 94.257 65.5956 92.33 63.8096 90.967ZM79.6016 115.078L83.7376 112.634C85.8056 114.984 88.7196 118.274 90.1766 120.295L85.8056 123.068C84.4896 121.047 81.6696 117.569 79.6016 115.078ZM71.4706 84.528H72.2226L72.9746 84.34L75.7946 85.421C73.7736 94.962 69.0266 101.965 62.9636 105.866C62.3996 104.832 61.1306 103.281 60.1906 102.482C65.4546 99.38 69.9196 92.753 71.4706 85.327V84.528ZM78.0036 83.588H85.9936V87.301H78.0036V83.588ZM65.5016 81.144L69.6846 82.084C67.9456 87.16 64.9846 91.907 61.7416 94.915C61.0366 94.163 59.3446 92.753 58.4046 92.095C61.6006 89.51 64.1386 85.468 65.5016 81.144ZM84.4426 83.588H85.4296L86.3696 83.353L89.4246 85.092C88.0146 89.275 85.6646 93.74 83.2206 96.513C82.5626 95.526 81.1056 94.116 80.2126 93.411C82.0456 91.108 83.6906 87.254 84.4426 84.434V83.588ZM64.9376 113.198L69.9666 114.843C68.2746 117.757 65.5956 121.282 63.6216 123.444C62.5406 122.598 60.4256 121.235 59.1566 120.577C61.2246 118.65 63.4806 115.736 64.9376 113.198ZM78.8496 85.515C80.7766 92.565 84.7246 98.91 90.3646 101.918C89.2836 102.811 87.8266 104.597 87.1686 105.819C80.9646 102.059 76.9696 94.915 74.6666 86.502L78.8496 85.515ZM72.2696 108.921H77.5806V125.136H72.2696V108.921ZM59.6266 95.526C61.5536 95.385 63.6216 95.15 66.2066 94.868L66.3006 97.876C64.0916 98.299 62.2586 98.628 60.1906 99.004L59.6266 95.526ZM105.029 87.912H109.541V103.234H105.029V87.912ZM99.5766 91.296H113.536V94.586H99.5766V91.296ZM99.5766 96.372H113.536V99.709H99.5766V96.372ZM96.8976 101.495H114.899V105.02H96.8976V101.495ZM99.2476 81.144L103.572 82.319C101.739 87.583 98.6836 92.847 95.2526 96.137C94.7356 95.15 93.3726 93.035 92.5266 92.142C95.3936 89.463 97.8846 85.421 99.2476 81.144ZM125.145 87.536H129.704V103.516H125.145V87.536ZM119.928 91.296H134.31V94.633H119.928V91.296ZM119.928 96.372H134.31V99.709H119.928V96.372ZM117.155 101.542H136.049V105.067H117.155V101.542ZM119.411 81.144L123.829 82.413C121.949 87.63 118.753 92.988 115.416 96.419C114.852 95.479 113.348 93.411 112.455 92.518C115.369 89.745 117.954 85.468 119.411 81.144ZM100.705 85.985H114.429V89.557H97.5086L100.705 85.985ZM96.8976 90.497L101.645 87.301V103.375H96.8976V90.497ZM120.539 85.985H135.485V89.557H117.343L120.539 85.985ZM117.155 90.497L121.902 87.066V103.375H117.155V90.497ZM95.9106 106.994H127.542V111.553H95.9106V106.994ZM125.615 106.994H126.79L127.824 106.759L131.631 109.062C125.051 119.684 110.716 123.726 95.5346 125.277C95.1116 123.82 94.1246 121.517 93.2316 120.201C107.238 119.261 120.633 115.783 125.615 107.746V106.994ZM106.063 110.143C111.609 115.689 123.03 118.697 136.19 119.59C134.968 120.906 133.464 123.397 132.712 124.995C119.176 123.679 108.037 119.872 100.987 112.493L106.063 110.143ZM124.581 82.648L129.234 81.426C130.08 83.118 131.067 85.327 131.49 86.784L126.649 88.194C126.273 86.784 125.38 84.434 124.581 82.648ZM104.324 82.507L108.977 81.285C109.823 82.93 110.81 85.186 111.233 86.643L106.392 88.053C105.969 86.596 105.123 84.293 104.324 82.507ZM177.315 82.742H182.579C182.579 82.742 182.579 84.199 182.485 84.81C182.015 96.56 181.451 101.119 180.182 102.764C179.195 103.986 178.161 104.362 176.704 104.597C175.435 104.785 173.367 104.785 171.205 104.738C171.111 103.281 170.547 101.213 169.748 99.85C171.581 100.038 173.273 100.085 174.119 100.085C174.777 100.085 175.2 99.944 175.623 99.474C176.422 98.487 176.939 94.398 177.315 83.588V82.742ZM167.821 84.81H172.803C172.098 94.116 170.218 102.153 160.301 106.712C159.737 105.49 158.327 103.657 157.199 102.717C165.988 99.051 167.21 92.283 167.821 84.81ZM158.515 82.742H179.148V87.442H158.515V82.742ZM162.087 108.028H166.881V118.321C166.881 119.637 167.116 119.825 168.526 119.825C169.137 119.825 171.769 119.825 172.568 119.825C173.884 119.825 174.166 119.12 174.307 114.091C175.294 114.89 177.315 115.595 178.584 115.924C178.114 122.551 176.845 124.196 173.085 124.196C172.098 124.196 168.714 124.196 167.821 124.196C163.168 124.196 162.087 122.786 162.087 118.368V108.028ZM157.904 108.874L161.805 109.955C161.335 113.762 160.489 118.18 158.891 120.859L155.037 119.261C156.541 116.629 157.481 112.446 157.904 108.874ZM166.129 106.242L169.419 104.127C171.44 106.195 173.696 109.109 174.683 111.083L171.111 113.527C170.218 111.506 168.056 108.451 166.129 106.242ZM176.281 108.263L180.088 106.9C181.874 110.096 183.66 114.232 184.177 117.005L180.088 118.556C179.618 115.83 178.02 111.506 176.281 108.263ZM157.951 91.249L160.959 88.241C163.403 90.215 166.975 92.988 168.667 94.727L165.518 98.158C163.873 96.325 160.442 93.364 157.951 91.249ZM144.133 82.883L148.88 81.238C149.961 83.259 151.136 85.938 151.747 87.63L146.812 89.604C146.295 87.771 145.12 84.951 144.133 82.883ZM141.078 95.526H155.742V99.756H141.078V95.526ZM141.078 101.918H155.742V106.195H141.078V101.918ZM139.715 88.899H156.729V93.364H139.715V88.899ZM143.569 108.451H155.601V122.739H143.569V118.274H150.901V112.916H143.569V108.451ZM141.078 108.451H145.684V124.619H141.078V108.451ZM204.904 82.601H212.753V87.019H204.904V82.601ZM211.484 82.601H212.33L213.27 82.413L216.56 83.447C214.915 92.048 211.108 98.722 205.75 102.576C204.998 101.448 203.494 99.709 202.413 98.816C206.831 95.949 210.356 89.745 211.484 83.353V82.601ZM203.071 91.719L205.938 88.147C207.724 89.04 209.933 90.403 211.061 91.39L208.053 95.338C207.019 94.304 204.81 92.753 203.071 91.719ZM208.335 113.762L213.082 112.493C214.304 114.467 215.479 117.099 215.714 118.838L210.732 120.248C210.497 118.556 209.51 115.83 208.335 113.762ZM221.401 81.285C222.999 88.241 226.336 94.774 231.6 97.923C230.331 98.863 228.686 100.743 227.84 102.012C222.012 98.017 218.675 90.638 216.748 82.131L221.401 81.285ZM224.738 81.849L227.934 84.951C226.242 86.502 224.174 87.959 222.67 88.946L219.991 86.126C221.354 85.092 223.516 83.118 224.738 81.849ZM227.699 87.536L230.848 90.638C228.921 92.095 226.665 93.411 225.067 94.304L222.529 91.531C224.033 90.591 226.383 88.758 227.699 87.536ZM211.155 94.022H222.623V98.487H211.155V94.022ZM203.494 119.731H230.331V124.196H203.494V119.731ZM211.954 104.832V108.31H221.401V104.832H211.954ZM207.207 100.602H226.43V112.587H207.207V100.602ZM220.508 112.305L226.054 113.527C224.644 116.253 223.234 119.12 222.012 121.047L217.735 119.872C218.769 117.757 219.991 114.561 220.508 112.305ZM188.689 95.432H201.755V99.709H188.689V95.432ZM188.689 101.824H201.755V106.054H188.689V101.824ZM186.809 88.899H203.212V93.364H186.809V88.899ZM190.757 108.31H201.943V122.598H190.757V118.086H197.619V112.822H190.757V108.31ZM188.548 108.31H192.825V124.619H188.548V108.31ZM191.133 82.977L194.94 80.627C196.303 82.601 197.854 85.186 198.653 86.878L194.611 89.651C193.953 87.865 192.402 84.998 191.133 82.977ZM268.829 89.557H298.345V93.74H268.829V89.557ZM272.448 101.636H287.535V105.725H272.448V101.636ZM287.112 105.255H293.88V109.203H287.112V105.255ZM281.237 85.139H286.595V100.79H281.237V85.139ZM280.015 91.766L283.963 93.317C280.955 97.359 275.832 101.072 270.803 102.858C270.051 101.683 268.641 99.85 267.513 98.91C272.307 97.594 277.43 94.774 280.015 91.766ZM292.376 105.255H297.546C297.546 105.255 297.452 106.43 297.358 107.041C296.935 112.305 296.371 114.843 295.29 115.924C294.397 116.864 293.269 117.193 291.859 117.287C290.637 117.428 288.428 117.475 286.125 117.334C286.031 116.065 285.514 114.326 284.856 113.151C286.783 113.339 288.71 113.386 289.509 113.386C290.214 113.386 290.637 113.339 291.013 112.963C291.624 112.399 292.047 110.472 292.376 105.866V105.255ZM293.222 81.661L296.7 85.327C289.744 86.784 279.78 87.442 271.461 87.583C271.32 86.455 270.803 84.763 270.286 83.776C278.37 83.494 287.77 82.789 293.222 81.661ZM276.913 102.764H282.036C281.519 110.002 279.921 114.984 271.978 117.71C271.461 116.488 270.098 114.561 269.064 113.574C275.55 111.647 276.537 108.169 276.913 102.764ZM286.313 101.636H291.06C290.59 104.268 289.932 107.182 289.368 109.203H284.574C285.232 107.088 285.89 104.127 286.313 101.636ZM256.75 83.588L260.98 81.097C263.095 83.353 265.586 86.314 266.855 88.241L262.437 91.249C261.262 89.228 258.724 85.938 256.75 83.588ZM255.622 92.048H265.539V96.56H255.622V92.048ZM265.163 112.493C267.654 118.838 273.2 119.59 281.707 119.637C286.736 119.637 294.491 119.355 299.849 118.838C299.05 119.966 298.345 122.504 298.063 124.008C293.128 124.337 287.112 124.431 281.613 124.431C270.709 124.431 264.881 123.021 261.403 113.997L265.163 112.493ZM263.283 103.469H264.975L265.868 103.375L268.218 104.315C266.855 114.608 263.283 121.658 258.301 125.371C257.549 124.29 255.716 122.363 254.635 121.611C259.288 118.462 262.249 112.54 263.283 104.315V103.469ZM256.515 108.592V104.55L258.536 103.469H265.445V107.84H259.382C258.254 107.84 256.891 108.169 256.515 108.592ZM256.515 108.592C256.186 107.417 255.199 105.02 254.682 103.986C255.481 103.798 256.233 103.469 257.126 102.482C258.489 101.166 262.672 95.15 264.27 92.565V92.424L265.68 91.813L269.111 93.364C266.949 96.607 262.907 102.435 260.275 105.49C260.275 105.49 256.515 107.323 256.515 108.592ZM286.877 96.419L289.65 93.129C293.316 94.868 297.405 97.218 299.802 98.91L296.418 102.388C294.162 100.602 290.308 98.205 286.877 96.419ZM306.852 83.682H320.341V112.54H306.852V107.37H315.124V88.758H306.852V83.682ZM306.899 95.432H317.192V100.461H306.899V95.432ZM326.968 82.977H341.397V88.194H326.968V82.977ZM326.968 94.21H341.397V99.286H326.968V94.21ZM326.874 105.349H341.35V110.378H326.874V105.349ZM303.844 83.682H309.061V116.629H303.844V83.682ZM339.282 82.977H344.875V118.791C344.875 121.705 344.264 123.256 342.431 124.149C340.551 125.042 337.872 125.183 333.877 125.183C333.642 123.632 332.749 121.188 331.95 119.731C334.488 119.872 337.355 119.825 338.154 119.825C339 119.825 339.282 119.543 339.282 118.697V82.977ZM323.584 82.977H329.13V100.038C329.13 108.169 327.861 119.214 319.166 125.606C318.32 124.478 316.158 122.551 314.936 121.799C322.879 116.018 323.584 107.182 323.584 99.991V82.977ZM359.539 101.871H387.645V125.371H381.958V106.148H364.944V125.371H359.539V101.871ZM350.186 95.479H392.063V99.897H350.186V95.479ZM353.476 89.181H389.478V93.458H353.476V89.181ZM363.205 108.122H384.261V111.694H363.205V108.122ZM363.205 113.715H384.261V117.24H363.205V113.715ZM362.547 119.402H384.261V123.679H362.547V119.402ZM386.047 81.238L389.337 85.28C379.702 86.878 365.696 87.442 354.04 87.348C353.946 86.126 353.429 84.246 352.959 83.118C364.474 83.118 378.104 82.554 386.047 81.238ZM366.025 85.139L371.9 86.314C368.704 98.017 363.064 109.203 352.207 115.454C351.455 114.185 349.81 112.07 348.682 110.989C358.646 105.631 363.816 95.291 366.025 85.139ZM419.088 92.471V94.868H431.355V92.471H419.088ZM419.088 86.408V88.758H431.355V86.408H419.088ZM413.636 82.46H437.042V98.816H413.636V82.46ZM411.286 100.884H438.593V105.49H411.286V100.884ZM410.064 108.169H439.533V112.963H410.064V108.169ZM427.407 104.926H433.094V119.637C433.094 122.222 432.624 123.585 430.791 124.384C429.052 125.183 426.702 125.23 423.459 125.23C423.224 123.679 422.425 121.611 421.72 120.201C423.694 120.295 425.903 120.295 426.514 120.248C427.219 120.201 427.407 120.06 427.407 119.496V104.926ZM413.213 115.266L417.114 112.634C419.135 114.467 421.626 117.099 422.848 118.838L418.618 121.846C417.584 120.06 415.14 117.287 413.213 115.266ZM406.774 91.484L411.709 93.552C408.278 99.333 402.779 105.537 397.844 109.391C397.468 108.169 396.058 104.973 395.212 103.61C399.348 100.696 403.954 96.043 406.774 91.484ZM405.505 81.144L410.863 83.306C407.714 87.677 402.92 92.283 398.502 95.15C397.891 93.881 396.575 91.578 395.682 90.403C399.348 88.147 403.531 84.293 405.505 81.144ZM402.121 101.965L407.338 96.748L407.573 96.889V125.23H402.121V101.965ZM455.278 94.962V97.876H475.018V94.962H455.278ZM455.278 102.482V105.396H475.018V102.482H455.278ZM455.278 87.489V90.403H475.018V87.489H455.278ZM449.826 82.554H480.752V110.331H449.826V82.554ZM467.31 106.524H473.044V117.804C473.044 119.308 473.373 119.543 475.065 119.543C475.864 119.543 479.013 119.543 480 119.543C481.645 119.543 481.927 118.744 482.162 113.198C483.29 114.138 485.781 115.078 487.332 115.454C486.721 122.927 485.217 124.854 480.517 124.854C479.342 124.854 475.394 124.854 474.313 124.854C468.673 124.854 467.31 123.162 467.31 117.804V106.524ZM455.795 108.451H461.858C461.059 117.005 458.85 122.551 446.16 125.418C445.69 123.914 444.186 121.611 443.011 120.389C453.915 118.368 455.184 114.749 455.795 108.451Z" fill="black"/></svg>