<svg xmlns="http://www.w3.org/2000/svg" viewBox="0 0 469 100"><path d="M12.8,36.6c-4.1,0-8.1-1.6-11.1-4.4L5.2,28c2.1,2,5,3.3,7.7,3.3c3.2,0,4.8-1.4,4.8-3.4c0-2.3-1.8-3-4.6-4.1L9.1,22
	c-3-1.2-6.2-3.7-6.2-8.1c0-5,4.4-8.8,10.5-8.8C17,5.1,20.5,6.5,23,9l-3,3.8c-2-1.6-4-2.5-6.5-2.5c-2.7,0-4.3,1.2-4.3,3.2
	c0,2.2,2.2,3,4.8,4l4,1.6c3.6,1.5,6.1,3.9,6.1,8.2C23.9,32.4,19.8,36.6,12.8,36.6z M42.4,36.6c-8.2,0-14.6-5.5-14.6-15.6
	c0-10,6.5-15.8,14.6-15.8c4.3,0,7.4,1.9,9.3,3.9l-3.2,3.9c-1.5-1.4-3.2-2.5-5.9-2.5c-5.1,0-8.6,3.9-8.6,10.4c0,6.6,3,10.6,9,10.6
	c1.5,0,3-0.4,3.8-1.1v-6h-5.4v-5h10.8v13.7C50.1,35,46.5,36.6,42.4,36.6z M67.8,36.6c-4.1,0-8.1-1.6-11.1-4.4l3.5-4.2
	c2.1,2,5,3.3,7.7,3.3c3.2,0,4.8-1.4,4.8-3.4c0-2.3-1.8-3-4.6-4.1L64.1,22c-3-1.2-6.2-3.7-6.2-8.1c0-5,4.4-8.8,10.5-8.8
	c3.5,0,7.1,1.4,9.5,3.9l-3,3.8c-2-1.6-4-2.5-6.5-2.5c-2.7,0-4.3,1.2-4.3,3.2c0,2.2,2.2,3,4.8,4l4,1.6c3.6,1.5,6.1,3.9,6.1,8.2
	C78.9,32.4,74.7,36.6,67.8,36.6z M97,25.1h26.6v4.3H97V25.1z M99,16h22.6v4.3H99V16z M93,34.3h35v4.4H93V34.3z M107.6,18h5.2v18.8
	h-5.2V18z M98.8,2.5h13.8V7H98.8V2.5z M107.6,2.5h5.4c3.5,5.2,10.2,10.4,17.1,13c-1,1-2.6,3.1-3.3,4.5c-7.2-3.4-13.9-9.2-18-14.8
	h-1.3V2.5z M108.3,2.5l3.6,2.5c-4.1,5.7-11.6,11.7-18.2,15c-0.7-1.2-1.9-3-3-4C97.2,13.3,104.7,7.6,108.3,2.5z M146.1,7.8h24.3v4.5
	h-24.3V7.8z M155.6,1.2h4.8v33c0,2.4-0.5,3.7-1.9,4.5c-1.4,0.8-3.5,1-6.6,1c-0.2-1.3-1-3.4-1.7-4.8c2.1,0.1,4,0.1,4.6,0.1
	c0.6,0,0.9-0.2,0.9-0.9V1.2z M144.3,31c2.8-2,7.7-5.9,12.1-9.4l1.7,3.5c-3.6,3.6-7.6,7.4-10.8,10.3L144.3,31z M146.4,15.8l3.8-1.7
	c1.6,2.2,3.3,5.2,4,7.2l-4,1.9C149.5,21.3,147.9,18.2,146.4,15.8z M166,14l4.3,2.2c-2.3,2.9-5,6.2-7.1,8.2l-3.4-1.9
	C161.8,20.3,164.5,16.7,166,14z M161.6,3.9l2.7-2.5c1.7,1.1,3.9,2.9,4.9,4.1l-2.9,2.8C165.4,7.1,163.3,5.2,161.6,3.9z M160.2,13.1
	c1.7,10,4.5,15.3,10.9,19.7c-1.1,0.9-2.4,2.5-3,3.8c-7.1-5.4-10.1-11.6-12-22.7L160.2,13.1z M132.3,3.5h13.1v4.6h-13.1V3.5z
	 M132.5,15.3h12.2v4.6h-12.2V15.3z M131.7,31.2c3.5-0.9,8.7-2.5,13.7-4l0.7,4.4c-4.6,1.5-9.5,3-13.4,4.2L131.7,31.2z M136.6,5.4h4.6
	v25.2l-4.6,0.7V5.4z M178,2.4h28.8v13.3h-5V5.9h-19.1v9.8H178V2.4z M184.1,7.5h16.4v2.9h-16.4V7.5z M184.1,11.9h16.3V15h-16.3V11.9z
	 M173.9,16.6h36.8v3.9h-36.8V16.6z M192.6,22.1h13.5v3.8h-13.5V22.1z M180.2,22.2h9.3v3.4h-9.3V22.2z M180.2,27.3h9.3v3.4h-9.3V27.3
	z M197.7,25.5c2.3,5,7.2,8.8,13.7,10.3c-1,0.9-2.3,2.7-2.9,3.8c-7.1-2-11.9-6.6-14.8-13L197.7,25.5z M205,22.1h0.9l0.8-0.2l3,1.1
	c-2.5,8.6-8.3,13.8-15.7,16.5c-0.5-1.1-1.7-2.9-2.6-3.9c6.5-1.9,11.8-6.6,13.7-13V22.1z M173.5,33.4c4.1-0.2,10.2-0.7,16.2-1.3
	l0.1,3.8c-5.6,0.7-11.4,1.2-15.8,1.6L173.5,33.4z M187,17.9h4.7v21.8H187V17.9z M177.1,18h4.5v16.7h-4.5V18z M215.1,5h36.4v4.1
	h-36.4V5z M225.4,14v2.2h15.9V14H225.4z M220.5,10.7h26.1v8.9h-26.1V10.7z M216.2,21.2h32.9v4H221v14.5h-4.8V21.2z M245.6,21.2h5v14
	c0,2.1-0.5,3.1-2.1,3.6c-1.5,0.5-3.7,0.6-6.6,0.5c-0.2-1.1-0.9-2.6-1.5-3.6c1.6,0.1,3.9,0.1,4.4,0.1c0.6,0,0.8-0.2,0.8-0.7V21.2z
	 M229.9,2.1l5-1.2c0.7,1.7,1.7,4.1,2.1,5.5l-5.3,1.5C231.4,6.4,230.6,3.9,229.9,2.1z M226.8,26.7H242v9.2h-15.3v-3.4h10.9v-2.4
	h-10.9V26.7z M224.1,26.7h4.6v10.9h-4.6V26.7z M256.2,8.9h11.2v4.5h-11.2V8.9z M260.4,1.2h3.9v38.5h-3.9V1.2z M260,11.9l2.2,1.1
	c-0.9,6.4-2.8,14.1-5.1,18.1c-0.4-1.4-1.3-3.6-1.9-4.8C257.3,23,259.2,16.9,260,11.9z M264,14.9c0.8,1,3.8,5.6,4.4,6.6l-2.1,3.3
	c-0.8-2.1-3-6.4-3.9-8.2L264,14.9z M273.9,10.4H286v3.7h-12.1V10.4z M272.6,19.4v3.8h2.7v-3.8H272.6z M269.1,16.2h10v10.4h-10V16.2z
	 M284.4,19.4v3.8h2.9v-3.8H284.4z M280.9,16.2h10.2v10.4h-10.2V16.2z M272.3,27l4.3,0.9c-1.6,5.1-4.7,9.3-8.6,12
	c-0.7-0.8-2.3-2.4-3.2-3.2C268.4,34.6,271.1,31.2,272.3,27z M272.4,32.7l2.3-2.9c1.6,1,3.8,2.4,4.8,3.5l-2.5,3.2
	C276.1,35.4,274.1,33.7,272.4,32.7z M283.7,26.9l4.3,0.6c-1.1,5.4-3.5,9.6-7.2,12.2c-0.6-0.8-2.2-2.4-3.1-3.1
	C280.9,34.6,282.9,31.1,283.7,26.9z M283,32.9l2.7-3c2.6,1.6,6.2,4.1,7.8,5.8l-2.9,3.4C289,37.4,285.5,34.7,283,32.9z M278.2,0.7
	l4.7,1.7c-3,4.9-8,9.1-13.2,11.9c-0.7-0.9-2.2-2.7-3.2-3.4C271.4,8.4,275.9,4.5,278.2,0.7z M280.5,2c2.9,3,8.4,6.2,13.3,7.8
	c-0.7,1.2-1.6,3.4-1.9,4.7c-5.4-2.3-11.3-6.4-14.8-10.2L280.5,2z M300.3,9.5h11.2v3.6h-11.2V9.5z M300.3,15.5h11.3v3.6h-11.3V15.5z
	 M304.3,5.9h3.7v18.5h-3.7V5.9z M305.3,27.2l1.8-0.6c0.7,1.7,1.5,3.9,1.8,5.2l-1.8,0.7C306.7,31.1,305.9,28.9,305.3,27.2z
	 M302.8,27.7l2-0.3c0.5,2.1,1,4.8,1.2,6.6l-2,0.4C303.8,32.6,303.3,29.8,302.8,27.7z M300.4,28l2-0.2c0.2,2.4,0.4,5.5,0.4,7.5
	l-2.2,0.2C300.7,33.5,300.6,30.4,300.4,28z M297.5,27.1L300,28c-0.3,2.7-0.8,6.6-1.5,9l-2.6-0.9C296.6,33.6,297.2,29.9,297.5,27.1z
	 M308.7,21.7h3.9c0,0,0,1.1,0,1.6c-0.2,9.9-0.5,13.6-1.4,14.8c-0.7,0.9-1.4,1.2-2.3,1.4c-0.8,0.2-2.1,0.2-3.4,0.1
	c-0.1-1.1-0.5-2.6-1-3.6c1,0.1,1.9,0.1,2.4,0.1c0.5,0,0.7-0.1,1-0.5c0.5-0.7,0.7-3.9,0.9-13.2V21.7z M312.2,2.8v4h-10.5v14.9h8.9v4
	h-12.8V2.8H312.2z M316.8,19.2v3.9h2.3v-3.9H316.8z M313.6,16.1h8.9v10.1h-8.9V16.1z M327,19.2v3.9h2.5v-3.9H327z M323.8,16.1h9.2
	v10.1h-9.2V16.1z M316.4,26.9l4.1,0.7c-1,4.8-3.1,9.3-5.8,12.1c-0.7-0.7-2.3-2.1-3.2-2.7C313.9,34.7,315.6,31,316.4,26.9z
	 M317.1,10.3h12.1V14h-12.1V10.3z M316.2,33.2l2.3-2.9c1.7,0.9,3.9,2.5,4.9,3.6l-2.5,3.2C320.1,35.9,317.9,34.3,316.2,33.2z
	 M326.4,26.8l4.3,0.7c-0.8,4.9-2.6,9.3-5.2,12.2c-0.7-0.7-2.5-2.1-3.6-2.7C324.4,34.7,325.8,30.9,326.4,26.8z M325.6,34.5l2.7-3
	c2,1.3,4.7,3.2,6.1,4.4l-2.9,3.4C330.3,37.9,327.6,35.9,325.6,34.5z M322,0.7l4.4,1.5c-2.8,4.7-7.3,8.7-12.2,11.5
	c-0.7-0.9-2.1-2.4-3-3.1C315.8,8.2,319.9,4.3,322,0.7z M324.1,2c2.3,2.6,6.8,5.5,10.7,7c-0.7,1.1-1.5,3.3-1.8,4.5
	c-4.4-2.3-9.3-6.1-12.2-9.5L324.1,2z M358.4,4.7h3.5v12.2h-3.5V4.7z M364.1,4.7h3.5v12.2h-3.5V4.7z M366.7,31.9l3.6-1.9
	c2,2,4.1,4.6,5.2,6.4l-3.8,2.2C370.7,36.7,368.6,33.9,366.7,31.9z M354.9,29.9l4.3,1.2c-1.5,2.9-3.7,5.9-5.8,7.7
	c-0.8-0.7-2.6-2-3.6-2.6C351.8,34.7,353.8,32.3,354.9,29.9z M351.4,2.7h23.4v3.9h-23.4V2.7z M353.9,19.9h18.6v3.7h-18.6V19.9z
	 M351.5,25.3h23.5v3.9h-23.5V25.3z M356.2,11.9v3h13.7v-3H356.2z M352.2,8.4h21.9v10.1h-21.9V8.4z M360.8,27.6h4.4v12h-4.4V27.6z
	 M337.7,8.9h13.6v4.5h-13.6V8.9z M342.9,1.2h4.4v38.5h-4.4V1.2z M342.5,12.2l2.5,1.1c-1.1,6.4-3.5,14.3-6.1,18.6
	c-0.5-1.5-1.6-3.7-2.3-5C339.1,23.5,341.5,17,342.5,12.2z M347.2,15c0.9,1.1,4.3,6.4,5,7.6l-2.9,3.3c-0.9-2.4-3.2-7.1-4.3-9.1
	L347.2,15z M381,4.5l2.5-3.3c2.1,0.7,5,2.1,6.4,3.2L387.3,8C385.9,6.9,383.1,5.4,381,4.5z M378,11.5l2.5-3.3c2,0.7,4.9,2.1,6.4,3.1
	l-2.6,3.6C382.9,13.9,380.1,12.3,378,11.5z M379,23.2c2.3-1.9,5.5-5.2,8.3-8.4l2.6,3.3c-2.3,2.9-5,5.9-7.5,8.8L379,23.2z
	 M378.7,28.2h37.5v4.4h-37.5V28.2z M394.6,25.8h5.1v13.9h-5.1V25.8z M394.3,1l4.6,1.4c-2.2,4.6-5.8,9.3-9.1,12.3
	c-0.9-0.9-2.8-2.4-3.9-3.1C389.3,9.1,392.5,5,394.3,1z M392.8,21h22.5v3.9h-22.5V21z M393.5,11H413v3h-19.6V11z M393.5,16H413v3
	h-19.6V16z M401.7,7.2h4.7v16.1h-4.7V7.2z M400.6,2.5l4.8-1.3c0.7,1.5,1.6,3.6,2.1,4.9l-5,1.4C402.1,6.3,401.3,4.1,400.6,2.5z
	 M396,5.4h18.7v3.6H396v17.3h-4.8V7.9l2.5-2.5H396z M13.7,68.9h25.1v3.6H13.7V68.9z M15.5,80.3h21.6v3.5H15.5V80.3z M13.8,85.8h24.6
	v3.7H13.8V85.8z M22.8,60.2h4.6v32.1h-4.6V60.2z M15.9,63.2h20.7v15.1H15.7v-3.7h16.6V67H15.9V63.2z M2.3,62.4h9.3v4.3H2.3V62.4z
	 M5.7,74.1h5.8v4.3h-6L5.7,74.1z M9.8,74.1h0.9l0.8-0.1l2.7,0.6c-1.1,12.3-4.3,20-9.7,24C3.8,97.8,2,96.1,1,95.5
	C6.2,92,9,85.4,9.8,75V74.1z M5.9,80.8C9.1,91.7,16.4,93.5,26,93.5c2.3,0,10.9,0,13.7-0.1c-0.7,1-1.5,3.2-1.8,4.5H25.9
	C14.2,97.9,6.3,95.4,2.3,82L5.9,80.8z M3.7,80.2c-0.3-0.9-1.3-2.8-1.9-3.8c0.8-0.2,2-1.4,2.9-2.7c0.9-1.3,3.6-6.3,5.1-11v-0.2
	l1.7-0.7l3,2c-2.2,5.3-5,10.5-7.5,14.1v0C7,77.9,3.7,79.4,3.7,80.2z M62.2,60.2l4.4,0.9c-1.5,6.8-4.2,13.3-7.5,17.4
	c-0.8-0.7-2.7-2.1-3.7-2.7C58.6,72.1,60.9,66.3,62.2,60.2z M75.9,66.6h4.6c0,0,0,1.6-0.1,2.2C79.7,87.2,79,93.9,77.4,96
	c-0.9,1.4-1.8,1.9-3.2,2.1c-1.1,0.2-2.9,0.2-4.7,0.2c-0.1-1.4-0.6-3.5-1.4-4.8c1.5,0.2,2.9,0.2,3.7,0.2c0.6,0,1-0.2,1.5-0.8
	c1.1-1.4,1.9-7.8,2.6-25.2V66.6z M63.4,66.6H78v4.6H61.1L63.4,66.6z M66.3,68.1l3.6,1.8c-1.6,7.1-5.2,15.2-9.7,19.4
	c-0.9-0.9-2.5-2.1-3.8-2.8C61.1,82.7,64.7,75,66.3,68.1z M72,68.5l3.8,1.8c-2,10.7-6.3,21.8-13.1,27.5c-0.9-1-2.7-2.2-4-2.9
	C65.8,89.8,70.1,79.1,72,68.5z M42.1,82.5c4-0.9,10-2.6,15.7-4.2l0.7,4.3c-5.2,1.6-10.8,3.3-15.1,4.6L42.1,82.5z M49.4,60.2H54v38.5
	h-4.5V60.2z M44,62.5l4.1,0.7c-0.5,5.4-1.5,11.2-3,14.8c-0.7-0.6-2.5-1.7-3.5-2.2C43,72.5,43.7,67.4,44,62.5z M45.1,68.1h12.2v4.7
	H44.2L45.1,68.1z M90.5,67.6H119v4.8H90.5V67.6z M88.8,79.7h28.7v4.7H88.8V79.7z M84.1,92.7h37.1v4.8H84.1V92.7z M100,60.2h5.1v34.9
	H100V60.2z M90.5,60.7l5.1,1.1c-1.8,6.4-4.8,12.7-8,16.6c-1-0.9-3.2-2.3-4.4-3C86.4,72,89.1,66.3,90.5,60.7z M129.8,74.4h32.2v4
	h-32.2V74.4z M127.8,63.5h33.1v3.9h-33.1V63.5z M136.7,81.7h23.3v3.8h-23.3V81.7z M136.2,87.6h22.6v3.7h-22.6V87.6z M132.5,93.7
	h30.3v4h-30.3V93.7z M144.9,79.1h4.8v17.3h-4.8V79.1z M127.4,74.4h4.8v7.4c0,5.1-0.8,12.6-4.6,17.3c-0.7-0.9-2.8-2.6-3.8-3.2
	c3.3-4.1,3.6-9.9,3.6-14.2V74.4z M136.7,78.7l4.1,1.3c-1.5,4.1-4,8.4-7,10.9c-0.3-0.9-1.5-3.4-2.2-4.5
	C133.8,84.5,135.6,81.7,136.7,78.7z M132.6,69.1l3.2-2.4c7.4,1.5,16.9,4,22.6,5.8l-3.1,2.6C149.9,73.2,140.3,70.6,132.6,69.1z
	 M153.7,66.5l3.2,2c-6.2,3-15.8,5.3-23.3,6.6c-0.7-0.8-1.9-2-2.7-2.7C138.7,71.4,148.6,69.1,153.7,66.5z M140.6,61.3l3.3-1.6
	c1.2,1.4,2.7,3.4,3.3,4.8l-3.5,1.8C143.1,64.9,141.8,62.8,140.6,61.3z M168.4,61.3h5v12.4c0,7.2-0.6,18-4.2,25
	c-0.9-0.8-3.2-2-4.5-2.4c3.4-6.4,3.7-15.9,3.7-22.5V61.3z M172.2,61.3H201V71h-28.8v-3.7h23.9v-2.2h-23.9V61.3z M188.4,87.8h10.1
	v2.7h-10.1V87.8z M186.2,73.3h16v3.1h-16V73.3z M197.6,87.8h0.8l0.8-0.1l2.5,1c-3,6.2-9.8,8.9-17.9,10.1c-0.3-1-1.1-2.5-1.8-3.3
	c7.1-0.7,13.3-2.9,15.7-7.2V87.8z M185.2,87c3.1,4.7,9.8,7.4,18.4,8.2c-0.8,0.8-1.8,2.3-2.3,3.4c-9.1-1.2-15.7-4.6-19.5-10.6
	L185.2,87z M188.5,85.9l3.7,1.1c-2,2.9-5.5,5.5-8.7,7.1c-0.7-0.7-2.1-2-2.9-2.7C183.8,90.1,186.9,88.1,188.5,85.9z M188.4,83.1v1.4
	h8.2v-1.4H188.4z M188.4,79.7v1.3h8.2v-1.3H188.4z M184.5,77.6h16.3v9h-16.3V77.6z M186.3,71l3.7,1.3c-1.6,3.4-4.2,7-6.8,9.2
	c-0.4-0.9-1.4-3-2.1-3.9C183.2,75.9,185.2,73.5,186.3,71z M179.3,77.8l3.8,1.4c-2.1,3.6-5.5,7.3-8.8,9.6c-0.3-0.9-1.4-3.2-2-4.2
	C174.9,83,177.7,80.5,179.3,77.8z M175.8,84.7l2.8-2.9l1.4,0.5v16.4h-4.3V84.7z M178.9,71.3l3.8,1.3c-1.6,2.4-4.3,5-6.6,6.6
	c-0.6-0.8-1.9-2.4-2.7-3.2C175.4,74.9,177.6,73.1,178.9,71.3z M212.3,61.7H244v4.4h-31.7V61.7z M212.8,93.6h31.3v4.1h-31.3V93.6z
	 M229,86.4h11.6v3.8H229V86.4z M209.1,61.7h4.6v12.7c0,7-0.5,17.5-3.8,24.3c-0.9-0.7-3-1.8-4.1-2.3c3.1-6.3,3.3-15.5,3.3-22V61.7z
	 M226.4,83h4.8v12.9h-4.8V83z M217.2,85.9h4.7v10h-4.7V85.9z M214.6,72.4h12.8v3.4h-12.8V72.4z M219,68.2h4v15.1h-4V68.2z
	 M218.5,73.9l2.7,1c-1.3,3.2-3.7,6.6-6.2,8.4c-0.6-0.9-1.8-2.3-2.6-3C214.8,79.1,217.2,76.4,218.5,73.9z M228.3,72.4H243v3.4h-14.7
	V72.4z M233.1,68.2h4.1v15.1h-4.1V68.2z M232.1,73.9l2.7,0.9c-1.2,3.2-3.6,6.6-6,8.5c-0.6-0.9-1.8-2.3-2.7-3
	C228.5,79,231,76.3,232.1,73.9z M222.9,75.4c0.9,0.5,3.7,2.3,4.5,2.8l-2.3,3c-0.9-1-3.3-3.2-4.4-4.1L222.9,75.4z M224.1,66.3l3,2.5
	c-3.2,1.2-7.9,1.8-11.8,2c-0.2-0.8-0.7-2-1.1-2.8C217.8,67.8,221.9,67.2,224.1,66.3z M238.9,66.1l3,2.5c-3.5,1.3-8.7,2-13.1,2.2
	c-0.1-0.7-0.6-2-1-2.7C231.8,67.7,236.4,67.1,238.9,66.1z M237.3,75.5c1.4,0.8,5.9,3.8,7,4.6l-2.2,3.2c-1.6-1.5-5.3-4.5-7-5.7
	L237.3,75.5z M277.2,70.7h26.6v3.2h-26.6V70.7z M284.5,78V80h11.4V78H284.5z M280.2,75.3h20.3v7.5h-20.3V75.3z M295.2,64v2.6h2.6V64
	H295.2z M288.9,64v2.6h2.5V64H288.9z M282.7,64v2.6h2.5V64H282.7z M278.8,61.3h23.2v8h-23.2V61.3z M300.1,82.1l3,2.3
	c-1.7,1.4-3.9,2.7-5.4,3.5l-2.6-2.1C296.6,85,298.8,83.3,300.1,82.1z M289.3,80.8l3,1.4c-3.2,2.9-8.7,5.7-13.1,7.1
	c-0.5-0.8-1.6-2.1-2.4-2.8C281.1,85.3,286.5,83.1,289.3,80.8z M283.1,94.1l-0.4-3.3l1.6-1.3l8.5-2.4c0.1,1,0.3,2.6,0.5,3.4
	C285.2,93,283.9,93.5,283.1,94.1z M289.9,85.5l3-2.1c3.2,2,7.7,5,10.1,6.8l-3.1,2.5C297.7,90.9,293.2,87.7,289.9,85.5z M283.1,94.1
	c-0.2-0.9-0.8-2.4-1.3-3.1c0.7-0.2,1.4-0.8,1.4-2.3v-3.6h3.9v6.2C287.1,91.3,283.1,92.9,283.1,94.1z M267.3,62.4l3.7-2.2
	c1.8,2,4,4.6,5.1,6.2l-3.9,2.6C271.2,67.3,269,64.4,267.3,62.4z M266.2,69.7h8v3.9h-8V69.7z M274.5,87.6c2.2,5.5,7,6.2,14.5,6.2
	c4.4,0,11.2-0.2,15.9-0.7c-0.7,1-1.3,3.2-1.6,4.5c-4.3,0.3-9.6,0.4-14.4,0.4c-9.6,0-14.7-1.2-17.7-9.1L274.5,87.6z M272.6,79.7h1.5
	l0.8-0.1l2.1,0.8c-1.1,8.9-4,15.1-8.2,18.3c-0.7-0.9-2.3-2.6-3.2-3.2c3.9-2.8,6.3-8,7.1-15.1V79.7z M267.2,84.2v-3.5l1.8-0.9h6v3.8
	h-5.2C268.8,83.5,267.6,83.8,267.2,84.2z M267.2,84.2c-0.2-1-1.1-3.1-1.6-3.9c0.7-0.2,1.3-0.5,2-1.4c1.1-1.1,4.3-6.5,5.5-8.8V70
	l1.2-0.5l3,1.1c-1.6,2.9-4.8,8.2-6.8,10.9C270.5,81.5,267.2,83.1,267.2,84.2z M324.1,60.3l4.8,1.1c-1.7,6.5-4.6,12.9-7.9,17
	c-0.9-0.9-2.8-2.5-3.9-3.2C320.2,71.7,322.7,66,324.1,60.3z M322.9,78.6l4.8,1c-1.1,5.2-3.3,10.5-5.6,13.8c-0.9-0.8-3-2.1-4.2-2.7
	C320.2,87.8,322,83.1,322.9,78.6z M325,67.5h16.8v4.6h-18.7L325,67.5z M329.7,69.5h4.9v23.7c0,2.4-0.4,3.7-1.9,4.6
	c-1.4,0.8-3.4,1-6.1,1c-0.2-1.4-1-3.6-1.7-5c1.7,0.1,3.4,0,4,0c0.5,0,0.7-0.1,0.7-0.7V69.5z M336,79.6l4.4-1.5
	c2.1,4.2,3.9,9.7,4.5,13.4l-4.7,1.6C339.7,89.5,338,83.8,336,79.6z M340.5,67.5h0.7l0.8-0.1l3.4,0.6c-0.5,3.4-1.2,7.2-1.8,9.6
	l-4.2-0.7c0.4-2.2,0.8-5.9,1.1-8.7V67.5z M315.3,60.4l4.6,1.4c-2.7,7-6.9,14.4-11.4,19.1c-0.5-1.2-1.8-3.9-2.6-5.1
	C309.6,72,313.2,66.2,315.3,60.4z M311.3,71.7L316,67l0,0v31.6h-4.7V71.7z M370.7,89.9H382v4.6h-11.2V89.9z M368.5,63.7h15.7v33.2
	h-5V68.3h-6v29.2h-4.8V63.7z M355.7,67.6h5v7.9c0,7-1.5,17.1-9.7,23.1c-0.6-1-2.5-3-3.5-3.7c7.5-5.4,8.2-13.4,8.2-19.5V67.6z
	 M352.4,65.4h14.1v4.6h-14.1V65.4z M348.1,76.4h19.4v4.7h-19.4V76.4z M359.5,82.2c1.7,1.5,7.1,7.7,8.4,9.2l-3.3,4.1
	c-1.9-3-5.9-8.1-8-10.5L359.5,82.2z M351.9,60.2l4.7,0.9c-1.1,5.4-3,10.8-5.4,14.3c-0.9-0.8-2.9-2.2-3.9-2.8
	C349.5,69.6,351.1,64.9,351.9,60.2z M406.9,83.8h14.5v3.5h-14.5V83.8z M402.8,63h23v3.5h-23V63z M404.2,68.1h20.3v3.3h-20.3V68.1z
	 M401.8,73.2h25.3v3.5h-25.3V73.2z M406.9,89.1h14.6v3.4h-14.6V89.1z M420.2,78.3h4.6V94c0,2.1-0.4,3.3-1.9,4
	c-1.4,0.7-3.5,0.7-6.3,0.7c-0.2-1.2-0.8-3-1.4-4.2c1.7,0.1,3.6,0.1,4.2,0c0.5,0,0.7-0.2,0.7-0.7V78.3z M411.9,60.2h4.9v14.1h-4.9
	V60.2z M394.7,60.1h4.6v38.5h-4.6V60.1z M390.5,68.3l3.7,0.5c-0.2,3.5-1,8.4-1.9,11.6l-3.9-1.4C389.4,76.3,390.2,71.7,390.5,68.3z
	 M398.2,67l3.2-1.4c1,2.1,2.3,4.8,2.8,6.4l-3.4,1.7C400.4,72,399.2,69.2,398.2,67z M404,78.3h4.6v7.5c0,4.1-0.6,9.7-3.6,13.2
	c-0.7-0.9-2.6-2.7-3.5-3.3c2.4-2.9,2.6-6.8,2.6-10V78.3z M406.7,78.3h16v3.4h-16V78.3z M443.1,62.9h8v3.6h-8V62.9z M459,62.9h9.3
	v3.6H459V62.9z M449.7,60.2h4.2v7.9h-4.2V60.2z M456.9,60.2h4.3V68h-4.3V60.2z M459.7,71.8V74h3.2v-2.3H459.7z M456.2,68.8h10.4V77
	h-10.4V68.8z M447.9,71.8V74h3v-2.3H447.9z M444.4,68.8h10.2V77h-10.2V68.8z M448,84.3h17.6v3.2H448V84.3z M448,89.1h17.6v3.2H448
	V89.1z M447.6,93.9H468v3.5h-20.4V93.9z M454.3,81.6h4.3v14.8h-4.3V81.6z M449.8,79.7h17.3v3.1h-17.3v15.9h-4.3V81.6l1.8-1.9H449.8z
	 M447.8,76.2l3.9,1.4c-1.8,4-4.8,8.1-7.7,10.6c-0.4-0.9-1.6-3.1-2.3-4.1C444.1,82.2,446.4,79.3,447.8,76.2z M453.7,78.1l4.2-1.1
	c0.6,1.4,1.2,3.4,1.5,4.6l-4.3,1.3C454.8,81.7,454.2,79.6,453.7,78.1z M430.4,67.9h13.1v4.5h-13.1V67.9z M435.4,60.2h4.3v38.5h-4.3
	V60.2z M435.1,71.2l2.5,1.1c-1.1,6.4-3.4,14.3-5.9,18.6c-0.5-1.5-1.5-3.7-2.2-5C431.8,82.5,434.1,76,435.1,71.2z M439.5,74
	c0.8,0.9,3.8,5,4.4,6.1l-2.6,3.3c-0.8-2-2.9-6-3.9-7.7L439.5,74z"/></svg>