<svg width="550" height="99" fill="none" xmlns="http://www.w3.org/2000/svg"><path d="M3.223 36V11.195C3.223 6.439 5.478 2.749 11.218 2.749C13.022 2.749 14.58 3.118 15.605 3.487L14.457 7.997C13.678 7.669 12.817 7.464 12.038 7.464C10.234 7.464 9.25 8.571 9.25 11.113V36H3.223ZM0.148 17.796V13.327L3.592 13.081H13.596V17.796H0.148ZM17.45 36V13.081H23.477V36H17.45ZM20.443 9.35C18.393 9.35 16.958 8.038 16.958 6.029C16.958 4.061 18.393 2.79 20.443 2.79C22.534 2.79 24.01 4.061 24.01 6.029C24.01 8.038 22.534 9.35 20.443 9.35ZM38.27 36.574C32.817 36.574 30.726 33.13 30.726 28.005V17.796H27.528V13.327L31.095 13.081L31.751 6.849H36.753V13.081H42.452V17.796H36.753V28.005C36.753 30.629 37.86 31.859 39.869 31.859C40.648 31.859 41.509 31.572 42.165 31.326L43.149 35.713C41.919 36.123 40.32 36.574 38.27 36.574ZM50.9348 36L45.0308 13.081H51.0168L53.5588 24.397C53.9688 26.652 54.2558 28.825 54.6658 31.08H54.8708C55.2808 28.825 55.6908 26.611 56.2648 24.397L59.0528 13.081H64.3828L67.2528 24.397C67.7858 26.652 68.2368 28.825 68.7288 31.08H68.9338C69.3438 28.825 69.6308 26.652 70.0818 24.397L72.5418 13.081H78.1588L72.4598 36H65.3668L62.9478 25.996C62.4558 23.864 62.0868 21.773 61.6358 19.313H61.4308C61.0208 21.773 60.6518 23.864 60.1598 26.037L57.8228 36H50.9348ZM92.0008 36.574C85.5638 36.574 80.5618 32.146 80.5618 24.561C80.5618 17.099 85.8098 12.507 91.2218 12.507C97.5768 12.507 100.816 17.099 100.816 23.454C100.816 24.602 100.693 25.668 100.57 26.242H86.3838C86.9168 30.014 89.3768 31.941 92.7798 31.941C94.6248 31.941 96.2648 31.367 97.9458 30.342L99.9548 34.073C97.6998 35.631 94.8298 36.574 92.0008 36.574ZM86.3018 22.224H95.6908C95.6908 19.108 94.2968 17.14 91.3448 17.14C88.9258 17.14 86.7938 18.862 86.3018 22.224ZM111.478 36.574C107.255 36.574 105.82 33.827 105.82 29.563V3.323H111.847V29.809C111.847 31.244 112.462 31.695 113.036 31.695C113.241 31.695 113.405 31.695 113.815 31.613L114.553 36.082C113.856 36.328 112.913 36.574 111.478 36.574ZM132.183 1.273L136.611 2.503C134.684 9.391 131.486 16.935 127.796 21.773C127.468 20.543 126.32 17.714 125.582 16.443C128.411 12.63 130.748 6.972 132.183 1.273ZM129.682 13.163L133.905 8.94L133.987 8.981V39.649H129.682V13.163ZM151.535 1.519H155.594V33.95H151.535V1.519ZM145.467 9.637H164.573V13.204H145.467V9.637ZM146 26.324H163.343V30.137H146V26.324ZM146.861 20.707H162.277V24.397H146.861V20.707ZM136.283 3.774H142.802V7.956H136.283V3.774ZM138.538 22.511C141.244 33.048 147.517 34.77 155.102 34.811C156.783 34.811 162.523 34.811 164.614 34.729C163.999 35.754 163.384 37.722 163.138 38.952H154.897C145.385 38.952 138.538 36.492 135.094 23.618L138.538 22.511ZM147.107 4.266H162.113V18.78H147.107V15.377H158.423V7.628H147.107V4.266ZM138.702 15.787H142.843V19.559H137.513L138.702 15.787ZM142.023 15.787H142.843L143.581 15.705L146.123 16.279C145.139 28.374 142.105 35.836 136.98 39.649C136.283 38.788 134.643 37.271 133.741 36.697C138.661 33.335 141.285 26.98 142.023 16.566V15.787ZM136.734 20.871C136.365 20.01 135.381 18.288 134.807 17.427C135.586 17.181 136.775 15.992 137.554 14.68C138.251 13.409 140.67 8.653 141.941 4.102V3.897L143.54 3.241L146.287 5.127C144.442 10.129 141.982 15.131 139.809 18.575V18.657C139.809 18.657 136.734 20.01 136.734 20.871ZM175.684 15.787H199.505V19.231H175.684V15.787ZM177.406 10.375H201.801V24.766H176.914V21.445H197.168V13.696H177.406V10.375ZM186.713 8.038H191.715V34.975C191.715 37.435 191.141 38.46 189.501 39.116C187.779 39.731 185.442 39.772 181.998 39.772C181.752 38.583 181.137 36.861 180.481 35.754C182.531 35.877 185.073 35.877 185.729 35.836C186.467 35.795 186.713 35.59 186.713 34.934V8.038ZM175.848 26.857L178.431 24.151C180.276 25.176 182.982 26.775 184.376 27.8L181.629 30.793C180.399 29.727 177.775 28.005 175.848 26.857ZM199.915 24.479L203.523 27.39C200.981 29.071 198.029 30.834 195.815 31.859L193.027 29.399C195.2 28.21 198.193 26.037 199.915 24.479ZM174.044 33.212C177.365 32.105 182.572 30.096 187.451 28.169L188.271 31.531C184.007 33.54 179.456 35.631 175.848 37.23L174.044 33.212ZM172.609 4.389H204.999V8.653H172.609V4.389ZM170.272 4.389H174.946V16.32C174.946 23.003 174.331 33.13 170.641 39.526C169.78 38.706 167.73 37.353 166.623 36.861C170.026 30.998 170.272 22.388 170.272 16.32V4.389ZM184.663 1.97L189.583 0.739999C190.567 2.298 191.633 4.43 192.166 5.783L187.123 7.3C186.672 5.865 185.565 3.61 184.663 1.97ZM199.423 15.418H205.45V19.6H199.423V15.418ZM188.886 31.162L191.018 28.169C195.405 29.85 201.801 32.638 205.081 34.401L202.826 37.845C199.71 36 193.437 33.048 188.886 31.162ZM220.497 9.883H245.63V13.532H220.497V9.883ZM222.26 21.281H243.867V24.766H222.26V21.281ZM220.62 26.816H245.179V30.547H220.62V26.816ZM229.64 1.232H234.273V33.335H229.64V1.232ZM222.711 4.225H243.375V19.313H222.506V15.582H239.07V7.956H222.711V4.225ZM209.099 3.446H218.406V7.71H209.099V3.446ZM212.543 15.131H218.365V19.395H212.379L212.543 15.131ZM216.643 15.131H217.504L218.324 15.049L221.071 15.664C220.005 27.923 216.725 35.713 211.354 39.69C210.616 38.788 208.812 37.107 207.787 36.492C212.994 32.966 215.823 26.365 216.643 15.992V15.131ZM212.666 21.773C215.864 32.679 223.162 34.483 232.838 34.483C235.175 34.483 243.703 34.483 246.573 34.401C245.876 35.426 245.056 37.558 244.81 38.87H232.715C220.989 38.87 213.076 36.41 209.099 23.003L212.666 21.773ZM210.493 21.24C210.165 20.338 209.222 18.452 208.607 17.468C209.427 17.222 210.616 16.115 211.477 14.721C212.338 13.409 215.044 8.448 216.602 3.733V3.487L218.324 2.79L221.276 4.799C219.062 10.129 216.233 15.295 213.773 18.862V18.903C213.773 18.903 210.493 20.379 210.493 21.24ZM250.427 12.056H264.818V15.459H250.427V12.056ZM255.47 13.081H259.939V21.568H255.47V13.081ZM249.976 21.076C253.748 20.707 259.324 20.051 264.695 19.354L264.818 23.085C259.816 23.782 254.527 24.438 250.55 24.971L249.976 21.076ZM270.025 12.794H274.125V16.484C274.125 19.846 272.977 23.331 267.688 25.381C267.073 24.602 265.392 23.167 264.49 22.593C269.287 20.871 270.025 18.657 270.025 16.361V12.794ZM276.954 11.892H281.587V19.682C281.587 20.338 281.546 20.748 281.669 20.912C281.751 21.035 281.915 21.076 282.079 21.076C282.243 21.076 282.53 21.076 282.735 21.076C282.899 21.076 283.104 21.035 283.227 20.953C283.35 20.871 283.473 20.666 283.555 20.174C283.637 19.682 283.678 18.616 283.719 17.304C284.457 17.96 285.851 18.616 286.876 18.985C286.835 20.543 286.589 22.224 286.343 22.962C286.056 23.659 285.605 24.192 284.949 24.52C284.416 24.807 283.514 24.971 282.817 24.971C282.202 24.971 281.3 24.971 280.767 24.971C279.742 24.971 278.635 24.643 277.938 23.987C277.241 23.249 276.954 22.388 276.954 19.805V11.892ZM249.648 26.529H286.958V30.383H249.648V26.529ZM265.884 24.151H270.64V39.649H265.884V24.151ZM265.392 18.493L267.073 15.705C270.189 17.017 274.74 19.108 277.077 20.379L275.355 23.536C273.1 22.183 268.59 19.969 265.392 18.493ZM266.212 11.892H278.471V15.09H266.212V11.892ZM254.937 3.405H267.77V7.095H254.937V3.405ZM271.788 3.405H287.245V7.095H271.788V3.405ZM255.142 0.821998L259.447 2.134C257.725 5.619 254.896 9.145 252.272 11.359C251.575 10.498 249.935 8.776 248.992 7.956C251.452 6.234 253.789 3.528 255.142 0.821998ZM271.952 0.821998L276.421 2.011C274.986 5.578 272.526 9.186 270.066 11.4C269.246 10.621 267.442 9.145 266.417 8.448C268.795 6.603 270.845 3.733 271.952 0.821998ZM257.479 8.325L260.595 5.947C261.866 7.095 263.506 8.776 264.244 9.883L260.964 12.507C260.267 11.359 258.709 9.555 257.479 8.325ZM275.396 8.12L278.758 5.865C279.988 6.931 281.464 8.448 282.202 9.473L278.635 11.974C277.979 10.908 276.585 9.268 275.396 8.12ZM260.144 30.629L264.162 32.105C261.62 35.344 257.274 38.05 252.805 39.28C252.108 38.091 250.632 36.246 249.566 35.262C253.707 34.442 257.93 32.72 260.144 30.629ZM272.649 33.294L275.97 30.301C279.414 31.695 284.17 33.95 286.63 35.631L283.063 38.952C280.808 37.312 276.134 34.852 272.649 33.294ZM292.288 4.307H326.482V8.284H292.288V4.307ZM293.805 34.524H325.17V38.542H293.805V34.524ZM300.857 10.047H317.585V13.491H300.857V10.047ZM300.857 15.295H317.585V18.739H300.857V15.295ZM290.115 20.543H328.45V24.561H290.115V20.543ZM299.422 28.005H319.225V31.859H299.422V28.005ZM297.946 1.191H302.907V22.757H297.946V1.191ZM315.822 1.232H320.824V22.757H315.822V1.232ZM306.679 25.422H311.722V36.861H306.679V25.422ZM300.488 21.691L304.588 23.208C301.964 27.554 297.536 31.408 292.862 33.499C292.165 32.351 290.771 30.629 289.746 29.727C294.01 28.169 298.315 25.012 300.488 21.691ZM318.282 21.691C320.455 24.848 324.678 27.8 328.901 29.317C327.835 30.219 326.4 31.982 325.662 33.13C321.234 31.162 316.97 27.267 314.387 23.167L318.282 21.691ZM339.233 13.86H361.332V18.288H339.233V13.86ZM348.13 8.448H352.927C352.64 20.297 351.738 28.579 341.816 33.048C341.242 31.818 339.889 29.973 338.864 29.112C347.556 25.422 347.884 18.739 348.13 8.448ZM348.089 22.06L351.369 19.6C355.264 22.552 359.569 26.652 361.701 29.44L358.257 32.474C356.207 29.604 351.82 25.135 348.089 22.06ZM332.714 2.585H368.015V39.69H363.218V7.013H337.306V39.69H332.714V2.585ZM335.625 33.786H365.637V37.845H335.625V33.786ZM1.624 62.938H37.376V67.981H1.624V62.938ZM21.427 76.673L25.24 73.475C29.627 76.673 35.941 81.388 38.934 84.668L34.752 88.44C32.046 85.201 25.978 80.158 21.427 76.673ZM19.787 64.783L25.281 66.71C20.607 75.361 13.145 83.725 3.715 88.645C2.936 87.333 1.378 85.283 0.353 84.176C9.127 80.035 16.384 72.081 19.787 64.783ZM16.794 74.705L22.206 69.334V98.608H16.794V74.705ZM63.575 88.194L67.839 85.652C71.529 88.563 76.572 92.786 79.032 95.697L74.399 98.608C72.226 95.738 67.347 91.269 63.575 88.194ZM53.161 85.816L58.409 87.825C55.129 91.843 50.332 96.107 45.945 98.772C44.92 97.747 43.034 96.189 41.886 95.369C46.15 92.991 50.865 89.014 53.161 85.816ZM51.111 67.899V78.231H69.807V67.899H51.111ZM46.027 63.184H75.096V82.905H46.027V63.184ZM83.378 77.698H119.704V82.044H83.378V77.698ZM101.746 85.119H117.08V89.342H101.746V85.119ZM99.45 79.912H104.411V95.082H99.45V79.912ZM93.095 86.472C95.35 92.458 100.557 93.401 107.732 93.442C109.987 93.483 117.9 93.442 120.852 93.36C120.155 94.426 119.417 96.599 119.171 98.034H107.445C98.015 98.034 92.398 96.353 89.036 87.784L93.095 86.472ZM89.528 82.905L94.448 83.602C93.095 90.367 90.143 95.533 85.592 98.772C84.854 97.87 82.968 96.066 81.902 95.328C86.084 92.745 88.585 88.399 89.528 82.905ZM91.947 70.359V72.409H110.766V70.359H91.947ZM91.947 65.07V67.12H110.766V65.07H91.947ZM87.191 61.585H115.768V75.894H87.191V61.585ZM130.487 67.612H159.023V72.409H130.487V67.612ZM128.806 79.707H157.465V84.422H128.806V79.707ZM124.05 92.704H161.114V97.501H124.05V92.704ZM139.999 60.191H145.124V95.082H139.999V60.191ZM130.528 60.683L135.612 61.831C133.808 68.186 130.815 74.5 127.617 78.436C126.633 77.575 124.46 76.14 123.189 75.443C126.428 71.999 129.052 66.341 130.528 60.683ZM179.072 82.044H200.556V98.485H195.882V86.513H183.541V98.649H179.072V82.044ZM197.317 60.191L201.089 64.045C195.062 66.341 186.739 67.612 179.482 68.268C179.277 67.079 178.621 65.152 178.088 64.045C185.058 63.348 192.766 61.995 197.317 60.191ZM187.477 64.783H192.151V84.627H187.477V64.783ZM176.489 72.122H202.647V76.837H176.489V72.122ZM182.27 92.54H197.809V96.968H182.27V92.54ZM166.403 64.25L169.15 60.724C171.446 61.872 175.013 63.676 176.776 64.824L173.865 68.801C172.225 67.571 168.74 65.603 166.403 64.25ZM164.394 75.607L167.059 71.958C169.396 73.065 173.045 74.828 174.849 75.976L172.102 80.035C170.421 78.887 166.854 76.919 164.394 75.607ZM165.009 94.877C167.223 91.802 170.38 86.677 172.84 81.962L176.448 85.201C174.275 89.547 171.651 94.221 169.191 98.198L165.009 94.877ZM213.471 92.95H235.611V97.214H213.471V92.95ZM210.765 83.602H238.522V98.608H233.479V87.866H215.644V98.731H210.765V83.602ZM206.542 63.512H222.573V67.694H206.542V63.512ZM205.845 71.876C210.109 71.548 216.587 70.851 222.737 70.195L222.86 74.172C216.997 74.91 210.888 75.648 206.337 76.181L205.845 71.876ZM212.61 60.15H217.284V78.231C217.284 80.363 216.915 81.306 215.48 81.962C214.127 82.536 212.241 82.618 209.576 82.618C209.412 81.47 208.838 79.789 208.305 78.723C209.74 78.805 211.462 78.805 211.913 78.764C212.446 78.764 212.61 78.6 212.61 78.149V60.15ZM225.73 69.334H243.114V73.393H225.73V69.334ZM233.397 70.605H238.112V82.7H233.397V70.605ZM238.194 60.273L242.007 63.512C237.374 65.111 231.019 66.218 225.607 66.792C225.443 65.808 224.828 64.127 224.336 63.225C229.338 62.61 234.914 61.503 238.194 60.273ZM224.336 63.225H228.641V69.908C228.641 74.746 227.985 79.707 223.229 83.11C222.491 82.085 220.81 80.568 219.703 79.912C223.803 77.206 224.336 73.434 224.336 69.826V63.225ZM246.845 87.251H284.032V91.187H246.845V87.251ZM254.84 80.24H272.798V83.725H254.84V80.24ZM263.491 86.103H268.329V94.098C268.329 96.312 267.878 97.378 266.156 98.034C264.475 98.649 262.22 98.649 259.145 98.649C258.899 97.378 258.202 95.697 257.587 94.508C259.555 94.59 262.015 94.59 262.671 94.59C263.327 94.59 263.491 94.467 263.491 93.934V86.103ZM271.568 80.24H272.757L273.782 79.994L276.57 82.536C273.495 84.75 269.477 87.046 265.705 88.604C265.213 87.866 264.106 86.677 263.491 86.103C266.402 84.873 269.928 82.618 271.568 81.06V80.24ZM247.542 74.951H283.54V83.397H278.661V78.518H252.216V83.397H247.542V74.951ZM276.693 61.544H281.367C281.121 66.587 280.711 72.819 280.26 76.714H275.545C276.078 72.696 276.529 66.464 276.693 61.544ZM271.035 61.544H278.62V64.619H271.035V61.544ZM258.202 60.396L260.252 63.225C257.669 64.209 254.102 64.947 251.601 65.357L249.879 62.651C252.339 62.241 255.988 61.134 258.202 60.396ZM252.257 66.013H259.924V69.047H252.257V66.013ZM252.38 70.482H260.047V73.516H252.38V70.482ZM271.281 66.013H278.21V69.047H271.281V66.013ZM271.076 70.482H277.964V73.516H271.076V70.482ZM267.017 60.437L270.215 61.339C268.37 63.881 265.295 66.259 262.507 67.694C261.933 67.12 260.703 66.013 259.924 65.521C262.753 64.291 265.5 62.446 267.017 60.437ZM260.785 62.61L263.04 60.724C265.541 61.913 268.698 63.84 270.338 65.275L267.96 67.366C266.484 65.931 263.327 63.922 260.785 62.61ZM267.058 67.366L270.256 68.309C268.288 71.056 265.049 73.598 262.056 75.156C261.523 74.541 260.293 73.27 259.596 72.737C262.507 71.466 265.459 69.498 267.058 67.366ZM260.58 69.621L262.876 67.735C265.5 69.047 268.903 71.138 270.584 72.696L268.165 74.828C266.607 73.27 263.286 71.056 260.58 69.621ZM249.879 62.651L254.553 63.84L255.291 76.509H250.699L249.879 62.651ZM307.038 62.036H343.159V66.423H307.038V62.036ZM322.823 63.922H327.989V80.486C327.989 88.768 324.586 95.656 309.129 98.731C308.596 97.624 307.202 95.492 306.136 94.385C320.937 92.13 322.823 86.964 322.823 80.404V63.922ZM315.238 79.133V81.839H335.656V79.133H315.238ZM315.238 72.819V75.443H335.656V72.819H315.238ZM310.605 68.842H340.576V85.775H310.605V68.842ZM315.484 85.611C321.224 92.95 330.818 93.524 344.799 93.401C343.938 94.549 342.995 96.64 342.749 98.28C328.276 97.993 317.452 96.64 311.179 87.333L315.484 85.611ZM347.956 77.698H384.282V82.044H347.956V77.698ZM366.324 85.119H381.658V89.342H366.324V85.119ZM364.028 79.912H368.989V95.082H364.028V79.912ZM357.673 86.472C359.928 92.458 365.135 93.401 372.31 93.442C374.565 93.483 382.478 93.442 385.43 93.36C384.733 94.426 383.995 96.599 383.749 98.034H372.023C362.593 98.034 356.976 96.353 353.614 87.784L357.673 86.472ZM354.106 82.905L359.026 83.602C357.673 90.367 354.721 95.533 350.17 98.772C349.432 97.87 347.546 96.066 346.48 95.328C350.662 92.745 353.163 88.399 354.106 82.905ZM356.525 70.359V72.409H375.344V70.359H356.525ZM356.525 65.07V67.12H375.344V65.07H356.525ZM351.769 61.585H380.346V75.894H351.769V61.585ZM418.394 64.824V67.489H420.977V64.824H418.394ZM412.203 64.824V67.489H414.704V64.824H412.203ZM406.053 64.824V67.489H408.472V64.824H406.053ZM402.24 61.544H424.954V70.728H402.24V61.544ZM402.732 72.327H424.339V75.853H402.732V72.327ZM401.092 77.739H425.487V81.429H401.092V77.739ZM401.953 84.463H424.544V88.112H401.953V84.463ZM400.354 89.998H426.102V93.606H400.354V89.998ZM410.932 69.826H415.565V79.338H410.932V69.826ZM410.932 86.226H415.565V98.69H410.932V86.226ZM405.602 82.044L409.62 81.183C410.071 82.29 410.645 83.725 410.85 84.627L406.668 85.652C406.504 84.668 406.053 83.151 405.602 82.044ZM417.533 81.06L422.043 82.126C421.1 83.725 420.239 85.242 419.542 86.349L415.893 85.324C416.467 84.053 417.164 82.29 417.533 81.06ZM387.521 80.773C390.76 80.035 395.516 78.764 400.108 77.493L400.723 81.921C396.582 83.192 392.154 84.463 388.587 85.488L387.521 80.773ZM388.136 67.981H400.518V72.491H388.136V67.981ZM392.4 60.232H396.91V93.442C396.91 95.697 396.5 96.968 395.229 97.706C393.999 98.485 392.236 98.649 389.571 98.649C389.448 97.419 388.874 95.41 388.3 94.057C389.776 94.139 391.211 94.139 391.703 94.098C392.195 94.098 392.4 93.975 392.4 93.442V60.232ZM429.382 69.703H442.215V74.336H429.382V69.703ZM433.769 60.765H438.361V87.948H433.769V60.765ZM428.48 87.251C431.842 86.062 437.049 83.889 441.969 81.839L443.076 86.185C438.812 88.276 434.179 90.49 430.448 92.212L428.48 87.251ZM452.875 60.191H457.508V89.137H452.875V60.191ZM440.739 76.673L461.977 67.653L463.781 71.835L442.584 81.019L440.739 76.673ZM444.798 64.168H449.472V90.736C449.472 93.155 449.841 93.483 452.383 93.483C453.613 93.483 459.066 93.483 460.337 93.483C462.592 93.483 463.002 92.581 463.33 88.358C464.396 89.096 466.323 89.875 467.635 90.121C467.02 95.943 465.544 97.87 460.747 97.87C459.394 97.87 453.244 97.87 451.973 97.87C446.356 97.87 444.798 96.394 444.798 90.695V64.168ZM460.788 68.801H460.337L461.977 67.653L465.708 68.801L465.503 69.539C465.257 75.279 464.724 82.782 463.74 87.743L459.722 86.595C460.337 82.208 460.706 74.541 460.788 68.801ZM489.201 61.831H505.929V80.732H489.201V76.509H501.173V66.054H489.201V61.831ZM489.488 69.252H503.469V73.229H489.488V69.252ZM497.975 78.231C499.533 85.488 502.854 91.515 508.799 94.303C507.692 95.246 506.175 97.173 505.437 98.526C499.041 94.918 495.802 87.825 493.998 78.969L497.975 78.231ZM505.15 81.142L508.348 84.627C506.052 86.39 503.305 88.358 501.214 89.547L498.631 86.513C500.599 85.242 503.51 82.905 505.15 81.142ZM486.454 98.813L486.044 94.549L488.053 92.991L496.868 91.064C496.827 92.458 496.909 94.467 497.073 95.533C488.996 97.583 487.438 98.157 486.454 98.813ZM486.454 98.813C486.126 97.706 485.101 95.779 484.363 94.959C485.224 94.426 486.29 93.278 486.29 91.392V61.831H491.087V94.344C491.087 94.344 486.454 97.05 486.454 98.813ZM473.703 62.61H483.42V92.253H473.703V87.948H479.443V66.915H473.703V62.61ZM473.785 71.056H482.19V75.197H473.785V71.056ZM473.785 79.461H482.19V83.602H473.785V79.461ZM471.12 62.61H475.302V95.615H471.12V62.61ZM520.402 72.163V75.156H539.754V72.163H520.402ZM520.402 65.562V68.473H539.754V65.562H520.402ZM515.482 61.585H544.879V79.092H515.482V61.585ZM535.695 76.509C538.401 80.199 543.731 83.233 549.471 84.668C548.364 85.652 546.888 87.579 546.191 88.85C540.164 86.882 534.834 82.946 531.554 78.026L535.695 76.509ZM524.502 76.468L528.848 78.149C525.527 82.905 519.992 86.923 514.17 89.014C513.432 87.784 511.956 85.939 510.89 84.955C516.425 83.397 521.796 80.158 524.502 76.468ZM521.591 83.971H526.675V86.8C526.675 90.736 525.486 95.984 517.286 98.977C516.63 97.747 514.99 95.902 513.924 94.959C520.771 92.745 521.591 89.26 521.591 86.636V83.971ZM527.577 63.594H532.538V77.124H527.577V63.594ZM534.096 84.053H539.221V98.567H534.096V84.053Z" fill="black"/></svg>