<svg width="668" height="104" viewBox="0 0 668 104" fill="none" xmlns="http://www.w3.org/2000/svg">
<g opacity="0.5">
<mask id="mask0_237_678" style="mask-type:alpha" maskUnits="userSpaceOnUse" x="0" y="0" width="668" height="104">
<rect y="0.88501" width="667.5" height="102.23" fill="url(#paint0_linear_237_678)"/>
</mask>
<g mask="url(#mask0_237_678)">
<path d="M1.93549 83.2671L13.6486 74.8894C17.8678 82.2708 25.717 86.49 34.7964 86.49C45.4006 86.49 53.423 81.3958 53.423 74.1877C53.423 65.4635 41.0082 60.1874 29.9968 55.4397C18.9247 50.5188 6.62247 44.7836 6.62247 29.9602C6.62247 15.1368 20.0337 3.71826 37.0229 3.71826C50.4948 3.71826 60.5705 10.2159 64.4344 20.5862L53.423 28.2015C50.4948 21.8164 43.9884 18.2471 37.1355 18.2471C28.4633 18.2471 21.5585 23.6358 21.5585 30.3154C21.5585 37.6968 30.2827 40.3305 41.7705 45.2514C56.7065 51.8097 68.307 59.0178 68.307 73.8931C68.307 90.6485 53.7782 101.426 34.6231 101.426C19.098 101.426 7.32422 94.1659 1.93549 83.2671Z" fill="white"/>
<path d="M160.47 5.41602V99.8402H145.647V59.9531H104.763V99.8402H90.0006V5.41602H104.763V45.2511H145.647V5.41602H160.47Z" fill="white"/>
<path d="M247.08 85.4933H202.384L195.939 99.8402H179.885L224.295 3.48401H225.17L269.57 99.8402H253.517L247.071 85.4933H247.08ZM241.336 72.7839L224.762 35.8771L208.128 72.7839H241.344H241.336Z" fill="white"/>
<path d="M364.956 5.18206V101.478H364.254L303.861 38.3895V99.9528H289.037V3.77856H289.8L350.072 66.7453V5.18206H364.948H364.956Z" fill="white"/>
<path d="M462.577 5.41602V99.8402H447.754V59.9531H406.87V99.8402H392.108V5.41602H406.87V45.2511H447.754V5.41602H462.577Z" fill="white"/>
<path d="M488.845 64.051V5.41602H503.72V63.9904C503.72 77.055 512.921 86.6023 524.452 86.6023C535.984 86.6023 545.306 77.055 545.306 63.9904V5.41602H560.242V64.051C560.242 85.7272 544.604 101.599 524.513 101.599C504.422 101.599 488.836 85.7272 488.836 64.051H488.845Z" fill="white"/>
<path d="M637.191 85.4933H592.496L586.05 99.8402H569.997L614.406 3.48401H615.281L659.682 99.8402H643.628L637.183 85.4933H637.191ZM631.456 72.7839L614.883 35.8771L598.249 72.7839H631.465H631.456Z" fill="white"/>
</g>
</g>
<defs>
<linearGradient id="paint0_linear_237_678" x1="333.75" y1="0.88501" x2="333.75" y2="103.115" gradientUnits="userSpaceOnUse">
<stop offset="0.5"/>
<stop offset="0.897059" stop-opacity="0"/>
</linearGradient>
</defs>
</svg>
