<svg width="960" height="19" viewBox="0 0 960 19" fill="none" xmlns="http://www.w3.org/2000/svg">
<g style="mix-blend-mode:multiply">
<path d="M14.31 9.36999C14.31 14.91 10.71 18.44 5.05 18.44H0V0.279989H5.06C10.71 0.269989 14.32 3.79999 14.32 9.36999H14.31ZM12.25 9.36999C12.25 5.07999 9.44 2.30999 5.04 2.30999H2.04V16.39H5.07C9.44 16.39 12.24 13.64 12.24 9.36999H12.25Z" fill="#A2C7F3"/>
<path d="M38.45 11.38V0.280029H40.5099V11.37C40.5099 14.42 42.4899 16.64 45.1699 16.64C47.8499 16.64 49.83 14.41 49.83 11.37V0.280029H51.8899V11.38C51.8899 15.61 49.0299 18.71 45.1699 18.71C41.3099 18.71 38.45 15.61 38.45 11.38Z" fill="#A2C7F3"/>
<path d="M87.1499 15.45H77.2399L75.9099 18.43H73.6899L82.0799 0H82.2999L90.6999 18.43H88.4699L87.1399 15.45H87.1499ZM86.3599 13.67L82.1999 4.33L78.0299 13.67H86.3499H86.3599Z" fill="#A2C7F3"/>
<path d="M125.31 16.4V18.44H114.36V0.280029H116.41V16.39H125.31V16.4Z" fill="#A2C7F3"/>
<path d="M177.46 0.280029H179.51V18.43H177.46V0.280029Z" fill="#A2C7F3"/>
<path d="M219.39 0.24V18.72H219.29L206.85 4.9V18.46H204.8V0H204.91L217.34 13.81V0.24H219.39Z" fill="#A2C7F3"/>
<path d="M255.93 2.31003H250.67V18.44H248.62V2.31003H243.34V0.280029H255.93V2.31003Z" fill="#A2C7F3"/>
<path d="M281.92 2.30003V8.04003H289.39V10.09H281.92V16.4H290.53V18.44H279.87V0.280029H290.53V2.30003H281.92Z" fill="#A2C7F3"/>
<path d="M325.77 18.43L320.7 11.35H317.31V18.43H315.26V0.280029H320.61C323.98 0.280029 326.73 2.87003 326.73 6.07003C326.73 8.42003 325.12 10.45 322.91 11.11L328.3 18.43H325.77ZM320.68 9.63003C322.84 9.63003 324.62 7.99003 324.62 6.03003C324.62 3.94003 322.82 2.31003 320.68 2.31003H317.3V9.62003H320.68V9.63003Z" fill="#A2C7F3"/>
<path d="M366.46 0.24V18.72H366.36L353.92 4.9V18.46H351.87V0H351.98L364.41 13.81V0.24H366.46Z" fill="#A2C7F3"/>
<path d="M403.58 15.45H393.67L392.34 18.43H390.12L398.51 0H398.73L407.13 18.43H404.9L403.57 15.45H403.58ZM402.79 13.67L398.63 4.33L394.46 13.67H402.78H402.79Z" fill="#A2C7F3"/>
<path d="M439.79 2.31003H434.53V18.44H432.48V2.31003H427.2V0.280029H439.79V2.31003Z" fill="#A2C7F3"/>
<path d="M463.74 0.280029H465.79V18.43H463.74V0.280029Z" fill="#A2C7F3"/>
<path d="M490.11 9.37002C490.11 4.22002 494.31 0.0200195 499.43 0.0200195C504.55 0.0200195 508.76 4.22002 508.76 9.37002C508.76 14.52 504.56 18.67 499.41 18.67C494.26 18.67 490.1 14.48 490.1 9.37002H490.11ZM506.7 9.36002C506.7 5.36002 503.43 2.09002 499.42 2.09002C495.41 2.09002 492.18 5.37002 492.18 9.36002C492.18 13.35 495.43 16.6 499.42 16.6C503.41 16.6 506.7 13.35 506.7 9.36002Z" fill="#A2C7F3"/>
<path d="M547.7 0.24V18.72H547.6L535.16 4.9V18.46H533.11V0H533.22L545.65 13.81V0.24H547.7Z" fill="#A2C7F3"/>
<path d="M584.82 15.45H574.91L573.58 18.43H571.36L579.75 0H579.97L588.37 18.43H586.14L584.81 15.45H584.82ZM584.03 13.67L579.87 4.33L575.7 13.67H584.02H584.03Z" fill="#A2C7F3"/>
<path d="M622.98 16.4V18.44H612.03V0.280029H614.08V16.39H622.98V16.4Z" fill="#A2C7F3"/>
<path d="M674.18 9.37002C674.18 4.27002 678.41 0.0200195 683.5 0.0200195C685.83 0.0400195 688.09 1.11002 689.74 2.77002L688.55 4.38002C687.24 3.04002 685.42 2.11002 683.43 2.11002C679.78 2.11002 676.26 5.26002 676.26 9.37002C676.26 13.48 679.75 16.61 683.47 16.61C685.52 16.61 687.26 15.64 688.57 14.36L689.75 16C688.24 17.5 686.2 18.67 683.52 18.67C678.47 18.67 674.18 14.51 674.18 9.37002Z" fill="#A2C7F3"/>
<path d="M715.74 2.30003V8.04003H723.21V10.09H715.74V16.4H724.35V18.44H713.69V0.280029H724.35V2.30003H715.74Z" fill="#A2C7F3"/>
<path d="M759.58 18.43L754.51 11.35H751.12V18.43H749.07V0.280029H754.42C757.79 0.280029 760.54 2.87003 760.54 6.07003C760.54 8.42003 758.93 10.45 756.72 11.11L762.11 18.43H759.58ZM754.49 9.63003C756.65 9.63003 758.43 7.99003 758.43 6.03003C758.43 3.94003 756.63 2.31003 754.49 2.31003H751.11V9.62003H754.49V9.63003Z" fill="#A2C7F3"/>
<path d="M796.48 2.31003H791.22V18.44H789.17V2.31003H783.89V0.280029H796.48V2.31003Z" fill="#A2C7F3"/>
<path d="M820.42 0.280029H822.47V18.43H820.42V0.280029Z" fill="#A2C7F3"/>
<path d="M849.81 2.27999V8.32999H857.28V10.38H849.81V18.47H847.76V0.23999H858.42V2.27999H849.81Z" fill="#A2C7F3"/>
<path d="M882.37 0.280029H884.42V18.43H882.37V0.280029Z" fill="#A2C7F3"/>
<path d="M911.75 2.30003V8.04003H919.22V10.09H911.75V16.4H920.36V18.44H909.7V0.280029H920.36V2.30003H911.75Z" fill="#A2C7F3"/>
<path d="M959.39 9.36999C959.39 14.91 955.79 18.44 950.13 18.44H945.07V0.279989H950.13C955.78 0.269989 959.39 3.79999 959.39 9.36999ZM957.33 9.36999C957.33 5.07999 954.52 2.30999 950.12 2.30999H947.12V16.39H950.15C954.52 16.39 957.32 13.64 957.32 9.36999H957.33Z" fill="#A2C7F3"/>
</g>
</svg>
