<svg width="385" height="114" viewBox="0 0 385 114" fill="none" xmlns="http://www.w3.org/2000/svg">
<path d="M10.1738 39.496H34.9428V43.82H10.1738V39.496ZM7.63578 31.976H37.8098V45.089H32.0288V36.253H13.1818V45.23H7.63578V31.976ZM4.11078 6.079H41.2408V10.168H4.11078V6.079ZM2.79478 17.782H42.6508V21.871H2.79478V17.782ZM7.21278 11.954H38.1858V15.902H7.21278V11.954ZM1.29078 25.913H44.1078V30.237H1.29078V25.913ZM19.6208 8.053H25.4488V20.32H19.6208V8.053ZM10.0798 2.319L15.1558 0.814999C16.2368 2.037 17.2708 3.823 17.6938 5.092L12.3828 6.878C12.0068 5.562 11.0198 3.682 10.0798 2.319ZM7.91778 22.67L13.1348 21.542C13.9808 22.717 14.8268 24.268 15.2028 25.396L9.70378 26.712C9.46878 25.631 8.66978 23.845 7.91778 22.67ZM29.5848 0.955997L35.5538 1.943C34.2848 4.293 32.9688 6.408 31.9348 7.912L26.8588 6.925C27.7988 5.233 28.9738 2.742 29.5848 0.955997ZM31.9818 21.589L37.7628 22.435C36.8228 24.55 35.9298 26.336 35.1778 27.652L29.9138 26.9C30.6188 25.349 31.5588 23.14 31.9818 21.589ZM68.2658 1.943H73.7178V35.877C73.7178 38.65 74.0468 39.12 76.3498 39.12C77.3838 39.12 82.0368 39.12 83.2118 39.12C85.6088 39.12 86.0318 37.193 86.4078 29.391C87.7238 30.378 89.9798 31.412 91.4368 31.741C90.7788 40.812 89.4158 44.149 83.6348 44.149C82.3658 44.149 76.9138 44.149 75.7388 44.149C69.9108 44.149 68.2658 42.269 68.2658 35.783V1.943ZM59.3358 1.285L64.5998 3.071C61.2158 11.061 55.7168 19.474 50.1238 24.785C49.6068 23.422 48.1028 20.32 47.1628 18.91C51.9568 14.727 56.6098 8.053 59.3358 1.285ZM54.6358 14.022L59.9938 8.711L60.0408 8.758V45.183H54.6358V14.022ZM71.5558 14.022H90.1678V19.38H71.5558V14.022ZM95.2438 12.33H108.263V17.5H95.2438V12.33ZM99.3798 1.755H104.597V33.245H99.3798V1.755ZM94.4918 33.95C97.9698 32.916 103.187 31.036 108.216 29.203L109.25 34.232C104.832 36.112 100.132 37.992 96.2308 39.543L94.4918 33.95ZM111.976 7.63H138.249V12.753H111.976V7.63ZM112.822 17.829H120.577V22.388H112.822V17.829ZM109.673 7.63H114.843V23.328C114.843 30.237 114.044 39.684 108.78 45.418C107.981 44.431 105.866 42.598 104.691 41.94C109.25 36.817 109.673 29.297 109.673 23.281V7.63ZM118.556 17.829H123.209C123.209 17.829 123.209 19.098 123.162 19.662C123.021 30.237 122.833 34.42 121.893 35.783C121.141 36.77 120.389 37.193 119.261 37.381C118.321 37.569 116.817 37.616 115.266 37.569C115.125 36.159 114.702 34.185 114.044 32.963C115.219 33.104 116.159 33.104 116.676 33.104C117.193 33.104 117.522 32.963 117.851 32.54C118.321 31.788 118.462 28.451 118.556 18.628V17.829ZM123.82 1.05H129.131C128.755 20.132 131.246 39.449 134.16 39.449C134.818 39.449 135.241 37.24 135.382 32.399C136.416 33.621 138.061 34.796 139.33 35.36C138.625 42.692 137.168 44.713 133.455 44.713C125.559 44.713 123.961 22.059 123.82 1.05ZM129.178 3.118L133.032 0.861998C134.771 2.507 136.792 4.81 137.638 6.408L133.502 8.852C132.75 7.301 130.87 4.857 129.178 3.118ZM133.032 17.406L138.108 18.346C135.241 30.519 129.742 39.731 121.376 45.324C120.577 44.337 118.603 42.363 117.475 41.517C125.7 36.723 130.682 28.357 133.032 17.406ZM153.994 14.539H159.869V36.441C159.869 38.697 160.245 39.026 162.548 39.026C163.629 39.026 168 39.026 169.269 39.026C171.666 39.026 172.042 37.569 172.371 30.19C173.687 31.177 176.178 32.164 177.682 32.587C177.071 41.517 175.52 44.29 169.692 44.29C168.376 44.29 163.065 44.29 161.843 44.29C155.686 44.29 153.994 42.457 153.994 36.441V14.539ZM145.487 17.312L150.986 18.346C150.328 24.503 149.2 32.681 147.602 38.039L141.821 35.689C143.513 30.707 144.876 23.61 145.487 17.312ZM174.768 17.923L180.032 15.808C182.711 21.401 185.155 28.498 186.142 33.386L180.455 35.736C179.656 30.942 177.259 23.469 174.768 17.923ZM155.592 5.656L159.446 1.802C163.723 4.528 169.692 8.664 172.559 11.578L168.376 15.996C165.791 13.082 160.01 8.617 155.592 5.656ZM199.892 12.33H212.911V17.5H199.892V12.33ZM204.028 1.755H209.245V33.245H204.028V1.755ZM199.14 33.95C202.618 32.916 207.835 31.036 212.864 29.203L213.898 34.232C209.48 36.112 204.78 37.992 200.879 39.543L199.14 33.95ZM216.624 7.63H242.897V12.753H216.624V7.63ZM217.47 17.829H225.225V22.388H217.47V17.829ZM214.321 7.63H219.491V23.328C219.491 30.237 218.692 39.684 213.428 45.418C212.629 44.431 210.514 42.598 209.339 41.94C213.898 36.817 214.321 29.297 214.321 23.281V7.63ZM223.204 17.829H227.857C227.857 17.829 227.857 19.098 227.81 19.662C227.669 30.237 227.481 34.42 226.541 35.783C225.789 36.77 225.037 37.193 223.909 37.381C222.969 37.569 221.465 37.616 219.914 37.569C219.773 36.159 219.35 34.185 218.692 32.963C219.867 33.104 220.807 33.104 221.324 33.104C221.841 33.104 222.17 32.963 222.499 32.54C222.969 31.788 223.11 28.451 223.204 18.628V17.829ZM228.468 1.05H233.779C233.403 20.132 235.894 39.449 238.808 39.449C239.466 39.449 239.889 37.24 240.03 32.399C241.064 33.621 242.709 34.796 243.978 35.36C243.273 42.692 241.816 44.713 238.103 44.713C230.207 44.713 228.609 22.059 228.468 1.05ZM233.826 3.118L237.68 0.861998C239.419 2.507 241.44 4.81 242.286 6.408L238.15 8.852C237.398 7.301 235.518 4.857 233.826 3.118ZM237.68 17.406L242.756 18.346C239.889 30.519 234.39 39.731 226.024 45.324C225.225 44.337 223.251 42.363 222.123 41.517C230.348 36.723 235.33 28.357 237.68 17.406ZM248.443 6.173H288.299V16.701H282.283V11.39H254.177V16.701H248.443V6.173ZM275.515 15.573L282.424 15.996C279.557 35.736 270.956 42.598 251.075 45.371C250.558 43.867 248.772 41.094 247.597 39.637C266.491 37.945 274.011 32.54 275.515 15.573ZM247.55 19.803H289.145V25.161H247.55V19.803ZM263.53 2.037L269.922 0.579999C270.956 2.695 272.225 5.515 272.789 7.254L266.115 8.946C265.645 7.207 264.517 4.246 263.53 2.037ZM252.908 31.083L256.621 26.9C266.961 29.955 281.484 35.689 288.957 40.342L284.821 45.277C278.006 40.718 263.765 34.514 252.908 31.083ZM252.908 31.083C256.386 26.289 260.569 18.769 262.731 12.565L269.311 13.74C266.961 20.038 262.966 27.182 260.052 31.553L252.908 31.083ZM303.245 23.281H327.309V27.605H303.245V23.281ZM303.245 30.66H327.309V34.937H303.245V30.66ZM303.245 38.133H327.356V43.021H303.245V38.133ZM294.08 7.395H336.709V12.612H294.08V7.395ZM298.686 15.526H331.68V45.23H325.805V20.414H304.326V45.23H298.686V15.526ZM312.41 10.497L319.554 10.685C318.473 13.693 316.969 16.513 315.888 18.534L310.389 17.876C311.235 15.714 312.034 12.706 312.41 10.497ZM323.408 0.955997L329.894 2.366C328.061 5.092 325.993 7.677 324.395 9.416L319.366 8.006C320.823 6.032 322.468 3.118 323.408 0.955997ZM301.412 2.977L306.441 0.767997C308.227 2.413 310.107 4.716 311.094 6.314L305.83 9.04C305.031 7.395 303.104 4.81 301.412 2.977ZM365.426 13.646H383.897V18.769H365.426V13.646ZM353.394 2.977H364.674V6.22H353.394V2.977ZM346.861 20.038H364.909V22.905H346.861V20.038ZM350.574 37.24H360.82V39.59H350.574V37.24ZM344.84 7.771H363.17V11.484H344.84V7.771ZM370.925 1.191H376.283V14.163C376.283 23.328 375.202 36.3 367.353 45.23C366.46 44.102 364.533 42.316 363.123 41.423C370.596 33.715 370.925 21.871 370.925 14.163V1.191ZM376.518 16.936C377.552 26.806 379.808 36.018 384.649 40.765C383.427 41.752 381.594 43.867 380.748 45.324C375.39 39.449 373.228 29.203 372.006 17.594L376.518 16.936ZM376.377 4.199L380.56 2.648C382.111 5.092 383.662 8.335 384.226 10.544L379.714 12.236C379.291 10.074 377.881 6.737 376.377 4.199ZM350.809 1.05H355.979V8.993H350.809V1.05ZM354.052 37.992H357.389V44.102H354.052V37.992ZM342.349 7.771H347.002V22.529C347.002 28.968 346.485 38.274 343.477 44.196C342.678 43.35 340.704 41.846 339.623 41.329C342.161 35.971 342.349 28.263 342.349 22.482V7.771ZM347.284 13.74L359.786 12.424L360.162 14.821L347.66 16.231L347.284 13.74ZM361.807 7.771H362.512L363.264 7.63L366.554 8.382C365.849 10.638 365.05 13.223 364.298 14.915L360.35 13.975C360.867 12.471 361.478 10.168 361.807 8.335V7.771ZM352.548 26.383V27.84H358.94V26.383H352.548ZM348.929 24.033H362.747V30.19H348.929V24.033ZM346.579 31.318H362.747V34.185H350.527V44.619H346.579V31.318ZM361.102 31.318H365.05V40.859C365.05 42.504 364.862 43.444 363.781 44.008C362.747 44.572 361.431 44.619 359.645 44.619C359.551 43.585 359.081 42.175 358.611 41.235C359.551 41.282 360.35 41.282 360.679 41.282C361.008 41.235 361.102 41.141 361.102 40.812V31.318ZM351.091 35.078L353.488 33.997C354.381 35.031 355.274 36.535 355.556 37.569L353.065 38.791C352.783 37.71 351.937 36.206 351.091 35.078ZM357.859 33.856L360.585 34.937C359.504 36.441 358.423 37.71 357.577 38.744L355.321 37.804C356.167 36.676 357.295 34.984 357.859 33.856ZM350.903 10.591H354.428V15.103C354.428 16.137 354.569 16.466 355.509 16.466C356.308 16.466 359.739 16.466 360.632 16.466C361.525 16.466 363.17 16.419 363.922 16.231C363.969 17.124 364.063 18.111 364.157 18.957C363.499 19.145 362.089 19.192 360.82 19.192C359.786 19.192 355.744 19.192 354.898 19.192C351.561 19.192 350.903 17.97 350.903 15.103V10.591ZM2.98278 74.878H42.2278V79.86H2.98278V74.878ZM5.66178 82.21H39.9248V86.957H5.66178V82.21ZM2.55978 96.78H42.8858V101.574H2.55978V96.78ZM1.47878 89.448H44.2488V94.383H1.47878V89.448ZM19.6678 77.98H25.4488V93.396H19.6678V77.98ZM9.28078 70.742L14.3098 68.768C15.8138 70.413 17.2708 72.669 17.8818 74.267L12.6178 76.57C12.1008 74.925 10.6908 72.481 9.28078 70.742ZM30.2428 68.768L36.3058 70.272C34.7078 72.81 32.9688 75.207 31.6058 76.852L26.5298 75.348C27.7988 73.515 29.3498 70.789 30.2428 68.768ZM19.0098 93.396H24.9318C23.8978 103.924 21.1248 110.269 3.35878 113.136C2.93578 111.679 1.57278 109.329 0.491781 108.06C16.5188 105.992 18.1638 101.48 19.0098 93.396ZM22.8168 105.146L25.3078 100.869C31.1828 102.796 39.9718 106.18 44.3428 108.436L41.7108 113.371C37.5748 110.974 28.9268 107.355 22.8168 105.146ZM68.3598 71.964H86.5488V77.087H68.3598V71.964ZM66.4798 88.461H91.7188V93.819H66.4798V88.461ZM76.4438 83.996H82.2718V107.167C82.2718 110.034 81.6608 111.491 79.7338 112.337C77.7598 113.136 75.1278 113.277 71.4148 113.277C71.1328 111.679 70.2868 109.376 69.5348 107.872C71.8848 107.966 74.6578 107.966 75.4098 107.966C76.1618 107.966 76.4438 107.731 76.4438 107.073V83.996ZM84.3868 71.964H85.8908L87.2068 71.682L91.0138 74.408C88.1468 78.779 83.9638 83.996 79.5928 87.145C78.8878 86.205 77.3368 84.748 76.4438 83.996C79.6398 81.223 82.9298 76.288 84.3868 73.186V71.964ZM48.3848 94.712L51.7688 90.811C56.9388 95.182 64.5528 101.574 68.0308 105.616L64.3178 110.316C60.9808 106.086 53.6488 99.459 48.3848 94.712ZM48.3848 94.712C50.1708 88.226 52.0038 77.557 52.5208 69.191L58.1138 69.473C57.3148 78.356 55.3408 89.307 53.5078 96.451L48.3848 94.712ZM60.3228 75.771H65.5868V81.082C65.5868 90.106 64.3178 103.971 51.4398 113.371C50.6408 112.149 48.7138 110.269 47.4918 109.376C59.2888 101.151 60.3228 88.884 60.3228 80.988V75.771ZM47.4448 79.296C52.8028 79.108 60.6518 78.732 68.0778 78.309L68.0308 83.338C60.9808 83.855 53.4608 84.325 47.9618 84.654L47.4448 79.296ZM104.691 91.14H108.78V108.859C108.78 110.739 108.451 111.773 107.276 112.431C106.101 113.089 104.456 113.136 102.153 113.089C102.012 112.008 101.495 110.41 101.025 109.376C102.341 109.423 103.704 109.423 104.127 109.376C104.55 109.376 104.691 109.282 104.691 108.812V91.14ZM116.3 107.966L119.214 106.086C120.295 107.167 121.752 108.718 122.41 109.752L119.355 111.82C118.697 110.786 117.381 109.141 116.3 107.966ZM105.96 85.03V86.628H127.392V85.03H105.96ZM100.931 81.881H132.656V89.777H100.931V81.881ZM114.138 98.096V99.506H117.757V98.096H114.138ZM114.138 102.185V103.689H117.757V102.185H114.138ZM114.138 94.007V95.417H117.757V94.007H114.138ZM110.519 91.14H121.517V106.509H110.519V91.14ZM99.6148 91.14H106.994V94.665H99.6148V91.14ZM112.399 106.18L115.877 108.013C114.561 109.846 112.305 112.055 110.613 113.136C109.908 112.478 108.451 111.397 107.511 110.833C109.391 109.752 111.412 107.731 112.399 106.18ZM94.6328 71.682H138.578V75.395H94.6328V71.682ZM113.198 69.755L119.167 68.768C119.919 69.99 120.718 71.635 121.141 72.716L115.031 74.032C114.655 72.857 113.856 71.071 113.198 69.755ZM100.508 73.468H105.067V75.583C105.067 76.852 105.443 77.181 108.028 77.181C110.519 77.181 123.35 77.181 126.17 77.181C128.849 77.181 133.314 77.04 134.959 76.711C135.147 78.121 135.335 79.343 135.476 80.236C133.972 80.612 130.259 80.659 126.969 80.659C124.196 80.659 109.908 80.659 108.075 80.659C102.059 80.659 100.508 79.343 100.508 75.489V73.468ZM124.478 92.409H128.097V99.929C128.097 104.018 127.533 109.658 124.807 113.324C124.149 112.713 122.551 111.632 121.705 111.303C124.196 107.872 124.478 103.36 124.478 99.835V92.409ZM122.692 91.14H132.985V94.947H122.692V91.14ZM130.541 91.14H134.442V107.637C134.442 108.53 134.442 109.141 134.536 109.329C134.536 109.47 134.677 109.517 134.865 109.517C134.959 109.517 135.147 109.517 135.335 109.517C135.476 109.517 135.664 109.47 135.758 109.329C135.852 109.235 135.946 109 136.04 108.483C136.134 107.872 136.181 106.65 136.181 105.099C136.886 105.663 138.061 106.274 139.001 106.603C138.954 108.201 138.766 110.128 138.531 110.833C138.296 111.632 137.92 112.149 137.356 112.478C136.886 112.76 136.134 112.901 135.476 112.901C134.912 112.901 134.254 112.901 133.784 112.901C132.891 112.901 131.904 112.666 131.34 112.008C130.729 111.303 130.541 110.504 130.541 107.496V91.14ZM121.47 99.741L122.927 97.297C125.794 99.506 129.178 102.467 130.823 104.347L129.178 107.167C127.486 105.193 124.196 101.997 121.47 99.741ZM97.1708 91.14H100.884V98.942C100.884 103.219 100.32 109.094 97.4058 112.948C96.7478 112.29 95.1498 111.209 94.2568 110.833C96.8888 107.308 97.1708 102.561 97.1708 98.895V91.14ZM100.038 103.219C101.777 103.031 103.516 102.702 105.819 102.326L106.007 104.911C104.268 105.428 102.905 105.898 101.213 106.368L100.038 103.219ZM100.226 99.083L101.73 96.639C102.858 97.062 104.221 97.673 104.973 98.19L103.469 100.916C102.717 100.305 101.307 99.6 100.226 99.083ZM157.096 89.824H169.175V94.242H157.096V89.824ZM157.096 97.72H169.222V102.138H157.096V97.72ZM147.978 105.663H179.703V110.833H147.978V105.663ZM144.453 81.364H182.852V113.23H177.118V86.534H149.858V113.23H144.453V81.364ZM154.699 84.795H159.728V107.966H154.699V84.795ZM166.966 84.795H172.042V107.919H166.966V84.795ZM160.01 74.22L166.684 75.63C165.556 79.108 164.522 82.774 163.582 85.218L158.412 83.855C159.07 81.129 159.822 77.181 160.01 74.22ZM142.479 71.776H184.967V77.134H142.479V71.776ZM226.823 71.964H239.795V76.711H231.899V105.945H226.823V71.964ZM236.74 71.964H241.91V95.84C241.91 98.096 241.534 99.412 240.03 100.258C238.62 101.057 236.646 101.151 233.92 101.151C233.685 99.788 233.027 97.673 232.322 96.404C233.92 96.451 235.518 96.451 236.035 96.404C236.552 96.404 236.74 96.216 236.74 95.699V71.964ZM223.439 69.144L227.293 73.374C224.003 75.207 220.008 76.711 216.577 77.839C216.342 76.711 215.543 74.925 214.932 73.844C217.987 72.622 221.324 70.742 223.439 69.144ZM215.167 101.903L214.697 97.203L216.859 95.37L225.46 93.302C225.413 94.853 225.507 97.109 225.695 98.331C217.752 100.587 216.154 101.245 215.167 101.903ZM215.167 101.903C214.838 100.681 213.851 98.566 213.099 97.579C213.992 97.062 214.932 95.981 214.932 94.007V73.844H220.149V97.438C220.149 97.438 215.167 100.164 215.167 101.903ZM201.02 71.682L205.203 69.097C207.459 71.306 210.091 74.267 211.501 76.147L207.224 79.296C205.908 77.275 203.182 73.985 201.02 71.682ZM199.845 80.048H209.668V84.56H199.845V80.048ZM209.386 100.493C211.924 106.838 217.423 107.59 225.93 107.637C230.959 107.637 238.714 107.308 244.025 106.838C243.226 107.966 242.521 110.504 242.239 112.055C237.351 112.337 231.335 112.478 225.836 112.478C214.932 112.478 209.104 111.021 205.626 101.997L209.386 100.493ZM208.117 91.469H209.48L210.373 91.375L213.052 92.362C211.501 102.749 207.647 109.705 202.148 113.277C201.443 112.196 199.61 110.269 198.576 109.517C203.605 106.462 206.989 100.587 208.117 92.315V91.469ZM200.691 96.592V92.55L202.712 91.469H209.621V95.84H203.605C202.477 95.84 201.114 96.169 200.691 96.592ZM200.691 96.592C200.409 95.417 199.422 93.02 198.905 91.986C199.657 91.798 200.456 91.469 201.349 90.482C202.712 89.166 206.848 83.15 208.446 80.565V80.424L209.856 79.813L213.287 81.364C211.125 84.607 207.13 90.435 204.498 93.49C204.498 93.49 200.691 95.323 200.691 96.592ZM261.744 89.824H273.823V94.242H261.744V89.824ZM261.744 97.72H273.87V102.138H261.744V97.72ZM252.626 105.663H284.351V110.833H252.626V105.663ZM249.101 81.364H287.5V113.23H281.766V86.534H254.506V113.23H249.101V81.364ZM259.347 84.795H264.376V107.966H259.347V84.795ZM271.614 84.795H276.69V107.919H271.614V84.795ZM264.658 74.22L271.332 75.63C270.204 79.108 269.17 82.774 268.23 85.218L263.06 83.855C263.718 81.129 264.47 77.181 264.658 74.22ZM247.127 71.776H289.615V77.134H247.127V71.776ZM307.005 84.137H312.598V111.82H307.005V84.137ZM317.815 84.137H323.455V111.82H317.815V84.137ZM311.658 73.374L318.661 73.75C317.439 77.933 315.888 82.163 314.666 84.936L309.073 84.278C310.154 81.176 311.188 76.711 311.658 73.374ZM296.148 81.505H331.586V86.769H301.976V113.23H296.148V81.505ZM329.001 81.505H334.735V107.308C334.735 109.94 334.265 111.35 332.573 112.196C330.834 113.042 328.484 113.136 325.288 113.136C325.053 111.679 324.254 109.376 323.502 108.06C325.382 108.154 327.544 108.107 328.155 108.06C328.813 108.06 329.001 107.872 329.001 107.261V81.505ZM293.986 70.836H336.803V76.57H293.986V70.836ZM342.02 74.972H382.91V80.471H342.02V74.972ZM359.175 69.097H365.097V113.23H359.175V69.097ZM359.833 90.341L364.533 92.127C359.927 100.446 352.36 107.637 343.994 111.491C343.101 110.081 341.268 107.778 339.999 106.65C348.13 103.501 355.885 97.109 359.833 90.341ZM364.862 90.717C368.81 97.203 376.518 103.313 384.602 106.274C383.192 107.496 381.359 109.846 380.419 111.444C372.241 107.684 364.815 100.587 360.209 92.55L364.862 90.717ZM347.707 88.649L351.279 85.077C353.394 86.863 356.449 89.448 357.953 91.046L354.24 94.994C352.83 93.302 349.869 90.576 347.707 88.649ZM349.587 80.753L355.086 81.787C353.347 88.649 350.01 94.524 345.639 98.19C344.699 97.156 342.537 95.323 341.268 94.477C345.404 91.469 348.271 86.487 349.587 80.753ZM370.173 88.837L373.839 85.453C376.753 87.662 381.218 90.999 383.38 93.02L379.479 96.921C377.505 94.806 373.181 91.328 370.173 88.837ZM371.771 80.753L377.223 81.74C375.954 87.38 373.369 92.362 370.22 95.511C369.139 94.618 366.742 93.161 365.426 92.55C368.575 89.871 370.784 85.5 371.771 80.753Z" fill="white"/>
</svg>
