<svg width="586" height="19" viewBox="0 0 586 19" fill="none" xmlns="http://www.w3.org/2000/svg">
<g style="mix-blend-mode:multiply" opacity="0.6">
<path d="M12.59 2.07004H7.33V18.19H5.28V2.07004H0V0.0400391H12.59V2.07004Z" fill="#A2C7F3"/>
<path d="M50.52 0.0400391V18.19H48.48V10.12H39.28V18.19H37.23V0.0400391H39.28V8.09004H48.48V0.0400391H50.52Z" fill="#A2C7F3"/>
<path d="M78.54 2.06004V7.80004H86.01V9.85004H78.54V16.16H87.15V18.2H76.49V0.0400391H87.15V2.06004H78.54Z" fill="#A2C7F3"/>
<path d="M153.93 12.66C153.93 15.53 151.66 18.2 148.19 18.2H141.47V0.0400391H146.43C149.46 0.0400391 151.64 2.18004 151.64 4.57004C151.64 6.54004 150.21 7.97004 149.29 7.97004C151.62 7.97004 153.94 9.92004 153.94 12.66H153.93ZM143.5 2.04004V7.53004H146.52C148.49 7.54004 149.71 6.34004 149.71 4.81004C149.71 3.28004 148.26 2.04004 146.53 2.04004H143.5ZM151.93 12.52C151.93 10.82 150.32 9.34004 147.92 9.36004H143.5V16.2H148.02C150.09 16.2 151.93 14.64 151.93 12.53V12.52Z" fill="#A2C7F3"/>
<path d="M180.62 2.06004V7.80004H188.09V9.85004H180.62V16.16H189.23V18.2H178.57V0.0400391H189.23V2.06004H180.62Z" fill="#A2C7F3"/>
<path d="M225.89 2.07004H220.63V18.19H218.58V2.07004H213.3V0.0400391H225.89V2.07004Z" fill="#A2C7F3"/>
<path d="M261.78 2.07004H256.52V18.19H254.47V2.07004H249.19V0.0400391H261.78V2.07004Z" fill="#A2C7F3"/>
<path d="M288.46 2.06004V7.80004H295.93V9.85004H288.46V16.16H297.07V18.2H286.41V0.0400391H297.07V2.06004H288.46Z" fill="#A2C7F3"/>
<path d="M333 18.2L327.93 11.12H324.54V18.2H322.49V0.0400391H327.84C331.21 0.0400391 333.96 2.63004 333.96 5.83004C333.96 8.18004 332.35 10.21 330.14 10.87L335.53 18.19H333V18.2ZM327.91 9.39004C330.07 9.39004 331.85 7.75004 331.85 5.79004C331.85 3.69004 330.05 2.07004 327.91 2.07004H324.53V9.38004H327.91V9.39004Z" fill="#A2C7F3"/>
<path d="M390.74 2.04V8.09H398.21V10.14H390.74V18.23H388.69V0H399.35V2.04H390.74Z" fill="#A2C7F3"/>
<path d="M423.8 11.15V0.0400391H425.86V11.13C425.86 14.18 427.84 16.4 430.52 16.4C433.2 16.4 435.18 14.17 435.18 11.13V0.0400391H437.24V11.14C437.24 15.37 434.38 18.47 430.52 18.47C426.66 18.47 423.8 15.37 423.8 11.14V11.15Z" fill="#A2C7F3"/>
<path d="M474.29 2.07004H469.03V18.19H466.98V2.07004H461.7V0.0400391H474.29V2.07004Z" fill="#A2C7F3"/>
<path d="M498.73 11.15V0.0400391H500.79V11.13C500.79 14.18 502.77 16.4 505.45 16.4C508.13 16.4 510.11 14.17 510.11 11.13V0.0400391H512.17V11.14C512.17 15.37 509.31 18.47 505.45 18.47C501.59 18.47 498.73 15.37 498.73 11.14V11.15Z" fill="#A2C7F3"/>
<path d="M548.48 18.2L543.41 11.12H540.02V18.2H537.97V0.0400391H543.32C546.69 0.0400391 549.44 2.63004 549.44 5.83004C549.44 8.18004 547.83 10.21 545.62 10.87L551.01 18.19H548.48V18.2ZM543.39 9.39004C545.55 9.39004 547.33 7.75004 547.33 5.79004C547.33 3.69004 545.53 2.07004 543.39 2.07004H540.01V9.38004H543.39V9.39004Z" fill="#A2C7F3"/>
<path d="M577.32 2.06004V7.80004H584.79V9.85004H577.32V16.16H585.93V18.2H575.27V0.0400391H585.93V2.06004H577.32Z" fill="#A2C7F3"/>
</g>
</svg>
