<svg width="479" height="117" viewBox="0 0 479 117" fill="none" xmlns="http://www.w3.org/2000/svg">
<path d="M2.112 12.72H15.408V18H2.112V12.72ZM6.336 1.92H11.664V34.08H6.336V1.92ZM1.344 34.8C4.896 33.744 10.224 31.824 15.36 29.952L16.416 35.088C11.904 37.008 7.104 38.928 3.12 40.512L1.344 34.8ZM19.2 7.92H46.032V13.152H19.2V7.92ZM20.064 18.336H27.984V22.992H20.064V18.336ZM16.848 7.92H22.128V23.952C22.128 31.008 21.312 40.656 15.936 46.512C15.12 45.504 12.96 43.632 11.76 42.96C16.416 37.728 16.848 30.048 16.848 23.904V7.92ZM25.92 18.336H30.672C30.672 18.336 30.672 19.632 30.624 20.208C30.48 31.008 30.288 35.28 29.328 36.672C28.56 37.68 27.792 38.112 26.64 38.304C25.68 38.496 24.144 38.544 22.56 38.496C22.416 37.056 21.984 35.04 21.312 33.792C22.512 33.936 23.472 33.936 24 33.936C24.528 33.936 24.864 33.792 25.2 33.36C25.68 32.592 25.824 29.184 25.92 19.152V18.336ZM31.296 1.2H36.72C36.336 20.688 38.88 40.416 41.856 40.416C42.528 40.416 42.96 38.16 43.104 33.216C44.16 34.464 45.84 35.664 47.136 36.24C46.416 43.728 44.928 45.792 41.136 45.792C33.072 45.792 31.44 22.656 31.296 1.2ZM36.768 3.312L40.704 1.008C42.48 2.688 44.544 5.04 45.408 6.672L41.184 9.168C40.416 7.584 38.496 5.088 36.768 3.312ZM40.704 17.904L45.888 18.864C42.96 31.296 37.344 40.704 28.8 46.416C27.984 45.408 25.968 43.392 24.816 42.528C33.216 37.632 38.304 29.088 40.704 17.904ZM51.696 6.432H92.4V17.184H86.256V11.76H57.552V17.184H51.696V6.432ZM79.344 16.032L86.4 16.464C83.472 36.624 74.688 43.632 54.384 46.464C53.856 44.928 52.032 42.096 50.832 40.608C70.128 38.88 77.808 33.36 79.344 16.032ZM50.784 20.352H93.264V25.824H50.784V20.352ZM67.104 2.208L73.632 0.719999C74.688 2.88 75.984 5.76 76.56 7.536L69.744 9.264C69.264 7.488 68.112 4.464 67.104 2.208ZM56.256 31.872L60.048 27.6C70.608 30.72 85.44 36.576 93.072 41.328L88.848 46.368C81.888 41.712 67.344 35.376 56.256 31.872ZM56.256 31.872C59.808 26.976 64.08 19.296 66.288 12.96L73.008 14.16C70.608 20.592 66.528 27.888 63.552 32.352L56.256 31.872ZM102.336 3.888H116.112V33.36H102.336V28.08H110.784V9.072H102.336V3.888ZM102.384 15.888H112.896V21.024H102.384V15.888ZM122.88 3.168H137.616V8.496H122.88V3.168ZM122.88 14.64H137.616V19.824H122.88V14.64ZM122.784 26.016H137.568V31.152H122.784V26.016ZM99.264 3.888H104.592V37.536H99.264V3.888ZM135.456 3.168H141.168V39.744C141.168 42.72 140.544 44.304 138.672 45.216C136.752 46.128 134.016 46.272 129.936 46.272C129.696 44.688 128.784 42.192 127.968 40.704C130.56 40.848 133.488 40.8 134.304 40.8C135.168 40.8 135.456 40.512 135.456 39.648V3.168ZM119.424 3.168H125.088V20.592C125.088 28.896 123.792 40.176 114.912 46.704C114.048 45.552 111.84 43.584 110.592 42.816C118.704 36.912 119.424 27.888 119.424 20.544V3.168ZM151.344 4.128H184.848V45.696H178.656V9.936H157.296V45.744H151.344V4.128ZM155.424 20.256H181.248V25.968H155.424V20.256ZM155.376 36.816H181.248V42.624H155.376V36.816ZM220.704 17.136H238.416V22.464H220.704V17.136ZM194.544 6H216.144V10.704H194.544V6ZM194.064 25.104H216.096V29.952H194.064V25.104ZM193.776 16.704H216.912V21.456H193.776V16.704ZM228.336 19.488H233.952V46.08H228.336V19.488ZM197.088 11.616L201.648 10.512C202.368 12.144 203.04 14.304 203.28 15.696L198.528 17.04C198.288 15.6 197.712 13.296 197.088 11.616ZM208.848 10.464L214.08 11.472C213.024 14.016 212.064 16.512 211.152 18.24L206.496 17.232C207.312 15.36 208.32 12.48 208.848 10.464ZM233.136 1.68L237.6 5.904C232.56 7.872 225.936 9.312 220.224 10.176C219.984 8.976 219.168 7.008 218.544 5.808C223.824 4.848 229.632 3.312 233.136 1.68ZM201.312 2.16L207.12 0.767999C208.08 2.832 209.232 5.568 209.664 7.344L203.616 8.976C203.232 7.2 202.224 4.32 201.312 2.16ZM218.544 5.808H223.872V23.04C223.872 30.096 223.248 40.032 219.12 46.176C218.208 45.168 215.904 43.392 214.704 42.768C218.256 37.296 218.544 29.28 218.544 23.04V5.808ZM209.664 33.024L213.408 30.912C214.896 33.12 216.528 35.952 217.296 37.776L213.408 40.224C212.64 38.304 211.008 35.232 209.664 33.024ZM197.472 31.488L201.888 32.784C200.688 36.192 198.672 40.176 196.992 42.672C196.176 41.952 194.304 40.656 193.2 40.032C194.88 37.824 196.464 34.464 197.472 31.488ZM203.04 19.344H208.656V45.984H203.04V19.344ZM250.848 12.864H276.96V17.376H250.848V12.864ZM242.688 39.84H285.216V44.976H242.688V39.84ZM255.648 30.72V33.36H271.824V30.72H255.648ZM255.648 24.096V26.688H271.824V24.096H255.648ZM250.08 19.776H277.632V37.68H250.08V19.776ZM243.408 5.184H284.592V15.888H278.688V10.224H249.072V15.888H243.408V5.184ZM259.68 2.448L265.296 0.863997C266.352 2.64 267.408 5.04 267.84 6.624L261.888 8.4C261.6 6.864 260.64 4.32 259.68 2.448ZM300.144 39.888H324.24V44.64H300.144V39.888ZM296.88 22.896H327.504V27.456H296.88V22.896ZM296.88 15.408H327.504V19.92H296.88V15.408ZM290.208 7.728H333.936V12.624H290.208V7.728ZM296.304 30.72H328.032V46.128H322.128V35.52H301.968V46.272H296.304V30.72ZM306.864 2.4L312.624 0.959999C314.304 3.12 316.128 6 316.848 8.016L310.704 9.6C310.128 7.68 308.448 4.656 306.864 2.4ZM9.408 96.592H41.952V101.536H9.408V96.592ZM2.928 79.072H34.704V84.256H2.928V79.072ZM17.088 87.904H38.88V92.848H17.088V87.904ZM39.744 96.592H45.504C45.504 96.592 45.408 98.08 45.312 98.8C44.544 108.544 43.68 112.72 42.144 114.352C40.992 115.6 39.84 116.032 38.256 116.224C36.912 116.368 34.608 116.368 32.112 116.32C32.064 114.736 31.392 112.48 30.48 111.04C32.592 111.28 34.608 111.328 35.568 111.28C36.384 111.28 36.864 111.184 37.344 110.752C38.304 109.792 39.12 106.144 39.744 97.408V96.592ZM29.52 103.216L33.504 101.824C34.8 103.792 36.096 106.48 36.576 108.208L32.4 109.744C31.968 108.016 30.72 105.232 29.52 103.216ZM8.304 73.264L13.488 71.248C15.168 73.072 17.232 75.712 18.192 77.536L12.672 79.792C11.904 78.016 9.984 75.232 8.304 73.264ZM15.024 104.512L19.68 103.936C20.592 107.056 21.072 111.088 21.072 113.776L16.128 114.448C16.272 111.808 15.792 107.68 15.024 104.512ZM22.272 104.128L26.688 103.12C27.84 105.808 28.896 109.312 29.28 111.616L24.624 112.816C24.336 110.464 23.328 106.864 22.272 104.128ZM8.64 102.928L13.44 104.512C12.48 108.64 10.992 113.152 8.16 116.128L3.744 112.96C6.144 110.56 7.824 106.672 8.64 102.928ZM23.088 71.2L28.992 72.592C24.72 86.368 17.376 99.28 3.744 106.624C3.072 105.184 1.632 102.88 0.672 101.632C12.912 95.488 19.872 83.344 23.088 71.2ZM33.6 79.072H38.88C38.208 82.672 37.296 86.896 36.48 89.68L31.488 88.912C32.208 86.272 33.072 82.288 33.6 79.072ZM36.72 87.904H42C41.328 91.408 40.464 95.584 39.696 98.32L34.656 97.648C35.424 94.96 36.24 91.072 36.72 87.904ZM50.064 82.816H93.84V88.384H50.064V82.816ZM56.592 72.64H62.592V108.112H92.64V113.728H56.592V72.64ZM69.072 71.632H74.832V97.456H81.456V72.112H87.504V102.736H69.072V71.632ZM108.672 85.264V88.768H131.328V85.264H108.672ZM108.672 77.536V80.944H131.328V77.536H108.672ZM102.912 72.88H137.328V93.376H102.912V72.88ZM126.576 90.352C129.744 94.672 135.984 98.224 142.704 99.904C141.408 101.056 139.68 103.312 138.864 104.8C131.808 102.496 125.568 97.888 121.728 92.128L126.576 90.352ZM113.472 90.304L118.56 92.272C114.672 97.84 108.192 102.544 101.376 104.992C100.512 103.552 98.784 101.392 97.536 100.24C104.016 98.416 110.304 94.624 113.472 90.304ZM110.064 99.088H116.016V102.4C116.016 107.008 114.624 113.152 105.024 116.656C104.256 115.216 102.336 113.056 101.088 111.952C109.104 109.36 110.064 105.28 110.064 102.208V99.088ZM117.072 75.232H122.88V91.072H117.072V75.232ZM124.704 99.184H130.704V116.176H124.704V99.184ZM174.576 76.192H179.952V103.168H174.576V76.192ZM183.312 71.344H188.832V109.408C188.832 112.432 188.256 114.016 186.48 114.976C184.752 115.888 182.064 116.08 178.176 116.08C177.936 114.544 177.168 111.952 176.4 110.32C178.944 110.416 181.392 110.416 182.208 110.416C182.976 110.368 183.312 110.128 183.312 109.36V71.344ZM152.544 92.272H168.624V95.68H152.544V92.272ZM155.376 110.368H168.912V114.64H155.376V110.368ZM149.232 86.368H154.56V91.936C154.56 98.416 153.84 108.064 150.048 114.592C148.944 113.824 146.496 112.816 145.056 112.384C148.848 106.192 149.232 97.552 149.232 91.936V86.368ZM152.496 86.368H170.736V101.584H152.4V97.6H165.504V90.352H152.496V86.368ZM153.168 103.024H171.888V115.936H166.848V106.96H157.968V116.128H153.168V103.024ZM159.504 71.2L164.784 73.264C160.896 79.168 154.416 84.4 148.128 87.616C147.6 86.32 146.112 83.392 145.152 82.096C150.72 79.744 156.384 75.76 159.504 71.2ZM157.824 76.864L160.608 72.592C164.544 74.848 170.736 78.304 173.664 80.464L170.688 85.36C167.856 83.056 161.904 79.36 157.824 76.864ZM155.568 81.424H165.456V84.784H155.568V81.424ZM213.456 76.672H235.488V81.568H213.456V76.672ZM207.888 85.6H237.456V90.4H207.888V85.6ZM213.216 71.728L218.4 72.88C216.864 77.728 214.224 82.48 211.584 85.552C210.48 84.736 208.176 83.488 206.88 82.912C209.664 80.224 211.968 75.952 213.216 71.728ZM219.984 71.248H225.696V88.816H219.984V71.248ZM195.216 73.888L199.488 71.248C201.792 73.504 204.48 76.528 205.92 78.448L201.552 81.664C200.208 79.6 197.424 76.24 195.216 73.888ZM194.016 82.432H203.664V87.04H194.016V82.432ZM203.76 103.312C206.352 109.792 211.968 110.56 220.656 110.608C225.792 110.608 233.712 110.272 239.136 109.792C238.368 110.944 237.6 113.536 237.312 115.12C232.32 115.408 226.176 115.552 220.56 115.552C209.424 115.552 203.472 114.064 199.92 104.848L203.76 103.312ZM202.224 94.096H203.616L204.48 94L207.264 95.008C205.68 105.568 201.888 112.672 196.464 116.368C195.744 115.264 193.824 113.296 192.768 112.528C197.76 109.36 201.072 103.408 202.224 94.96V94.096ZM194.928 99.328V95.2L196.992 94.096H203.712V98.56H197.808C196.704 98.56 195.312 98.896 194.928 99.328ZM194.928 99.328C194.592 98.128 193.632 95.68 193.056 94.72C193.872 94.48 194.64 94.096 195.456 93.136C196.752 91.792 200.736 85.6 202.224 82.96L202.176 82.816L203.616 82.24L207.12 83.632C205.056 86.944 201.264 93.04 198.72 96.16C198.72 96.16 194.928 98.032 194.928 99.328ZM216.672 97.648V102.832H229.008V97.648H216.672ZM211.152 93.088H234.816V107.392H211.152V93.088ZM242.88 73.408H285.168V78.544H242.88V73.408ZM261.36 75.616H267.408V95.008C267.408 104.704 263.424 112.768 245.328 116.368C244.704 115.072 243.072 112.576 241.824 111.28C259.152 108.64 261.36 102.592 261.36 94.912V75.616ZM252.48 93.424V96.592H276.384V93.424H252.48ZM252.48 86.032V89.104H276.384V86.032H252.48ZM247.056 81.376H282.144V101.2H247.056V81.376ZM252.768 101.008C259.488 109.6 270.72 110.272 287.088 110.128C286.08 111.472 284.976 113.92 284.688 115.84C267.744 115.504 255.072 113.92 247.728 103.024L252.768 101.008ZM310.656 74.176H329.232V79.408H310.656V74.176ZM308.736 91.024H334.512V96.496H308.736V91.024ZM318.912 86.464H324.864V110.128C324.864 113.056 324.24 114.544 322.272 115.408C320.256 116.224 317.568 116.368 313.776 116.368C313.488 114.736 312.624 112.384 311.856 110.848C314.256 110.944 317.088 110.944 317.856 110.944C318.624 110.944 318.912 110.704 318.912 110.032V86.464ZM327.024 74.176H328.56L329.904 73.888L333.792 76.672C330.864 81.136 326.592 86.464 322.128 89.68C321.408 88.72 319.824 87.232 318.912 86.464C322.176 83.632 325.536 78.592 327.024 75.424V74.176ZM290.256 97.408L293.712 93.424C298.992 97.888 306.768 104.416 310.32 108.544L306.528 113.344C303.12 109.024 295.632 102.256 290.256 97.408ZM290.256 97.408C292.08 90.784 293.952 79.888 294.48 71.344L300.192 71.632C299.376 80.704 297.36 91.888 295.488 99.184L290.256 97.408ZM302.448 78.064H307.824V83.488C307.824 92.704 306.528 106.864 293.376 116.464C292.56 115.216 290.592 113.296 289.344 112.384C301.392 103.984 302.448 91.456 302.448 83.392V78.064ZM289.296 81.664C294.768 81.472 302.784 81.088 310.368 80.656L310.32 85.792C303.12 86.32 295.44 86.8 289.824 87.136L289.296 81.664ZM342.864 79.024H357.6V111.376H342.864V106.288H352.368V84.064H342.864V79.024ZM339.504 79.024H344.736V114.928H339.504V79.024ZM342.624 91.84H354.912V96.832H342.624V91.84ZM346.32 71.2L352.608 72.112C351.504 75.376 350.304 78.784 349.344 81.04L344.736 80.032C345.408 77.536 346.08 73.84 346.32 71.2ZM363.936 78.688H377.952V83.92H363.936V78.688ZM375.984 78.688H381.312C381.312 78.688 381.312 80.56 381.264 81.28C380.64 102.88 380.064 110.512 378.096 113.056C376.752 114.928 375.408 115.456 373.44 115.744C371.616 116.032 368.688 115.984 365.904 115.84C365.808 114.256 365.04 111.808 363.984 110.272C367.104 110.512 369.984 110.56 371.184 110.56C372.144 110.56 372.672 110.368 373.296 109.696C374.832 108.064 375.456 99.808 375.984 79.792V78.688ZM364.08 71.248L369.6 72.544C367.728 79.648 364.608 86.944 361.344 91.552C360.288 90.592 357.936 88.96 356.592 88.192C359.808 84.16 362.544 77.632 364.08 71.248ZM361.728 92.512L366.24 89.968C368.592 93.28 371.76 97.888 373.248 100.72L368.352 103.696C367.056 100.768 364.032 96.064 361.728 92.512ZM390.336 73.888H404.112V103.36H390.336V98.08H398.784V79.072H390.336V73.888ZM390.384 85.888H400.896V91.024H390.384V85.888ZM410.88 73.168H425.616V78.496H410.88V73.168ZM410.88 84.64H425.616V89.824H410.88V84.64ZM410.784 96.016H425.568V101.152H410.784V96.016ZM387.264 73.888H392.592V107.536H387.264V73.888ZM423.456 73.168H429.168V109.744C429.168 112.72 428.544 114.304 426.672 115.216C424.752 116.128 422.016 116.272 417.936 116.272C417.696 114.688 416.784 112.192 415.968 110.704C418.56 110.848 421.488 110.8 422.304 110.8C423.168 110.8 423.456 110.512 423.456 109.648V73.168ZM407.424 73.168H413.088V90.592C413.088 98.896 411.792 110.176 402.912 116.704C402.048 115.552 399.84 113.584 398.592 112.816C406.704 106.912 407.424 97.888 407.424 90.544V73.168ZM458.928 92.032C462 101.152 468.528 107.872 478.992 110.608C477.648 111.856 475.92 114.304 475.056 115.936C463.824 112.336 457.44 104.704 453.552 93.376L458.928 92.032ZM436.848 74.464H475.008V80.368H436.848V74.464ZM435.024 88.912H476.928V94.864H435.024V88.912ZM452.544 76.48H458.64V85.312C458.64 95.248 456.336 109.024 437.136 116.08C436.416 114.64 434.592 112.288 433.392 111.136C450.672 105.04 452.544 93.28 452.544 85.264V76.48Z" fill="black"/>
</svg>
