<svg xmlns="http://www.w3.org/2000/svg" viewBox="0 0 479 117">
<path d="M2.1,12.7h13.3V18H2.1V12.7z M6.3,1.9h5.3v32.2H6.3V1.9z M1.3,34.8c3.6-1.1,8.9-3,14-4.8l1.1,5.1c-4.5,1.9-9.3,3.8-13.3,5.4
	L1.3,34.8z M19.2,7.9H46v5.2H19.2V7.9z M20.1,18.3H28V23h-7.9V18.3z M16.8,7.9h5.3v16c0,7.1-0.8,16.7-6.2,22.6c-0.8-1-3-2.9-4.2-3.6
	c4.7-5.2,5.1-12.9,5.1-19.1V7.9z M25.9,18.3h4.8c0,0,0,1.3,0,1.9c-0.1,10.8-0.3,15.1-1.3,16.5c-0.8,1-1.5,1.4-2.7,1.6
	c-1,0.2-2.5,0.2-4.1,0.2c-0.1-1.4-0.6-3.5-1.2-4.7c1.2,0.1,2.2,0.1,2.7,0.1s0.9-0.1,1.2-0.6c0.5-0.8,0.6-4.2,0.7-14.2V18.3z
	 M31.3,1.2h5.4c-0.4,19.5,2.2,39.2,5.1,39.2c0.7,0,1.1-2.3,1.2-7.2c1.1,1.2,2.7,2.4,4,3c-0.7,7.5-2.2,9.6-6,9.6
	C33.1,45.8,31.4,22.7,31.3,1.2z M36.8,3.3L40.7,1c1.8,1.7,3.8,4,4.7,5.7l-4.2,2.5C40.4,7.6,38.5,5.1,36.8,3.3z M40.7,17.9l5.2,1
	C43,31.3,37.3,40.7,28.8,46.4c-0.8-1-2.8-3-4-3.9C33.2,37.6,38.3,29.1,40.7,17.9z M51.7,6.4h40.7v10.8h-6.1v-5.4H57.6v5.4h-5.9V6.4z
	 M79.3,16l7.1,0.4c-2.9,20.2-11.7,27.2-32,30c-0.5-1.5-2.4-4.4-3.6-5.9C70.1,38.9,77.8,33.4,79.3,16z M50.8,20.4h42.5v5.5H50.8V20.4
	z M67.1,2.2l6.5-1.5c1.1,2.2,2.4,5,2.9,6.8l-6.8,1.7C69.3,7.5,68.1,4.5,67.1,2.2z M56.3,31.9l3.8-4.3c10.6,3.1,25.4,9,33,13.7
	l-4.2,5C81.9,41.7,67.3,35.4,56.3,31.9z M56.3,31.9c3.6-4.9,7.8-12.6,10-18.9l6.7,1.2c-2.4,6.4-6.5,13.7-9.5,18.2L56.3,31.9z
	 M102.3,3.9h13.8v29.5h-13.8v-5.3h8.4v-19h-8.4V3.9z M102.4,15.9h10.5V21h-10.5V15.9z M122.9,3.2h14.7v5.3h-14.7V3.2z M122.9,14.6
	h14.7v5.2h-14.7V14.6z M122.8,26h14.8v5.1h-14.8V26z M99.3,3.9h5.3v33.6h-5.3V3.9z M135.5,3.2h5.7v36.6c0,3-0.6,4.6-2.5,5.5
	c-1.9,0.9-4.7,1.1-8.7,1.1c-0.2-1.6-1.2-4.1-2-5.6c2.6,0.1,5.5,0.1,6.3,0.1c0.9,0,1.2-0.3,1.2-1.2V3.2z M119.4,3.2h5.7v17.4
	c0,8.3-1.3,19.6-10.2,26.1c-0.9-1.2-3.1-3.1-4.3-3.9c8.1-5.9,8.8-14.9,8.8-22.3V3.2z M151.3,4.1h33.5v41.6h-6.2V9.9h-21.4v35.8h-6
	V4.1z M155.4,20.3h25.8V26h-25.8V20.3z M155.4,36.8h25.9v5.8h-25.9V36.8z M220.7,17.1h17.7v5.3h-17.7V17.1z M194.5,6h21.6v4.7h-21.6
	V6z M194.1,25.1h22V30h-22V25.1z M193.8,16.7h23.1v4.8h-23.1V16.7z M228.3,19.5h5.6v26.6h-5.6V19.5z M197.1,11.6l4.6-1.1
	c0.7,1.6,1.4,3.8,1.6,5.2l-4.8,1.3C198.3,15.6,197.7,13.3,197.1,11.6z M208.8,10.5l5.2,1c-1.1,2.5-2,5-2.9,6.8l-4.7-1
	C207.3,15.4,208.3,12.5,208.8,10.5z M233.1,1.7l4.5,4.2c-5,2-11.7,3.4-17.4,4.3C220,9,219.2,7,218.5,5.8
	C223.8,4.8,229.6,3.3,233.1,1.7z M201.3,2.2l5.8-1.4c1,2.1,2.1,4.8,2.5,6.6l-6,1.6C203.2,7.2,202.2,4.3,201.3,2.2z M218.5,5.8h5.3
	V23c0,7.1-0.6,17-4.8,23.1c-0.9-1-3.2-2.8-4.4-3.4c3.6-5.5,3.8-13.5,3.8-19.7V5.8z M209.7,33l3.7-2.1c1.5,2.2,3.1,5,3.9,6.9
	l-3.9,2.4C212.6,38.3,211,35.2,209.7,33z M197.5,31.5l4.4,1.3c-1.2,3.4-3.2,7.4-4.9,9.9c-0.8-0.7-2.7-2-3.8-2.6
	C194.9,37.8,196.5,34.5,197.5,31.5z M203,19.3h5.6V46H203V19.3z M250.8,12.9H277v4.5h-26.1V12.9z M242.7,39.8h42.5V45h-42.5V39.8z
	 M255.6,30.7v2.6h16.2v-2.6H255.6z M255.6,24.1v2.6h16.2v-2.6H255.6z M250.1,19.8h27.6v17.9h-27.6V19.8z M243.4,5.2h41.2v10.7h-5.9
	v-5.7h-29.6v5.7h-5.7V5.2z M259.7,2.4l5.6-1.6c1.1,1.8,2.1,4.2,2.5,5.8l-6,1.8C261.6,6.9,260.6,4.3,259.7,2.4z M300.1,39.9h24.1v4.8
	h-24.1V39.9z M296.9,22.9h30.6v4.6h-30.6V22.9z M296.9,15.4h30.6v4.5h-30.6V15.4z M290.2,7.7h43.7v4.9h-43.7V7.7z M296.3,30.7H328
	v15.4h-5.9V35.5H302v10.8h-5.7V30.7z M306.9,2.4l5.8-1.4c1.7,2.2,3.5,5,4.2,7.1l-6.1,1.6C310.1,7.7,308.4,4.7,306.9,2.4z M9.4,96.6
	H42v4.9H9.4V96.6z M2.9,79.1h31.8v5.2H2.9V79.1z M17.1,87.9h21.8v4.9H17.1V87.9z M39.7,96.6h5.8c0,0-0.1,1.5-0.2,2.2
	c-0.8,9.7-1.6,13.9-3.2,15.6c-1.2,1.2-2.3,1.7-3.9,1.9c-1.3,0.1-3.6,0.1-6.1,0.1c0-1.6-0.7-3.8-1.6-5.3c2.1,0.2,4.1,0.3,5.1,0.2
	c0.8,0,1.3-0.1,1.8-0.5c1-1,1.8-4.6,2.4-13.3V96.6z M29.5,103.2l4-1.4c1.3,2,2.6,4.7,3.1,6.4l-4.2,1.5C32,108,30.7,105.2,29.5,103.2
	z M8.3,73.3l5.2-2c1.7,1.8,3.7,4.5,4.7,6.3l-5.5,2.3C11.9,78,10,75.2,8.3,73.3z M15,104.5l4.7-0.6c0.9,3.1,1.4,7.2,1.4,9.8l-4.9,0.7
	C16.3,111.8,15.8,107.7,15,104.5z M22.3,104.1l4.4-1c1.2,2.7,2.2,6.2,2.6,8.5l-4.7,1.2C24.3,110.5,23.3,106.9,22.3,104.1z
	 M8.6,102.9l4.8,1.6c-1,4.1-2.4,8.6-5.3,11.6L3.7,113C6.1,110.6,7.8,106.7,8.6,102.9z M23.1,71.2l5.9,1.4
	c-4.3,13.8-11.6,26.7-25.2,34c-0.7-1.4-2.1-3.7-3.1-5C12.9,95.5,19.9,83.3,23.1,71.2z M33.6,79.1h5.3c-0.7,3.6-1.6,7.8-2.4,10.6
	l-5-0.8C32.2,86.3,33.1,82.3,33.6,79.1z M36.7,87.9H42c-0.7,3.5-1.5,7.7-2.3,10.4l-5-0.7C35.4,95,36.2,91.1,36.7,87.9z M50.1,82.8
	h43.8v5.6H50.1V82.8z M56.6,72.6h6v35.5h30v5.6h-36V72.6z M69.1,71.6h5.8v25.8h6.6V72.1h6v30.6H69.1V71.6z M108.7,85.3v3.5h22.7
	v-3.5H108.7z M108.7,77.5v3.4h22.7v-3.4H108.7z M102.9,72.9h34.4v20.5h-34.4V72.9z M126.6,90.4c3.2,4.3,9.4,7.9,16.1,9.6
	c-1.3,1.2-3,3.4-3.8,4.9c-7.1-2.3-13.3-6.9-17.1-12.7L126.6,90.4z M113.5,90.3l5.1,2c-3.9,5.6-10.4,10.3-17.2,12.7
	c-0.9-1.4-2.6-3.6-3.8-4.8C104,98.4,110.3,94.6,113.5,90.3z M110.1,99.1h6v3.3c0,4.6-1.4,10.8-11,14.3c-0.8-1.4-2.7-3.6-3.9-4.7
	c8-2.6,9-6.7,9-9.7V99.1z M117.1,75.2h5.8v15.8h-5.8V75.2z M124.7,99.2h6v17h-6V99.2z M174.6,76.2h5.4v27h-5.4V76.2z M183.3,71.3
	h5.5v38.1c0,3-0.6,4.6-2.4,5.6c-1.7,0.9-4.4,1.1-8.3,1.1c-0.2-1.5-1-4.1-1.8-5.8c2.5,0.1,5,0.1,5.8,0.1c0.8,0,1.1-0.3,1.1-1.1V71.3z
	 M152.5,92.3h16.1v3.4h-16.1V92.3z M155.4,110.4h13.5v4.3h-13.5V110.4z M149.2,86.4h5.3v5.6c0,6.5-0.7,16.1-4.5,22.7
	c-1.1-0.8-3.6-1.8-5-2.2c3.8-6.2,4.2-14.8,4.2-20.4V86.4z M152.5,86.4h18.2v15.2h-18.3v-4h13.1v-7.2h-13V86.4z M153.2,103h18.7v12.9
	h-5v-9H158v9.2h-4.8V103z M159.5,71.2l5.3,2.1c-3.9,5.9-10.4,11.1-16.7,14.4c-0.5-1.3-2-4.2-3-5.5C150.7,79.7,156.4,75.8,159.5,71.2
	z M157.8,76.9l2.8-4.3c3.9,2.3,10.1,5.7,13.1,7.9l-3,4.9C167.9,83.1,161.9,79.4,157.8,76.9z M155.6,81.4h9.9v3.4h-9.9V81.4z
	 M213.5,76.7h22v4.9h-22V76.7z M207.9,85.6h29.6v4.8h-29.6V85.6z M213.2,71.7l5.2,1.2c-1.5,4.8-4.2,9.6-6.8,12.7
	c-1.1-0.8-3.4-2.1-4.7-2.6C209.7,80.2,212,76,213.2,71.7z M220,71.2h5.7v17.6H220V71.2z M195.2,73.9l4.3-2.6c2.3,2.3,5,5.3,6.4,7.2
	l-4.4,3.2C200.2,79.6,197.4,76.2,195.2,73.9z M194,82.4h9.6V87H194V82.4z M203.8,103.3c2.6,6.5,8.2,7.2,16.9,7.3
	c5.1,0,13.1-0.3,18.5-0.8c-0.8,1.2-1.5,3.7-1.8,5.3c-5,0.3-11.1,0.4-16.8,0.4c-11.1,0-17.1-1.5-20.6-10.7L203.8,103.3z M202.2,94.1
	h1.4l0.9-0.1l2.8,1c-1.6,10.6-5.4,17.7-10.8,21.4c-0.7-1.1-2.6-3.1-3.7-3.8c5-3.2,8.3-9.1,9.5-17.6V94.1z M194.9,99.3v-4.1l2.1-1.1
	h6.7v4.5h-5.9C196.7,98.6,195.3,98.9,194.9,99.3z M194.9,99.3c-0.3-1.2-1.3-3.6-1.9-4.6c0.8-0.2,1.6-0.6,2.4-1.6
	c1.3-1.3,5.3-7.5,6.8-10.2l0-0.1l1.4-0.6l3.5,1.4c-2.1,3.3-5.9,9.4-8.4,12.5C198.7,96.2,194.9,98,194.9,99.3z M216.7,97.6v5.2H229
	v-5.2H216.7z M211.2,93.1h23.7v14.3h-23.7V93.1z M242.9,73.4h42.3v5.1h-42.3V73.4z M261.4,75.6h6V95c0,9.7-4,17.8-22.1,21.4
	c-0.6-1.3-2.3-3.8-3.5-5.1c17.3-2.6,19.5-8.7,19.5-16.4V75.6z M252.5,93.4v3.2h23.9v-3.2H252.5z M252.5,86v3.1h23.9V86H252.5z
	 M247.1,81.4h35.1v19.8h-35.1V81.4z M252.8,101c6.7,8.6,18,9.3,34.3,9.1c-1,1.3-2.1,3.8-2.4,5.7c-16.9-0.3-29.6-1.9-37-12.8
	L252.8,101z M310.7,74.2h18.6v5.2h-18.6V74.2z M308.7,91h25.8v5.5h-25.8V91z M318.9,86.5h6v23.7c0,2.9-0.6,4.4-2.6,5.3
	c-2,0.8-4.7,1-8.5,1c-0.3-1.6-1.2-4-1.9-5.5c2.4,0.1,5.2,0.1,6,0.1c0.8,0,1.1-0.2,1.1-0.9V86.5z M327,74.2h1.5l1.3-0.3l3.9,2.8
	c-2.9,4.5-7.2,9.8-11.7,13c-0.7-1-2.3-2.4-3.2-3.2c3.3-2.8,6.6-7.9,8.1-11V74.2z M290.3,97.4l3.5-4c5.3,4.5,13.1,11,16.6,15.1
	l-3.8,4.8C303.1,109,295.6,102.3,290.3,97.4z M290.3,97.4c1.8-6.6,3.7-17.5,4.2-26.1l5.7,0.3c-0.8,9.1-2.8,20.3-4.7,27.6L290.3,97.4
	z M302.4,78.1h5.4v5.4c0,9.2-1.3,23.4-14.4,33c-0.8-1.2-2.8-3.2-4-4.1c12-8.4,13.1-20.9,13.1-29V78.1z M289.3,81.7
	c5.5-0.2,13.5-0.6,21.1-1l0,5.1c-7.2,0.5-14.9,1-20.5,1.3L289.3,81.7z M342.9,79h14.7v32.4h-14.7v-5.1h9.5V84.1h-9.5V79z M339.5,79
	h5.2v35.9h-5.2V79z M342.6,91.8h12.3v5h-12.3V91.8z M346.3,71.2l6.3,0.9c-1.1,3.3-2.3,6.7-3.3,8.9l-4.6-1
	C345.4,77.5,346.1,73.8,346.3,71.2z M363.9,78.7h14v5.2h-14V78.7z M376,78.7h5.3c0,0,0,1.9,0,2.6c-0.6,21.6-1.2,29.2-3.2,31.8
	c-1.3,1.9-2.7,2.4-4.7,2.7c-1.8,0.3-4.8,0.2-7.5,0.1c-0.1-1.6-0.9-4-1.9-5.6c3.1,0.2,6,0.3,7.2,0.3c1,0,1.5-0.2,2.1-0.9
	c1.5-1.6,2.2-9.9,2.7-29.9V78.7z M364.1,71.2l5.5,1.3c-1.9,7.1-5,14.4-8.3,19c-1.1-1-3.4-2.6-4.8-3.4
	C359.8,84.2,362.5,77.6,364.1,71.2z M361.7,92.5l4.5-2.5c2.4,3.3,5.5,7.9,7,10.8l-4.9,3C367.1,100.8,364,96.1,361.7,92.5z
	 M390.3,73.9h13.8v29.5h-13.8v-5.3h8.4v-19h-8.4V73.9z M390.4,85.9h10.5V91h-10.5V85.9z M410.9,73.2h14.7v5.3h-14.7V73.2z
	 M410.9,84.6h14.7v5.2h-14.7V84.6z M410.8,96h14.8v5.1h-14.8V96z M387.3,73.9h5.3v33.6h-5.3V73.9z M423.5,73.2h5.7v36.6
	c0,3-0.6,4.6-2.5,5.5c-1.9,0.9-4.7,1.1-8.7,1.1c-0.2-1.6-1.2-4.1-2-5.6c2.6,0.1,5.5,0.1,6.3,0.1c0.9,0,1.2-0.3,1.2-1.2V73.2z
	 M407.4,73.2h5.7v17.4c0,8.3-1.3,19.6-10.2,26.1c-0.9-1.2-3.1-3.1-4.3-3.9c8.1-5.9,8.8-14.9,8.8-22.3V73.2z M458.9,92
	c3.1,9.1,9.6,15.8,20.1,18.6c-1.3,1.2-3.1,3.7-3.9,5.3c-11.2-3.6-17.6-11.2-21.5-22.6L458.9,92z M436.8,74.5H475v5.9h-38.2V74.5z
	 M435,88.9h41.9v6H435V88.9z M452.5,76.5h6.1v8.8c0,9.9-2.3,23.7-21.5,30.8c-0.7-1.4-2.5-3.8-3.7-4.9c17.3-6.1,19.2-17.9,19.2-25.9
	V76.5z"/>
</svg>
